{"glyphs":{"0":{"ha":419,"x_min":80,"x_max":583,"o":"m 80 69 q 262 325 80 197 q 517 453 444 453 q 583 393 583 453 q 559 325 583 376 q 477 212 535 275 q 346 92 418 149 q 229 10 274 34 q 145 -14 184 -14 q 80 69 80 -14 m 573 393 q 522 446 573 446 q 457 426 494 446 q 344 339 420 406 q 203 201 269 273 q 118 96 137 130 q 98 37 98 62 q 112 7 98 20 q 149 -5 125 -5 q 227 18 184 -5 q 341 99 269 41 q 470 217 413 157 q 550 326 527 277 q 573 393 573 375 z "},"1":{"ha":355,"x_min":42,"x_max":556,"o":"m 556 454 l 128 11 q 123 -2 127 10 l 42 -1 l 510 431 l 129 241 l 126 248 l 550 460 l 556 454 z "},"2":{"ha":489,"x_min":39,"x_max":572,"o":"m 168 65 q 248 85 221 85 q 291 52 291 85 q 280 25 291 37 q 270 8 270 14 q 283 -1 270 -1 q 470 100 337 -1 l 473 94 l 423 58 q 354 15 401 41 q 281 -11 307 -11 q 249 0 262 -11 q 236 22 236 10 q 250 49 236 34 q 264 70 264 64 q 248 78 264 78 q 43 -11 181 78 l 39 -4 l 161 71 q 443 275 334 175 q 551 419 551 376 q 513 450 551 450 q 349 372 444 450 q 254 266 254 294 q 264 249 254 257 q 286 240 274 240 q 396 292 320 240 q 513 393 472 345 l 517 390 q 402 288 479 342 q 281 234 325 234 q 250 247 262 234 q 238 279 238 260 q 333 400 238 344 q 513 456 429 456 q 557 437 543 456 q 572 393 572 418 q 554 332 572 365 q 489 258 536 298 q 350 168 441 218 l 166 68 l 168 65 z "},"3":{"ha":411,"x_min":-12,"x_max":558,"o":"m 366 260 q 422 199 422 248 q 313 52 422 116 q 85 -12 204 -12 q 12 8 35 -12 q -12 56 -12 28 q 4 95 -12 79 q 37 112 19 112 q 60 104 51 112 q 69 83 69 96 q 61 61 69 71 q 39 52 53 52 q 18 61 25 52 q 8 71 11 71 q 0 54 0 71 q 23 12 0 26 q 79 -3 45 -3 q 286 87 168 -3 q 404 218 404 178 q 391 243 404 233 q 359 254 377 254 q 297 243 337 254 l 250 231 l 248 237 q 470 331 410 276 q 531 427 531 387 q 517 452 531 441 q 487 463 504 463 q 403 438 450 463 q 328 383 357 413 q 300 340 300 353 q 308 327 300 333 q 325 321 316 321 q 402 351 354 321 q 478 420 451 382 l 481 416 q 399 341 444 369 q 323 314 355 314 q 295 323 307 314 q 283 351 283 333 q 347 436 283 401 q 477 470 410 470 q 538 449 517 470 q 558 401 558 428 q 544 354 558 376 q 478 306 529 332 q 366 264 428 279 l 366 260 z "},"4":{"ha":440,"x_min":59,"x_max":533,"o":"m 325 120 l 233 22 q 209 -5 213 1 l 138 -2 l 280 130 q 175 152 225 152 q 60 117 131 152 l 59 119 q 264 293 109 159 q 455 469 420 427 l 533 467 q 271 265 393 345 l 213 226 q 112 152 161 191 l 113 149 q 211 160 159 160 q 297 146 260 160 l 431 272 l 471 272 l 341 136 q 385 130 366 130 q 475 152 437 130 l 476 147 q 353 115 418 115 q 325 120 340 115 z "},"5":{"ha":418,"x_min":9,"x_max":616,"o":"m 403 429 l 248 283 l 248 281 q 376 321 317 321 q 426 298 408 321 q 445 243 445 275 q 393 127 445 188 q 255 29 341 66 q 96 -7 170 -7 q 36 8 62 -7 q 9 54 9 24 q 25 95 9 77 q 60 112 41 112 q 83 104 74 112 q 92 84 92 96 q 82 61 92 71 q 58 52 72 52 q 38 60 46 52 q 28 68 31 68 q 18 50 18 68 q 39 16 18 30 q 88 2 60 2 q 182 25 132 2 q 300 110 231 49 q 395 210 370 171 q 420 272 420 249 q 406 301 420 289 q 371 314 392 314 q 281 290 336 314 q 176 220 226 267 l 173 225 l 425 465 q 520 430 463 430 q 615 457 574 430 l 616 452 q 486 408 557 408 q 403 429 435 408 z "},"6":{"ha":416,"x_min":79,"x_max":607,"o":"m 222 184 l 219 188 q 297 243 245 215 q 382 271 349 271 q 429 220 429 271 q 326 60 429 131 q 149 -12 223 -12 q 79 59 79 -12 q 153 216 79 130 q 362 382 227 302 q 560 462 496 462 q 594 451 582 462 q 607 421 607 439 q 594 390 607 404 q 565 376 582 376 q 546 384 554 376 q 538 401 538 391 q 547 420 538 412 q 567 428 555 428 q 587 421 577 428 q 595 431 595 422 q 584 448 595 441 q 559 455 572 455 q 432 404 511 455 q 225 217 352 352 q 98 28 98 81 q 109 4 98 14 q 133 -5 120 -5 q 223 32 174 -5 q 310 103 273 69 q 380 175 347 138 q 412 238 412 212 q 382 262 412 262 q 344 256 363 262 q 281 225 325 250 q 222 184 237 201 z "},"7":{"ha":382,"x_min":86,"x_max":649,"o":"m 649 451 q 511 333 614 417 q 163 -2 281 151 l 86 -3 q 389 254 216 128 l 519 348 l 570 389 l 569 393 q 524 385 541 385 q 458 406 501 385 q 394 427 416 427 q 309 397 359 427 q 229 335 259 368 l 223 338 l 357 460 l 361 454 l 303 401 q 448 455 396 455 q 474 451 463 455 q 507 429 484 446 l 524 415 q 559 402 541 402 q 590 412 574 402 q 645 454 606 421 l 649 451 z "},"8":{"ha":401,"x_min":56,"x_max":564,"o":"m 370 260 q 389 182 389 216 q 311 47 389 104 q 154 -11 233 -11 q 83 13 111 -11 q 56 77 56 36 q 119 181 56 140 q 311 246 183 222 q 290 319 290 290 q 347 418 290 372 q 473 464 403 464 q 537 448 510 464 q 564 405 564 432 q 507 316 564 357 q 370 260 450 274 m 367 267 q 496 317 441 277 q 552 404 552 357 q 526 444 552 431 q 469 457 500 457 q 376 425 416 457 q 336 351 336 392 q 367 267 336 319 m 314 239 q 119 164 174 211 q 64 67 64 118 q 89 17 64 38 q 156 -4 113 -4 q 283 43 228 -4 q 338 157 338 91 q 314 239 338 197 z "},"9":{"ha":410,"x_min":45,"x_max":572,"o":"m 45 -3 l 47 3 q 89 -5 71 -5 q 378 179 199 -5 q 557 414 557 363 q 545 440 557 430 q 517 450 532 450 q 341 352 445 450 q 237 218 237 253 q 246 194 237 203 q 271 184 255 184 q 377 235 304 184 q 491 332 450 287 l 494 330 q 390 235 467 294 q 270 176 312 176 q 232 195 247 176 q 218 237 218 213 q 330 387 218 315 q 505 458 443 458 q 572 395 572 458 q 475 214 572 314 q 265 51 378 115 q 90 -12 153 -12 q 45 -3 68 -12 z "}," ":{"ha":231,"x_min":0,"x_max":0,"o":""},"!":{"ha":315,"x_min":12,"x_max":526,"o":"m 92 73 l 452 466 l 526 468 l 95 70 l 92 73 m 86 34 q 72 4 86 16 q 41 -8 57 -8 q 20 0 28 -8 q 12 20 12 8 q 26 50 12 36 q 57 63 40 63 q 78 55 69 63 q 86 34 86 46 z "},"\"":{"ha":314,"x_min":242,"x_max":651,"o":"m 262 302 l 242 302 l 476 547 l 526 547 l 262 302 m 387 302 l 367 302 l 601 547 l 651 547 l 387 302 z "},"#":{"ha":455,"x_min":96,"x_max":614,"o":"m 370 212 l 212 37 l 199 37 l 357 212 l 268 212 l 111 37 l 96 37 l 254 212 l 153 212 l 160 224 l 264 224 l 341 311 l 243 311 l 250 322 l 352 322 l 499 486 l 513 486 l 366 322 l 455 322 l 603 486 l 614 486 l 468 322 l 562 322 l 554 311 l 458 311 l 380 224 l 473 224 l 465 212 l 370 212 m 444 311 l 355 311 l 278 224 l 367 224 l 444 311 z "},"$":{"ha":570,"x_min":157,"x_max":723,"o":"m 294 18 l 214 -85 l 203 -79 l 283 25 q 249 54 266 39 l 166 -52 l 157 -44 l 241 64 q 184 202 184 132 q 202 275 184 245 q 245 304 221 304 q 264 296 256 304 q 273 276 273 288 q 264 257 273 265 q 244 250 256 250 q 227 255 235 250 q 218 261 220 261 q 204 242 212 261 q 196 199 196 222 q 248 74 196 136 l 427 304 q 392 372 401 349 q 382 418 382 394 q 423 515 382 473 q 529 557 464 557 q 606 537 566 557 l 670 621 l 680 613 l 618 532 q 654 507 638 519 l 713 583 l 722 576 l 663 498 q 708 430 694 467 q 723 363 723 393 q 708 311 723 335 q 673 288 693 288 q 653 296 661 288 q 644 316 644 305 q 653 337 644 328 q 674 347 663 347 q 688 342 680 347 q 699 338 696 338 q 709 366 709 338 q 693 434 709 399 q 655 488 677 469 l 506 293 q 558 152 558 215 q 511 40 558 90 q 397 -9 463 -9 q 294 18 341 -9 m 598 526 q 545 538 572 538 q 468 506 497 538 q 438 431 438 473 q 465 355 438 401 l 598 526 m 610 522 l 472 344 l 499 304 l 647 496 q 610 522 631 511 m 258 65 q 294 37 273 50 l 461 255 q 434 294 447 277 l 258 65 m 304 31 q 367 14 336 14 q 461 54 419 14 q 503 146 503 94 q 468 244 503 189 l 304 31 z "},"%":{"ha":729,"x_min":173,"x_max":767,"o":"m 173 231 q 288 385 173 308 q 453 462 404 462 q 498 421 498 462 q 389 274 498 370 q 219 178 280 178 q 173 231 173 178 m 484 422 q 456 448 484 448 q 354 392 420 448 q 241 288 288 336 q 194 212 194 240 q 220 191 194 191 q 379 283 275 191 q 484 422 484 375 m 215 -1 l 695 451 l 699 446 l 218 -5 l 215 -1 m 441 45 q 557 200 441 123 q 722 277 672 277 q 767 236 767 277 q 658 89 767 186 q 488 -8 549 -8 q 441 45 441 -8 m 752 237 q 724 263 752 263 q 670 242 705 263 q 570 162 635 222 q 484 73 505 102 q 463 26 463 45 q 489 6 463 6 q 560 33 520 6 q 644 95 600 60 q 720 172 688 130 q 752 237 752 214 z "},"&":{"ha":607,"x_min":-123,"x_max":675,"o":"m 399 104 q 408 9 408 49 q 291 -235 408 -142 q 28 -328 174 -328 q -80 -302 -37 -328 q -123 -240 -123 -277 q -78 -160 -123 -193 q 29 -127 -33 -127 q 104 -141 65 -127 l 102 -145 q 28 -133 61 -133 q -73 -166 -30 -133 q -115 -238 -115 -199 q -77 -293 -115 -270 q 20 -316 -39 -316 q 272 -192 148 -316 q 395 58 395 -68 q 393 96 395 73 q 277 7 321 29 q 194 -15 233 -15 q 127 9 149 -15 q 106 61 106 34 q 148 151 106 109 q 241 206 190 193 l 371 238 q 421 359 372 311 q 523 408 471 408 q 559 397 546 408 q 572 366 572 385 q 534 296 572 330 q 380 232 496 261 q 397 127 382 183 q 536 245 492 218 q 614 273 581 273 q 658 259 642 273 q 675 229 675 245 q 665 209 675 218 q 645 199 656 199 q 627 207 635 199 q 620 225 620 214 q 631 247 620 239 q 642 257 642 254 q 632 264 642 260 q 614 267 623 267 q 567 256 590 267 q 497 204 543 245 q 399 104 451 163 m 378 241 q 516 293 467 258 q 564 367 564 328 q 521 401 564 401 q 424 352 469 401 q 378 241 378 303 m 388 118 l 378 178 q 372 214 373 211 l 371 230 q 241 178 283 205 q 168 105 199 151 q 136 34 136 59 q 150 4 136 16 q 188 -8 164 -8 q 288 25 233 -8 q 388 118 343 59 z "},"'":{"ha":170,"x_min":236,"x_max":520,"o":"m 256 302 l 236 302 l 470 547 l 520 547 l 256 302 z "},"(":{"ha":441,"x_min":247,"x_max":863,"o":"m 863 918 q 667 734 737 810 q 505 520 597 659 q 351 253 412 381 q 252 -11 290 125 l 247 -11 q 418 495 302 292 q 859 926 535 697 l 863 918 z "},")":{"ha":441,"x_min":180,"x_max":795,"o":"m 180 -3 q 374 180 303 103 q 535 393 445 256 q 688 657 626 529 q 791 926 750 785 l 795 926 q 617 409 736 606 q 183 -11 499 212 l 180 -3 z "},"*":{"ha":641,"x_min":483,"x_max":781,"o":"m 686 321 l 678 319 l 631 447 l 526 339 l 519 347 l 626 454 l 483 479 l 486 488 l 627 464 l 585 581 l 593 583 l 635 466 l 743 576 l 749 569 l 644 461 l 781 437 l 778 429 l 639 452 l 686 321 z "},"+":{"ha":555,"x_min":159,"x_max":550,"o":"m 353 208 l 173 28 l 159 28 l 338 208 l 187 208 l 201 222 l 353 222 l 536 405 l 550 405 l 367 222 l 515 222 l 501 208 l 353 208 z "},",":{"ha":164,"x_min":-104,"x_max":26,"o":"m -104 -37 q -25 50 -47 1 q -12 74 -17 68 q 3 79 -6 79 q 20 72 13 79 q 26 57 26 64 q 13 29 26 43 q -38 -7 -1 15 q -103 -40 -75 -30 l -104 -37 z "},"-":{"ha":184,"x_min":21,"x_max":207,"o":"m 21 140 l 27 147 l 207 147 l 203 140 l 21 140 z "},".":{"ha":271,"x_min":31,"x_max":104,"o":"m 104 34 q 90 4 104 16 q 59 -8 75 -8 q 39 0 47 -8 q 31 20 31 8 q 44 50 31 36 q 75 63 58 63 q 96 55 87 63 q 104 34 104 46 z "},"/":{"ha":502,"x_min":54,"x_max":1056,"o":"m 54 -50 l 1051 926 l 1056 922 l 59 -54 l 54 -50 z "},":":{"ha":290,"x_min":31,"x_max":299,"o":"m 299 237 q 284 208 299 220 q 253 195 270 195 q 233 203 241 195 q 225 224 225 212 q 239 253 225 240 q 270 267 253 267 q 290 258 281 267 q 299 237 299 250 m 104 34 q 90 4 104 16 q 59 -8 75 -8 q 39 0 47 -8 q 31 20 31 8 q 44 50 31 36 q 75 63 58 63 q 96 55 87 63 q 104 34 104 46 z "},";":{"ha":174,"x_min":-104,"x_max":210,"o":"m 210 237 q 196 208 210 220 q 164 195 181 195 q 144 203 153 195 q 136 224 136 212 q 150 253 136 240 q 181 267 164 267 q 202 258 193 267 q 210 237 210 250 m -104 -37 q -25 50 -47 1 q -12 74 -17 68 q 3 79 -6 79 q 20 72 13 79 q 26 57 26 64 q 13 29 26 43 q -38 -7 -1 15 q -103 -40 -75 -30 l -104 -37 z "},"<":{"ha":694,"x_min":46,"x_max":648,"o":"m 648 736 l 648 707 l 79 463 l 648 219 l 648 190 l 46 448 l 46 477 l 648 736 z "},"=":{"ha":555,"x_min":153,"x_max":552,"o":"m 223 243 l 237 258 l 552 258 l 537 243 l 223 243 m 153 172 l 168 187 l 482 187 l 467 172 l 153 172 z "},">":{"ha":694,"x_min":47,"x_max":648,"o":"m 47 736 l 648 477 l 648 448 l 47 190 l 47 219 l 616 463 l 47 707 l 47 736 z "},"?":{"ha":429,"x_min":60,"x_max":585,"o":"m 138 78 q 243 171 186 132 q 408 264 301 211 l 452 286 q 536 346 504 312 q 568 408 568 380 q 554 439 568 427 q 519 450 541 450 q 371 397 453 450 q 288 322 288 343 q 322 298 288 298 q 528 410 406 298 l 531 406 q 433 330 496 368 q 323 292 370 292 q 287 304 300 292 q 273 335 273 316 q 342 418 273 378 q 498 457 412 457 q 564 438 544 457 q 585 389 585 418 q 559 314 585 351 q 502 259 534 277 q 368 211 469 241 q 142 73 220 168 l 138 78 m 134 34 q 120 4 134 16 q 88 -8 105 -8 q 68 0 77 -8 q 60 20 60 8 q 74 50 60 36 q 105 63 88 63 q 126 55 117 63 q 134 34 134 46 z "},"@":{"ha":711,"x_min":163,"x_max":833,"o":"m 725 376 q 669 317 700 349 l 568 212 q 540 170 540 182 q 549 153 540 159 q 569 147 558 147 q 728 254 629 147 q 827 437 827 360 q 794 499 827 474 q 711 525 762 525 q 595 501 653 525 q 455 413 538 477 q 303 274 373 350 q 210 152 233 197 q 187 79 187 106 q 221 23 187 43 q 312 2 255 2 q 542 47 424 2 q 710 151 659 92 l 718 146 q 544 39 663 84 q 313 -7 425 -7 q 199 28 235 -7 q 163 106 163 64 q 254 289 163 183 q 476 464 345 394 q 702 533 608 533 q 795 506 758 533 q 833 438 833 479 q 807 350 833 406 q 700 218 780 294 q 573 142 621 142 q 539 152 551 142 q 528 178 528 163 q 556 246 528 201 q 389 143 433 143 q 360 158 370 143 q 350 196 350 173 q 445 321 350 265 q 600 378 540 378 q 634 350 634 378 q 632 333 634 343 l 674 376 l 725 376 m 626 350 q 599 372 626 372 q 458 288 553 372 q 364 170 364 205 q 389 148 364 148 q 525 228 425 148 q 626 350 626 308 z "},"A":{"ha":1082,"x_min":30,"x_max":1744,"o":"m 926 54 l 888 0 l 814 1 l 857 62 q 634 154 732 84 q 242 -13 428 -13 q 96 30 162 -13 q 30 137 30 73 q 50 192 30 172 q 94 212 70 212 q 132 197 117 212 q 148 161 148 182 q 135 130 148 142 q 102 117 121 117 q 57 172 60 117 l 54 173 q 38 130 38 153 q 102 34 38 75 q 251 -7 167 -7 q 462 49 351 -7 q 629 159 572 104 q 477 465 477 302 q 531 635 477 566 q 663 705 584 705 q 827 632 753 705 q 940 442 901 560 q 1342 784 1221 703 q 1560 906 1463 865 q 1744 949 1657 946 l 1553 777 q 1211 412 1417 653 q 932 62 1006 171 q 1124 131 1047 68 l 1128 126 q 926 54 1052 63 m 941 433 q 951 353 951 395 q 891 115 951 252 l 897 113 q 1326 610 1076 360 q 1713 935 1575 861 l 1712 940 q 1402 817 1580 928 q 941 433 1225 707 m 634 163 q 791 299 688 204 q 935 437 894 393 q 838 605 907 534 q 687 675 769 675 q 544 612 602 675 q 487 454 487 549 q 634 163 487 296 m 862 68 q 945 353 945 227 q 937 430 945 389 q 640 158 767 262 q 741 102 675 129 q 862 68 806 75 z "},"B":{"ha":1310,"x_min":220,"x_max":1674,"o":"m 1512 810 q 1560 677 1560 747 q 1495 525 1560 591 q 1299 426 1430 458 q 1340 309 1340 390 q 1285 146 1340 224 q 1141 30 1230 69 q 979 -9 1051 -9 q 934 4 952 -9 q 916 38 916 18 q 1018 176 916 98 q 1216 265 1120 254 l 1217 261 q 1018 169 1114 245 q 922 37 922 94 q 937 8 922 18 q 972 -2 953 -2 q 1123 58 1037 -2 q 1267 206 1210 119 q 1324 348 1324 294 q 1290 424 1324 397 q 1223 418 1255 418 q 1187 426 1199 418 q 1175 442 1175 433 q 1209 461 1175 461 q 1292 433 1249 461 q 1449 545 1365 446 q 1533 731 1533 644 q 1504 805 1533 774 q 1331 655 1425 753 q 1209 519 1238 557 l 1086 354 q 976 225 1029 279 q 854 125 922 172 q 711 44 785 78 q 568 -7 637 9 q 434 -23 498 -23 q 278 9 336 -23 q 220 94 220 41 q 234 131 220 115 q 267 146 248 146 q 296 135 284 146 q 307 106 307 124 q 296 78 307 90 q 270 66 285 66 q 243 79 256 66 q 239 72 239 76 q 289 13 239 40 q 437 -15 339 -15 q 646 27 550 -15 q 825 148 741 69 q 1062 400 909 227 l 1128 475 q 1499 812 1301 671 q 1344 909 1451 870 q 1099 949 1238 949 q 749 883 916 949 q 482 706 582 818 q 382 484 382 594 q 441 373 382 418 q 575 328 500 328 q 793 380 669 328 q 996 507 916 432 q 1076 659 1076 583 q 1038 726 1076 699 q 948 753 1000 753 q 711 666 837 753 q 504 441 585 579 l 498 445 q 703 668 574 576 q 947 760 832 760 q 1042 731 1001 760 q 1083 659 1083 702 q 931 431 1083 544 q 610 317 780 317 q 437 366 498 317 q 375 483 375 414 q 482 718 375 602 q 758 895 589 833 q 1096 956 926 956 q 1332 921 1224 956 q 1506 815 1440 886 q 1672 918 1570 861 l 1674 912 q 1512 810 1584 863 m 1281 430 q 1206 455 1250 455 q 1182 441 1182 455 q 1227 425 1182 425 q 1281 430 1254 425 z "},"C":{"ha":1080,"x_min":391,"x_max":1541,"o":"m 779 458 l 682 359 q 526 104 526 200 q 564 31 526 63 q 675 -2 602 -2 q 882 45 773 -2 q 1047 152 990 93 q 1104 263 1104 211 q 1075 316 1104 296 q 1011 336 1046 336 q 795 262 919 336 q 601 82 671 189 l 596 85 q 789 265 662 189 q 1011 341 916 341 q 1083 319 1055 341 q 1111 264 1111 296 q 959 77 1111 163 q 684 -9 807 -9 q 549 29 593 -9 q 505 132 505 68 q 520 217 505 174 q 591 338 534 260 q 693 452 648 415 q 647 450 662 450 q 457 504 524 450 q 391 632 391 558 q 527 851 391 762 q 890 941 663 941 q 976 937 929 941 l 975 931 q 901 934 934 934 q 530 825 655 934 q 404 616 404 716 q 466 508 404 559 q 646 456 528 456 q 697 458 663 456 q 1085 758 861 629 q 1458 888 1309 888 q 1518 870 1495 888 q 1541 827 1541 852 q 1440 687 1541 765 q 1148 541 1340 609 q 779 458 956 473 m 787 465 q 1160 551 970 481 q 1439 700 1350 622 q 1529 829 1529 779 q 1509 865 1529 850 q 1457 880 1488 880 q 1187 790 1331 880 q 895 563 1043 701 l 787 465 z "},"D":{"ha":1253,"x_min":222,"x_max":1541,"o":"m 1391 676 q 1237 861 1348 799 q 989 922 1126 922 q 700 856 837 922 q 460 675 564 790 q 357 475 357 559 q 416 369 357 420 q 575 318 474 318 q 923 418 763 318 q 1083 627 1083 519 q 1047 697 1083 664 q 952 730 1011 730 q 704 648 836 730 q 471 412 571 565 l 466 416 q 693 646 557 557 q 951 736 828 736 q 1053 700 1016 736 q 1089 627 1089 664 q 926 414 1089 517 q 575 312 763 312 q 401 371 467 312 q 336 510 336 430 q 425 725 336 625 q 667 877 513 825 q 979 930 821 930 q 1237 869 1124 930 q 1396 680 1349 809 q 1461 721 1417 694 l 1538 768 l 1541 763 l 1493 734 q 1450 707 1474 724 l 1398 674 q 1413 588 1413 631 q 1333 316 1413 460 q 1107 80 1253 172 q 777 -12 961 -12 q 600 16 677 -12 q 397 -7 506 -7 q 264 9 307 -7 q 222 48 222 25 q 331 92 222 92 q 522 60 412 92 l 621 26 q 666 36 625 25 q 748 65 708 47 q 832 116 787 83 q 912 185 877 149 q 1039 334 947 220 q 1391 676 1236 578 m 637 22 q 660 16 635 22 l 728 2 l 749 -1 q 770 -3 760 -1 q 791 -3 781 -3 q 811 -4 801 -4 q 1100 83 958 -4 q 1325 314 1243 170 q 1407 589 1407 458 q 1392 669 1407 628 q 1305 595 1345 635 q 1220 497 1265 555 q 1116 345 1182 447 q 1036 234 1065 269 q 972 173 1008 202 q 882 112 928 138 q 779 64 831 83 q 637 22 669 22 m 587 21 q 314 82 441 82 q 231 48 231 82 q 269 16 231 32 q 398 -1 307 -1 q 587 21 511 -1 z "},"E":{"ha":967,"x_min":353,"x_max":1360,"o":"m 832 593 q 851 540 833 557 l 868 541 q 947 529 920 541 q 973 504 973 518 q 964 489 973 495 q 944 483 955 483 q 848 533 893 483 q 516 360 646 505 q 387 112 387 215 q 431 30 387 64 q 551 -5 474 -5 q 843 84 695 -5 q 991 278 991 173 q 967 336 991 313 q 901 359 943 359 q 668 278 795 359 q 469 91 541 198 l 465 94 q 664 282 537 200 q 898 363 791 363 q 974 337 946 363 q 1001 277 1001 311 q 848 79 1001 169 q 554 -10 695 -10 q 402 44 452 -10 q 353 166 353 98 q 466 390 353 287 q 844 539 579 492 q 814 589 825 559 q 632 566 703 566 q 461 615 522 566 q 401 725 401 664 q 542 924 401 846 q 865 1001 682 1001 l 865 996 q 543 907 669 996 q 418 714 418 819 q 475 616 418 659 q 641 572 532 572 q 814 595 710 572 q 806 640 806 619 q 868 784 806 712 q 1057 918 930 855 q 1267 981 1184 981 q 1334 963 1308 981 q 1360 913 1360 945 q 1217 745 1360 840 q 832 593 1074 649 m 833 599 q 1217 751 1080 659 q 1353 917 1353 843 q 1330 959 1353 943 q 1269 975 1307 975 q 1003 845 1156 975 q 833 599 850 715 m 856 534 q 944 488 899 488 q 966 503 966 488 q 936 527 966 519 q 880 535 907 535 q 856 534 872 535 z "},"F":{"ha":990,"x_min":71,"x_max":1750,"o":"m 1748 949 q 1725 929 1750 949 q 1710 918 1718 923 l 1691 907 q 1670 899 1682 903 q 1643 890 1657 894 q 1615 883 1629 886 q 1590 880 1602 880 q 1565 878 1577 878 q 1439 888 1517 878 q 985 919 1198 919 q 760 894 836 919 q 619 831 684 869 q 504 739 554 793 q 453 635 453 684 q 495 560 453 591 q 602 528 537 528 q 834 596 724 528 q 945 736 945 663 q 922 781 945 762 q 859 800 899 800 q 568 655 715 800 l 563 658 q 707 769 626 730 q 859 807 788 807 q 929 785 905 807 q 953 736 953 762 q 889 625 953 678 q 743 547 825 572 q 597 522 661 522 q 489 554 533 522 q 444 629 444 587 q 612 838 444 728 q 1147 947 779 947 q 1421 937 1277 947 q 1628 927 1565 927 q 1644 928 1636 927 q 1661 928 1653 928 q 1678 930 1669 929 q 1692 932 1686 931 l 1705 935 q 1718 939 1712 937 q 1733 943 1725 941 q 1748 949 1748 949 m 964 446 q 675 104 845 221 q 275 -13 505 -13 q 122 22 172 -13 q 71 106 71 56 q 89 155 71 135 q 132 175 107 175 q 162 164 149 175 q 174 137 174 153 q 162 109 174 121 q 134 96 149 96 q 110 104 123 96 q 94 122 98 112 q 80 102 80 121 q 130 25 80 58 q 286 -7 179 -7 q 631 112 487 -7 q 914 441 775 231 q 884 443 891 443 q 751 425 834 443 q 584 369 667 406 l 581 374 q 899 449 760 449 q 919 448 911 449 q 1325 867 1084 691 l 1326 863 q 1177 735 1220 779 q 1065 600 1133 691 q 968 452 996 508 q 1064 461 1020 452 q 1188 572 1144 572 q 1215 553 1215 572 q 1174 498 1215 528 q 1074 457 1133 467 q 1029 336 1044 413 l 978 336 q 1003 376 999 371 q 1057 453 1007 381 q 978 446 991 446 l 964 446 m 1080 467 q 1165 499 1124 472 q 1206 550 1206 527 q 1185 566 1206 566 q 1135 536 1166 566 q 1080 467 1103 507 z "},"G":{"ha":1347,"x_min":355,"x_max":1724,"o":"m 1388 131 l 1393 126 q 1078 -28 1270 15 q 954 -168 991 -132 q 844 -245 916 -203 q 705 -308 772 -287 q 572 -330 637 -330 q 497 -314 520 -330 q 473 -275 473 -298 q 546 -184 473 -224 q 716 -117 619 -144 l 995 -47 q 1156 129 1078 57 l 1317 283 q 1013 117 1139 159 q 806 76 887 76 q 700 116 743 76 q 656 222 656 157 q 694 361 656 292 q 637 359 661 359 q 424 418 492 359 q 355 557 355 478 q 504 811 355 699 q 994 944 652 924 l 994 938 q 809 918 928 938 q 593 841 690 899 q 436 699 496 784 q 375 535 375 614 q 440 415 375 467 q 618 363 505 363 q 700 368 640 363 q 948 637 779 506 q 1318 845 1117 768 q 1628 922 1519 922 q 1696 906 1668 922 q 1724 861 1724 889 q 1376 572 1724 737 q 762 367 1029 408 q 685 180 685 256 q 722 109 685 136 q 809 81 759 81 q 1058 140 909 81 q 1400 357 1207 199 l 1407 347 q 1082 -20 1196 170 q 1234 32 1144 -8 q 1388 131 1324 72 m 766 372 q 1227 512 980 409 q 1594 708 1474 615 q 1714 865 1714 802 q 1690 901 1714 886 q 1625 915 1665 915 q 1346 838 1511 915 q 1008 621 1181 762 q 766 372 835 479 m 987 -58 q 615 -165 747 -110 q 483 -278 483 -220 q 505 -311 483 -298 q 568 -323 527 -323 q 759 -271 664 -323 q 987 -58 854 -220 z "},"H":{"ha":1095,"x_min":104,"x_max":1792,"o":"m 1136 131 l 1140 126 q 977 17 1048 45 q 854 -12 906 -12 q 800 11 821 -12 q 778 69 778 34 q 947 357 778 164 l 1063 488 q 956 467 1002 478 q 907 386 916 412 l 867 381 q 905 426 880 399 q 939 465 930 454 l 848 448 q 537 114 718 238 q 222 -10 357 -10 q 131 17 158 -10 q 104 77 104 45 q 137 170 104 128 q 236 256 170 211 q 416 349 301 302 q 785 448 532 397 q 925 612 861 543 q 1048 731 989 680 l 1169 836 q 988 758 1046 758 q 927 778 951 758 q 903 817 903 798 q 912 844 903 825 q 921 869 921 863 q 868 911 921 891 q 747 930 815 930 q 597 905 669 930 q 487 837 526 880 q 448 758 448 794 q 487 687 448 713 q 588 660 526 660 q 855 769 725 660 l 861 763 q 589 648 724 648 q 482 678 524 648 q 439 753 439 708 q 533 883 439 826 q 745 939 627 939 q 898 906 835 939 q 962 838 962 873 q 953 812 962 830 q 944 789 944 793 q 956 772 944 779 q 988 765 968 765 q 1073 788 1023 765 q 1225 884 1123 811 l 1259 907 q 1291 928 1269 915 l 1295 922 l 1211 861 q 1057 724 1137 807 q 853 458 976 642 l 949 475 l 1032 572 l 1050 591 l 1054 587 q 964 477 1005 538 l 1072 497 q 1397 791 1204 653 q 1708 928 1590 928 q 1768 910 1745 928 q 1792 866 1792 891 q 1608 670 1792 779 q 1141 502 1425 562 q 867 173 935 271 q 800 44 800 75 q 859 -3 800 -3 q 1136 131 983 -3 m 1148 511 q 1473 610 1321 545 q 1702 744 1625 674 q 1778 866 1778 814 q 1761 906 1778 891 q 1711 922 1743 922 q 1480 827 1617 922 q 1148 511 1342 732 m 778 439 q 267 263 418 365 q 116 72 116 161 q 140 20 116 42 q 222 -2 165 -2 q 314 12 269 -2 q 417 63 359 26 q 531 155 475 100 q 650 286 587 210 l 778 439 z "},"I":{"ha":772,"x_min":-68,"x_max":1404,"o":"m 804 446 q 464 82 642 172 q 142 -8 286 -8 q -10 25 47 -8 q -68 115 -68 59 q -52 161 -68 142 q -12 180 -37 180 q 22 166 8 180 q 37 136 37 153 q 23 105 37 119 q -8 92 10 92 q -41 108 -27 92 q -47 87 -47 94 q 2 29 -47 58 q 139 0 50 0 q 426 92 288 0 q 734 447 564 184 q 655 487 687 451 q 624 571 624 522 q 706 741 624 654 q 962 883 789 829 q 1294 937 1136 937 q 1404 929 1347 937 l 1404 925 q 1100 808 1235 908 q 809 454 966 708 q 995 533 906 458 q 1124 694 1084 608 l 1130 692 q 995 522 1083 592 q 804 446 906 451 m 739 455 q 890 647 833 584 q 1033 775 946 710 q 1197 874 1120 840 q 1371 927 1274 909 q 1301 931 1333 931 q 970 874 1128 931 q 724 726 812 817 q 635 557 635 635 q 668 485 635 516 q 730 454 701 454 q 739 455 732 454 z "},"J":{"ha":680,"x_min":-125,"x_max":1291,"o":"m 647 131 l 652 126 q 330 -43 516 5 q 80 -292 178 -214 q -64 -371 -18 -371 q -107 -355 -89 -371 q -125 -315 -125 -338 q -36 -197 -125 -264 q 262 -58 54 -130 q 625 441 373 76 q 539 485 572 448 q 506 567 506 522 q 600 739 506 652 q 856 880 694 826 q 1173 933 1017 933 q 1291 927 1227 933 l 1291 921 q 988 801 1129 895 q 686 444 846 707 q 871 519 780 447 q 1007 682 962 591 l 1013 680 q 872 511 970 586 q 681 436 774 436 q 581 288 654 389 l 490 160 q 337 -31 388 18 q 469 13 396 -22 q 606 97 543 47 l 647 131 m 629 449 q 888 743 738 613 q 1254 922 1039 873 q 1178 927 1222 927 q 858 871 1013 927 q 611 723 702 816 q 520 554 520 629 q 554 481 520 513 q 629 449 589 449 m 255 -70 q -16 -193 82 -124 q -113 -315 -113 -261 q -100 -346 -113 -333 q -64 -359 -86 -359 q 14 -327 -36 -359 q 157 -185 64 -294 l 255 -70 z "},"K":{"ha":1090,"x_min":29,"x_max":1838,"o":"m 1289 884 q 1117 750 1192 817 q 991 624 1043 684 q 853 436 939 564 q 693 231 766 309 q 529 96 619 153 q 367 14 439 38 q 229 -11 294 -11 q 83 28 138 -11 q 29 118 29 66 q 45 167 29 146 q 83 187 61 187 q 111 176 100 187 q 121 149 121 165 q 110 121 121 132 q 82 110 98 110 q 50 131 58 110 q 45 138 48 138 q 38 117 38 138 q 92 32 38 68 q 228 -3 146 -3 q 377 30 307 -3 q 516 128 448 64 q 701 336 585 192 l 789 444 q 998 662 899 578 l 1152 791 q 966 729 1034 729 q 904 747 930 729 q 877 790 877 766 q 890 830 877 805 q 903 861 903 855 q 851 907 903 887 q 736 926 799 926 q 521 859 614 926 q 427 722 427 791 q 465 650 427 677 q 569 623 502 623 q 854 758 726 623 l 857 755 q 739 657 822 706 q 576 608 656 608 q 467 639 513 608 q 420 717 420 669 q 517 864 420 796 q 740 931 614 931 q 890 893 834 931 q 945 819 945 854 q 938 788 945 809 q 930 760 930 766 q 966 738 930 738 q 1284 894 1084 738 l 1289 884 m 1131 131 l 1136 126 q 878 -9 979 -9 q 817 13 838 -9 q 796 70 796 35 q 807 126 796 99 q 839 177 819 153 q 933 272 859 201 q 1031 375 1007 343 q 1055 425 1055 406 q 1048 448 1055 435 q 992 441 1017 441 q 941 454 959 441 q 922 481 922 466 q 931 500 922 492 q 957 508 940 508 q 1050 456 1011 508 q 1140 494 1098 466 q 1217 550 1182 522 q 1375 706 1252 578 q 1586 879 1497 834 q 1744 924 1675 924 q 1810 906 1782 924 q 1838 861 1838 889 q 1827 830 1838 843 q 1801 818 1817 818 q 1774 830 1786 818 q 1763 855 1763 842 q 1772 881 1763 869 q 1796 892 1781 892 q 1799 897 1799 895 q 1783 908 1799 901 q 1744 915 1767 915 q 1619 878 1682 915 q 1444 720 1556 841 q 1286 565 1331 598 q 1178 499 1240 532 q 1053 450 1116 466 q 1069 386 1069 414 q 1053 322 1069 355 q 964 213 1037 289 l 885 130 q 826 32 826 68 q 871 -1 826 -1 q 984 29 922 -1 q 1102 106 1046 60 l 1131 131 m 1044 453 q 957 501 1006 501 q 929 480 929 501 q 945 458 929 468 q 994 448 961 448 q 1044 453 1017 448 z "},"L":{"ha":1064,"x_min":90,"x_max":1624,"o":"m 1105 131 l 1109 126 q 716 -12 966 -12 q 491 24 600 -12 q 264 -7 385 -7 q 122 4 155 -7 q 90 36 90 16 q 224 89 90 89 q 524 39 376 89 q 917 406 720 98 q 686 378 803 378 q 469 437 533 378 q 405 576 405 496 q 592 847 405 743 q 1035 951 780 951 q 1126 947 1078 951 l 1125 941 q 1037 945 1084 945 q 736 895 890 945 q 500 749 583 846 q 418 558 418 652 q 482 437 418 489 q 690 385 546 385 q 922 412 800 385 q 1253 783 1068 651 q 1543 914 1438 914 q 1601 894 1579 914 q 1624 843 1624 874 q 1419 609 1624 745 q 991 422 1214 473 q 866 252 906 300 q 768 157 825 203 q 660 83 711 111 q 538 37 609 56 q 755 1 667 1 q 921 23 831 1 q 1105 131 1010 46 m 997 429 q 1434 627 1253 493 q 1616 848 1616 761 q 1594 891 1616 873 q 1542 908 1573 908 q 1373 848 1472 908 q 1166 665 1274 787 q 997 429 1059 543 m 475 27 q 216 77 319 77 q 99 37 99 77 q 127 11 99 22 q 265 0 155 0 q 475 27 397 0 z "},"M":{"ha":1145,"x_min":30,"x_max":1657,"o":"m 1187 131 l 1192 126 q 954 -13 1031 -13 q 915 4 931 -13 q 899 50 899 22 q 1139 450 899 171 q 1622 913 1380 730 l 1619 918 q 1485 856 1559 901 q 1306 719 1410 811 q 1103 518 1202 627 q 860 238 1004 410 q 674 26 715 66 q 611 -13 634 -13 q 586 -1 595 -13 q 577 26 577 11 q 586 76 577 47 q 635 171 595 105 q 756 337 675 236 q 956 567 838 437 q 1125 743 1075 696 q 1324 913 1175 790 l 1322 916 q 1175 845 1244 888 q 1011 718 1105 802 q 842 555 916 635 q 669 355 768 476 q 514 176 570 234 q 391 73 458 119 q 270 6 325 26 q 161 -14 214 -14 q 67 13 104 -14 q 30 79 30 39 q 46 120 30 104 q 83 137 62 137 q 113 125 100 137 q 125 98 125 113 q 113 71 125 82 q 84 60 100 60 q 57 69 71 60 q 54 52 54 58 q 88 10 54 28 q 166 -7 121 -7 q 269 12 216 -7 q 391 80 321 31 q 511 181 460 128 q 653 344 562 233 q 1047 757 881 622 q 1354 931 1213 892 q 1094 660 1242 827 q 797 299 947 492 q 601 22 646 106 q 597 14 599 18 q 596 7 596 9 q 612 -6 596 -6 q 662 23 627 -6 q 790 162 697 52 l 971 377 q 1334 749 1156 596 q 1657 935 1513 902 q 1198 438 1481 780 q 916 28 916 97 q 927 4 916 14 q 954 -5 939 -5 q 1187 131 1024 -5 z "},"N":{"ha":1095,"x_min":30,"x_max":2042,"o":"m 867 -1 q 918 86 897 39 q 964 268 939 133 q 1011 474 989 402 q 1082 649 1033 545 q 1162 800 1131 753 l 1158 802 l 986 584 q 556 139 751 287 q 197 -9 360 -9 q 76 24 122 -9 q 30 107 30 56 q 52 166 30 141 q 103 192 75 192 q 133 180 120 192 q 145 153 145 169 q 135 127 145 137 q 108 117 124 117 q 71 146 81 117 q 64 146 67 146 q 43 109 43 146 q 86 30 43 61 q 199 -1 130 -1 q 508 112 339 -1 q 893 484 677 224 q 1190 856 1109 745 q 1223 897 1210 884 l 1229 894 q 1093 545 1145 802 l 1076 466 q 909 55 1037 288 l 913 54 l 1099 295 q 1529 760 1340 607 q 1889 913 1718 913 q 1998 885 1954 913 q 2042 817 2042 857 q 2029 781 2042 796 q 1998 766 2016 766 q 1976 775 1985 766 q 1966 797 1966 785 q 1977 821 1966 811 q 2000 831 1988 831 q 2012 827 2006 831 q 2021 824 2019 824 q 2029 836 2029 824 q 1986 883 2029 859 q 1887 907 1942 907 q 1527 752 1715 907 q 1056 229 1339 598 l 876 -8 l 867 -1 z "},"O":{"ha":977,"x_min":287,"x_max":1434,"o":"m 1147 819 q 1037 562 1134 669 q 847 455 939 455 q 791 478 810 455 q 772 537 772 501 q 827 694 772 611 q 966 827 883 777 q 1110 876 1050 876 q 1184 847 1151 876 q 1217 768 1217 819 q 1088 457 1217 629 q 763 137 960 284 q 450 -11 566 -11 q 328 43 369 -11 q 287 168 287 97 q 444 504 287 320 q 825 818 600 688 q 1238 947 1050 947 q 1380 911 1326 947 q 1434 816 1434 876 q 1384 723 1434 760 q 1274 685 1335 685 q 1250 686 1265 685 l 1249 691 l 1269 691 q 1379 726 1331 691 q 1427 816 1427 760 q 1374 909 1427 875 q 1241 943 1321 943 q 845 802 1048 943 q 478 443 641 662 q 315 112 315 223 q 356 28 315 61 q 446 -4 396 -4 q 753 134 566 -4 q 1075 448 939 273 q 1211 764 1211 624 q 1181 841 1211 813 q 1111 868 1150 868 q 898 748 1017 868 q 779 533 779 629 q 799 479 779 498 q 846 460 819 460 q 979 515 907 460 q 1095 658 1050 569 q 1143 819 1140 747 l 1147 819 z "},"P":{"ha":1024,"x_min":196,"x_max":1592,"o":"m 1412 773 q 1304 689 1360 742 q 1212 591 1249 637 q 1092 409 1175 545 q 925 190 1009 273 q 715 51 842 106 q 453 -5 588 -5 q 266 37 336 -5 q 196 138 196 79 q 213 183 196 165 q 254 201 229 201 q 288 188 274 201 q 302 156 302 176 q 291 127 302 138 q 261 115 279 115 q 229 130 240 115 q 220 113 220 121 q 244 64 220 94 q 327 17 269 34 q 456 1 386 1 q 648 39 558 1 q 806 143 739 77 q 956 312 874 209 l 1029 405 q 1215 617 1132 534 q 1410 779 1298 701 q 1285 885 1385 833 q 1045 936 1184 936 q 735 871 884 936 q 487 699 586 807 q 387 497 387 591 q 444 386 387 433 q 574 338 501 338 q 763 385 656 338 q 958 514 869 431 q 1046 667 1046 596 q 1011 738 1046 713 q 924 763 977 763 q 695 683 813 763 q 486 467 578 602 l 482 470 q 668 670 541 571 q 923 770 795 770 q 1021 740 986 770 q 1055 666 1055 710 q 915 446 1055 562 q 604 329 774 329 q 440 379 499 329 q 380 495 380 430 q 484 705 380 595 q 731 878 587 814 q 1038 942 875 942 q 1282 892 1180 942 q 1415 784 1383 843 q 1590 895 1513 854 l 1592 890 l 1512 841 q 1419 779 1478 819 q 1453 640 1453 713 q 1394 485 1453 542 q 1261 427 1336 427 q 1196 477 1196 427 q 1263 566 1196 524 q 1391 609 1330 609 l 1390 604 q 1260 556 1317 595 q 1202 476 1202 517 q 1234 443 1202 443 q 1359 518 1289 443 q 1430 681 1430 594 q 1412 773 1430 730 z "},"Q":{"ha":972,"x_min":289,"x_max":1433,"o":"m 1014 131 l 1019 126 q 743 -2 874 -2 q 635 60 668 -2 q 444 -5 529 -5 q 335 40 381 -5 q 289 163 289 86 q 325 330 289 250 q 461 522 361 410 q 692 733 562 635 q 968 886 821 831 q 1251 941 1115 941 q 1384 904 1335 941 q 1433 811 1433 867 q 1379 718 1433 752 q 1274 684 1326 684 q 1255 685 1267 684 l 1255 690 l 1272 690 q 1369 721 1318 690 q 1419 810 1419 753 q 1377 899 1419 863 q 1243 935 1334 935 q 933 862 1089 935 q 611 612 777 789 q 378 323 446 436 q 310 130 310 211 q 350 38 310 75 q 443 1 389 1 q 541 20 487 1 q 631 66 595 39 l 601 138 q 547 180 583 180 q 401 113 494 180 l 398 118 q 559 191 492 191 q 602 180 580 191 q 634 159 625 170 q 659 118 644 149 l 672 90 q 1041 413 876 210 q 1207 751 1207 616 q 1173 834 1207 806 q 1101 862 1138 862 q 915 771 1021 862 q 731 550 808 680 q 637 319 653 420 l 632 319 q 730 578 649 441 q 919 792 811 715 q 1103 869 1027 869 q 1178 838 1143 869 q 1214 754 1214 806 q 1043 406 1214 609 q 677 84 871 203 q 799 24 710 24 q 982 105 885 24 l 1014 131 z "},"R":{"ha":1238,"x_min":169,"x_max":1564,"o":"m 1279 131 l 1284 126 q 1025 -11 1124 -11 q 974 6 991 -11 q 957 44 957 23 q 971 95 957 67 q 1004 146 985 123 q 1082 223 1023 168 l 1125 262 q 1164 328 1164 298 q 1147 380 1164 353 q 1122 378 1131 378 q 1078 386 1097 378 q 1059 405 1059 393 q 1067 417 1059 412 q 1086 423 1075 423 q 1152 385 1124 423 q 1368 507 1274 401 q 1463 698 1463 613 q 1407 815 1463 774 q 1238 664 1314 748 q 1034 404 1162 580 l 962 304 q 839 175 921 248 q 634 45 758 102 q 395 -12 510 -12 q 231 27 292 -12 q 169 113 169 66 q 182 149 169 132 q 216 165 195 165 q 250 154 237 165 q 264 125 264 142 q 253 99 264 110 q 227 87 241 87 q 202 96 214 87 q 190 116 191 104 q 185 127 190 127 q 176 113 176 127 q 234 34 176 73 q 399 -5 293 -5 q 658 82 536 -5 q 928 352 779 169 l 1025 472 q 1400 819 1171 652 q 1242 902 1346 870 q 1005 935 1139 935 q 525 786 726 935 q 323 494 323 638 q 385 382 323 428 q 526 336 446 336 q 734 383 618 336 q 918 499 850 430 q 985 638 985 568 q 954 710 985 684 q 868 735 922 735 q 641 665 752 735 q 461 477 529 595 l 456 479 q 636 670 524 597 q 867 742 748 742 q 962 711 932 742 q 992 635 992 680 q 926 486 992 560 q 751 366 860 411 q 546 320 642 320 q 388 371 459 320 q 317 490 317 422 q 415 699 317 589 q 665 874 513 808 q 1007 941 818 941 q 1406 825 1268 941 q 1563 912 1520 898 l 1564 906 q 1413 820 1506 885 q 1495 648 1495 745 q 1412 480 1495 554 q 1156 380 1329 406 q 1177 309 1177 347 q 1159 242 1177 280 q 1077 146 1141 205 q 998 65 1013 87 q 983 29 983 43 q 1029 -5 983 -5 q 1155 42 1077 -5 q 1279 131 1233 88 m 1141 387 q 1087 416 1117 416 q 1066 405 1066 416 q 1082 391 1066 397 q 1117 385 1098 385 q 1141 387 1126 385 z "},"S":{"ha":878,"x_min":100,"x_max":1534,"o":"m 1007 499 q 644 92 819 191 q 287 -7 469 -7 q 150 24 201 -7 q 100 107 100 56 q 120 162 100 140 q 170 185 141 185 q 202 175 189 185 q 216 148 216 165 q 204 121 216 132 q 176 110 193 110 q 152 119 162 110 q 141 140 141 128 q 142 149 141 142 q 136 152 137 152 q 120 138 127 152 q 112 108 112 125 q 157 30 112 60 q 287 1 202 1 q 511 47 401 1 q 709 184 621 94 q 935 479 798 275 q 660 436 780 436 q 453 490 526 436 q 380 621 380 543 q 519 847 380 751 q 892 943 658 943 q 1010 937 949 943 l 1008 931 q 903 938 954 938 q 529 830 669 938 q 389 616 389 722 q 459 495 389 547 q 665 444 530 444 q 941 488 762 444 q 1219 791 1062 680 q 1470 902 1377 902 q 1516 887 1498 902 q 1534 852 1534 873 q 1459 727 1534 799 q 1237 586 1383 656 q 1007 499 1090 515 m 1012 507 q 1356 665 1190 554 q 1522 850 1522 775 q 1509 880 1522 868 q 1470 892 1495 892 q 1332 852 1411 892 q 1158 705 1253 811 q 1012 507 1062 599 z "},"T":{"ha":930,"x_min":71,"x_max":1739,"o":"m 1739 907 q 1655 862 1705 880 q 1559 845 1605 845 q 1338 871 1522 845 q 977 897 1154 897 q 587 804 720 897 q 453 625 453 710 q 499 547 453 581 q 614 513 545 513 q 833 577 722 513 q 943 712 943 641 q 916 762 943 744 q 853 781 889 781 q 682 735 774 781 q 507 604 589 690 l 503 608 q 675 741 581 692 q 854 789 769 789 q 925 768 899 789 q 952 718 952 748 q 839 572 952 637 q 612 507 726 507 q 492 542 539 507 q 445 621 445 578 q 491 730 445 669 q 625 836 536 790 q 838 901 714 881 q 1148 921 962 921 q 1398 913 1291 921 l 1554 900 q 1650 895 1612 895 q 1734 916 1697 895 l 1739 907 m 1326 846 l 1204 741 q 1104 640 1154 696 q 958 427 1055 583 q 781 193 861 271 q 572 55 701 114 q 305 -4 442 -4 q 133 31 195 -4 q 71 121 71 65 q 89 169 71 149 q 132 189 107 189 q 165 177 152 189 q 179 145 179 164 q 167 115 179 127 q 136 103 155 103 q 95 122 118 103 q 89 107 89 115 q 144 34 89 66 q 299 3 199 3 q 493 41 402 3 q 656 149 584 79 q 857 384 728 218 l 931 480 q 1128 686 1006 577 l 1322 849 l 1326 846 z "},"U":{"ha":1063,"x_min":386,"x_max":1586,"o":"m 1105 131 l 1109 126 q 876 -5 952 -5 q 838 9 852 -5 q 824 44 824 23 q 852 130 824 77 q 1058 352 880 183 l 1053 357 l 884 209 q 498 -6 640 -6 q 444 16 463 -6 q 426 64 426 38 q 484 194 426 116 q 730 431 543 272 q 985 675 917 589 q 1053 810 1053 760 q 999 897 1053 865 q 869 929 945 929 q 547 833 697 929 q 396 653 396 737 q 432 586 396 612 q 512 561 469 561 q 608 576 550 561 q 741 629 666 591 q 860 704 816 667 q 965 812 903 741 l 968 810 q 534 551 783 551 q 428 578 469 551 q 386 647 386 605 q 474 792 386 717 q 670 902 563 867 q 871 937 778 937 q 1011 900 957 937 q 1066 795 1066 863 q 1044 697 1066 745 q 977 589 1022 650 q 766 385 931 528 l 672 302 q 509 147 571 213 q 447 44 447 81 q 464 13 447 24 q 500 1 481 1 q 559 9 531 1 q 627 35 587 16 q 720 89 666 54 q 847 188 774 125 l 1142 444 q 1270 566 1192 488 l 1520 819 l 1586 821 l 920 151 q 839 32 839 70 q 850 11 839 19 q 876 3 861 3 q 1105 131 954 3 z "},"V":{"ha":946,"x_min":437,"x_max":1889,"o":"m 437 -1 q 549 104 495 43 q 691 288 604 166 l 789 425 q 917 575 835 489 l 1180 846 l 1177 848 q 960 758 1054 758 q 896 778 920 758 q 873 819 873 798 q 883 851 873 835 q 892 873 892 868 q 849 915 892 895 q 745 935 806 935 q 550 875 643 935 q 458 736 458 815 q 498 659 458 689 q 595 629 538 629 q 854 745 713 629 l 857 741 q 609 610 733 610 q 499 646 548 610 q 450 733 450 683 q 542 881 450 821 q 749 941 635 941 q 884 906 832 941 q 935 837 935 871 q 929 809 935 825 q 922 789 922 794 q 933 772 922 779 q 961 766 944 766 q 1276 949 1095 766 l 1283 942 l 1213 871 q 1097 741 1152 809 q 946 538 1042 673 l 884 452 q 716 252 833 380 q 458 5 598 124 l 460 0 q 568 34 511 7 q 712 121 625 62 q 893 264 800 180 q 1161 534 986 349 q 1437 803 1336 719 q 1622 924 1537 886 q 1768 962 1706 962 q 1857 938 1825 962 q 1889 876 1889 913 q 1873 834 1889 852 q 1837 817 1858 817 q 1812 827 1822 817 q 1801 850 1801 838 q 1812 875 1801 865 q 1836 886 1822 886 q 1864 871 1852 886 q 1872 884 1872 871 q 1845 933 1872 912 q 1768 954 1817 954 q 1653 931 1713 954 q 1516 854 1592 908 q 1373 738 1440 800 q 1088 447 1305 677 q 714 111 871 218 q 444 -11 557 4 l 437 -1 z "},"W":{"ha":1229,"x_min":437,"x_max":2171,"o":"m 463 -2 q 618 176 529 48 l 707 304 q 887 540 802 440 q 1174 836 972 640 l 1171 838 q 943 746 1036 746 q 882 763 908 746 q 857 807 857 780 q 859 822 857 817 q 872 841 861 826 q 883 861 883 855 q 830 907 883 887 q 728 928 777 928 q 540 868 633 928 q 446 735 446 809 q 485 664 446 696 q 598 632 524 632 q 718 652 662 632 q 846 732 774 672 l 850 727 q 607 612 727 612 q 488 649 538 612 q 437 731 437 686 q 534 875 437 812 q 746 938 631 938 q 874 902 819 938 q 930 824 930 867 q 918 795 930 810 q 905 774 905 780 q 939 756 905 756 q 1287 944 1088 756 l 1295 940 q 1135 781 1199 854 q 937 521 1072 707 q 711 232 803 335 q 487 10 618 128 l 488 7 q 620 75 540 24 q 768 186 701 125 q 951 371 836 247 q 1262 689 1125 557 q 1588 948 1399 821 l 1592 942 q 1426 775 1497 864 q 1258 546 1356 687 q 1095 325 1161 406 q 928 141 1029 243 q 780 5 828 39 l 781 0 q 1015 122 892 25 q 1431 517 1139 220 l 1546 633 q 1695 771 1594 682 q 1888 903 1796 859 q 2057 947 1981 947 q 2137 923 2104 947 q 2171 866 2171 900 q 2155 825 2171 844 q 2121 806 2140 806 q 2096 818 2107 806 q 2085 842 2085 829 q 2095 864 2085 854 q 2119 873 2104 873 q 2142 865 2134 873 q 2153 856 2151 856 q 2160 870 2160 856 q 2131 919 2160 898 q 2059 939 2102 939 q 1868 884 1978 939 q 1569 644 1759 828 l 1282 357 q 943 63 1056 132 q 750 -11 831 -7 q 984 259 836 48 l 1101 425 q 1240 596 1136 474 q 1519 888 1344 718 l 1516 889 q 1127 545 1365 791 l 864 267 q 762 171 819 220 q 645 81 704 121 q 549 23 587 41 q 465 -7 511 5 l 463 -2 z "},"X":{"ha":953,"x_min":34,"x_max":1650,"o":"m 995 131 l 1000 126 l 954 89 q 832 17 902 46 q 718 -12 763 -12 q 648 13 679 -12 q 618 81 618 38 q 663 213 618 134 q 783 370 707 292 l 777 375 q 466 116 656 244 q 140 -13 276 -13 q 60 12 86 -13 q 34 64 34 36 q 245 277 34 168 q 833 453 456 386 l 903 532 q 997 649 970 609 q 1037 730 1023 689 q 1050 804 1050 772 q 1005 902 1050 866 q 884 937 959 937 q 567 838 722 937 q 412 656 412 738 q 448 582 412 610 q 533 554 485 554 q 675 587 593 554 q 818 666 758 620 q 947 806 878 713 l 951 804 q 774 622 885 697 q 547 547 663 547 q 444 575 484 547 q 404 648 404 604 q 562 843 404 742 q 884 944 719 944 q 1022 899 970 944 q 1073 783 1073 854 q 996 592 1073 705 l 1022 613 l 1156 737 q 1348 872 1223 800 q 1560 944 1472 944 q 1624 922 1598 944 q 1650 871 1650 900 q 1547 716 1650 799 q 1256 559 1444 633 q 901 461 1068 485 q 725 245 810 364 q 640 70 640 125 q 662 17 640 39 q 718 -4 684 -4 q 843 30 768 -4 q 995 131 918 64 m 911 470 q 1267 570 1071 492 q 1552 730 1463 648 q 1640 872 1640 812 q 1618 916 1640 897 q 1559 935 1595 935 q 1471 919 1518 935 q 1344 854 1423 903 q 1204 755 1265 806 q 1046 611 1143 705 q 911 470 950 518 m 823 444 q 240 262 435 374 q 45 58 45 151 q 68 14 45 33 q 140 -5 92 -5 q 430 106 243 -5 q 823 444 616 218 z "},"Y":{"ha":955,"x_min":302,"x_max":1476,"o":"m 1476 781 l 1233 548 l 1023 332 l 918 217 q 701 54 824 115 q 453 -7 578 -7 q 343 21 383 -7 q 302 102 302 50 q 323 166 302 139 q 372 193 344 193 q 402 184 390 193 q 415 158 415 174 q 404 131 415 142 q 376 119 392 119 q 343 149 348 119 l 339 149 q 319 135 326 149 q 311 102 311 121 q 350 26 311 52 q 450 -1 388 -1 q 613 32 534 -1 q 760 124 692 64 q 954 321 829 184 l 1092 470 l 1088 474 q 666 218 804 218 q 598 238 619 218 q 576 287 576 258 q 604 373 576 327 q 655 443 631 418 q 766 535 679 468 q 904 651 852 602 q 975 734 956 701 q 994 803 994 767 q 950 889 994 858 q 840 921 907 921 q 620 873 734 921 q 447 762 505 825 q 389 644 389 699 q 417 591 389 611 q 497 571 446 571 q 714 632 594 571 q 929 809 835 694 l 932 806 q 728 618 829 674 q 509 562 626 562 q 411 585 441 562 q 380 644 380 608 q 449 774 380 708 q 632 884 517 840 q 841 928 746 928 q 958 892 907 928 q 1008 783 1008 857 q 986 696 1008 747 q 925 605 965 646 q 810 506 884 565 q 675 393 736 446 q 601 320 614 340 q 587 277 587 300 q 609 239 587 254 q 664 225 631 225 q 815 275 728 225 q 1040 441 903 325 l 1155 538 q 1236 613 1183 561 l 1407 781 l 1476 781 z "},"Z":{"ha":930,"x_min":139,"x_max":1358,"o":"m 971 131 l 976 126 q 827 12 877 39 q 734 -15 778 -15 q 683 6 702 -15 q 665 51 665 26 q 751 159 665 97 q 804 218 804 197 q 787 245 804 235 q 743 255 769 255 q 654 244 701 255 q 508 194 608 234 l 431 161 q 395 140 411 153 q 160 -10 201 -10 q 139 7 139 -10 q 150 25 139 16 q 246 81 161 35 q 422 165 332 127 q 506 241 472 209 q 619 352 540 273 q 751 479 698 430 q 687 501 713 501 q 587 449 648 501 l 582 454 q 652 506 614 487 q 720 526 690 526 q 782 508 754 526 l 817 542 q 923 631 864 587 l 1015 698 q 957 692 981 692 q 876 711 907 692 q 846 758 846 730 q 851 781 846 770 q 870 808 857 791 q 884 834 884 825 q 842 876 884 859 q 732 892 801 892 q 505 827 601 892 q 409 699 409 762 q 450 633 409 659 q 543 608 491 608 q 803 713 671 608 l 806 709 q 685 634 760 667 q 541 601 610 601 q 443 628 484 601 q 403 694 403 654 q 501 834 403 768 q 732 899 600 899 q 880 864 828 899 q 931 799 931 829 q 913 757 931 779 q 895 728 895 736 q 953 700 895 700 l 981 701 q 1013 705 996 701 q 1029 709 1029 708 l 1109 774 q 1235 863 1172 825 q 1327 901 1297 901 q 1350 894 1341 901 q 1358 877 1358 887 q 1345 843 1358 861 q 1274 793 1331 825 q 1162 737 1217 760 q 1035 701 1106 714 q 966 637 1008 680 l 909 576 q 824 489 876 541 q 890 468 872 468 q 988 524 927 468 l 991 519 q 862 441 916 441 q 796 461 837 441 q 612 306 760 421 l 454 184 l 455 180 q 637 247 584 232 q 736 262 690 262 q 810 239 787 262 q 833 189 833 216 q 814 133 833 158 q 745 72 795 109 q 695 18 695 35 q 708 1 695 8 q 736 -7 720 -7 q 971 131 818 -7 m 1046 711 q 1160 744 1103 720 q 1270 798 1217 768 q 1336 845 1323 829 q 1350 876 1350 861 q 1327 892 1350 892 q 1199 830 1289 892 q 1046 711 1109 768 z "},"[":{"ha":441,"x_min":195,"x_max":936,"o":"m 343 -3 l 195 -3 l 806 926 l 936 926 l 933 922 l 850 922 l 244 1 l 346 1 l 343 -3 z "},"\\":{"ha":947,"x_min":753,"x_max":923,"o":"m 753 925 l 762 926 l 923 -49 l 914 -50 l 753 925 z "},"]":{"ha":441,"x_min":195,"x_max":936,"o":"m 788 926 l 936 926 l 325 -3 l 195 -3 l 198 1 l 281 1 l 887 922 l 785 922 l 788 926 z "},"^":{"ha":694,"x_min":62,"x_max":633,"o":"m 98 546 l 62 546 l 329 926 l 366 926 l 633 546 l 595 546 l 345 905 l 98 546 z "},"_":{"ha":694,"x_min":-167,"x_max":543,"o":"m -152 -152 l 543 -152 l 528 -167 l -167 -167 l -152 -152 z "},"`":{"ha":694,"x_min":406,"x_max":566,"o":"m 566 310 q 530 315 557 310 q 498 323 513 319 q 468 336 484 329 q 439 352 452 344 q 420 366 428 359 q 412 375 414 370 q 407 384 409 379 q 406 393 406 389 q 425 412 406 412 q 432 412 429 412 q 437 409 435 411 q 446 401 441 407 l 461 382 q 485 359 472 371 q 507 341 496 349 q 530 327 516 334 q 566 310 564 310 z "},"a":{"ha":404,"x_min":9,"x_max":450,"o":"m 389 264 l 450 264 l 259 65 q 231 18 231 36 q 239 1 231 7 q 255 -5 247 -5 q 307 19 271 -5 q 446 131 343 43 l 450 126 q 306 12 341 34 q 252 -10 270 -10 q 226 2 235 -10 q 217 30 217 14 q 245 101 217 58 l 242 103 q 54 -10 104 -10 q 21 7 33 -10 q 9 52 9 24 q 118 196 9 130 q 302 263 227 263 q 340 231 340 263 q 339 212 340 223 l 389 264 m 332 232 q 300 256 332 256 q 135 158 244 256 q 26 20 26 60 q 34 4 26 12 q 55 -4 41 -4 q 120 21 75 -4 q 231 102 165 46 q 314 184 296 159 q 332 232 332 210 z "},"b":{"ha":426,"x_min":41,"x_max":851,"o":"m 46 126 l 41 131 l 203 265 q 269 310 233 291 l 452 494 q 653 671 544 587 q 810 756 762 756 q 851 720 851 756 q 783 603 851 672 q 597 460 714 533 q 414 359 480 387 q 334 315 349 330 l 189 155 q 97 23 97 55 q 107 3 97 11 q 131 -5 118 -5 q 238 38 168 -5 q 351 123 308 81 q 401 215 368 170 q 449 261 435 261 q 459 249 459 261 q 418 181 459 231 q 354 115 377 130 q 351 98 351 105 q 359 81 351 88 q 378 74 368 74 q 405 82 391 74 q 467 131 420 90 l 471 126 l 431 92 q 376 67 402 67 q 353 76 363 67 q 342 102 342 84 q 133 -14 190 -14 q 97 1 112 -14 q 82 40 82 16 q 137 162 82 97 l 248 283 q 253 287 248 284 l 251 291 q 203 257 222 275 q 119 186 184 239 l 46 126 m 365 347 q 424 372 361 342 q 518 420 464 390 q 648 500 595 464 q 745 581 700 537 q 811 654 791 625 q 837 697 831 683 q 842 722 842 711 q 811 749 842 749 q 682 675 768 749 q 498 496 595 602 l 365 347 z "},"c":{"ha":259,"x_min":9,"x_max":306,"o":"m 301 131 l 306 126 q 175 32 247 73 q 62 -10 103 -10 q 9 50 9 -10 q 109 199 9 132 q 258 266 209 266 q 287 256 275 266 q 298 232 298 246 q 280 193 298 212 q 247 175 262 175 q 231 182 238 175 q 223 198 223 190 q 233 219 223 210 q 254 228 242 228 q 270 219 265 228 q 277 210 275 210 q 287 218 283 210 q 291 233 291 227 q 281 252 291 244 q 262 259 272 259 q 124 155 221 259 q 27 22 27 50 q 37 3 27 10 q 61 -3 47 -3 q 174 39 104 -3 q 301 131 244 81 z "},"d":{"ha":413,"x_min":9,"x_max":829,"o":"m 774 631 l 829 632 l 349 153 q 233 16 233 37 q 241 1 233 7 q 258 -5 249 -5 q 319 22 278 -5 q 454 131 360 50 l 459 126 l 403 79 q 305 5 334 22 q 258 -12 276 -12 q 232 -2 243 -12 q 220 24 220 7 q 259 108 220 57 l 256 111 q 174 44 228 83 q 97 -4 120 4 q 55 -12 73 -12 q 21 3 33 -12 q 9 41 9 18 q 55 140 9 90 q 178 225 100 190 q 298 260 256 260 q 329 250 317 260 q 341 223 341 239 q 333 194 341 214 l 774 631 m 333 224 q 301 252 333 252 q 137 155 247 252 q 26 20 26 59 q 56 -4 26 -4 q 116 14 85 -4 q 211 81 147 32 q 304 164 275 130 q 333 224 333 199 z "},"e":{"ha":274,"x_min":9,"x_max":321,"o":"m 316 131 l 321 126 q 172 22 239 54 q 65 -10 105 -10 q 9 47 9 -10 q 114 191 9 123 q 278 259 219 259 q 297 253 289 259 q 304 238 304 247 q 239 168 304 205 q 93 123 173 132 q 24 28 24 54 q 36 5 24 16 q 64 -5 48 -5 q 164 25 100 -5 q 316 131 229 56 m 103 131 q 175 149 123 131 q 261 194 227 166 q 295 240 295 222 q 280 253 295 253 q 241 242 262 253 q 176 198 220 231 q 103 131 133 164 z "},"f":{"ha":275,"x_min":-302,"x_max":878,"o":"m 46 126 l 41 131 q 133 200 77 162 q 164 257 146 235 q 191 279 181 279 q 199 270 199 279 q 178 230 199 261 l 299 307 q 341 345 311 315 q 548 546 475 481 q 691 662 621 610 q 792 728 761 714 q 843 742 823 742 q 868 733 857 742 q 878 713 878 725 q 815 604 878 671 q 614 452 753 536 q 377 336 475 368 l 166 105 q 222 85 189 85 q 317 131 264 85 l 321 126 q 221 77 266 77 q 160 98 186 77 l -235 -325 l -302 -326 l -100 -113 q 58 81 -14 -22 q 130 189 130 184 q 91 164 98 169 q 79 155 84 159 l 46 126 m 869 713 q 861 728 869 722 q 841 734 852 734 q 784 715 821 734 q 688 650 746 697 q 510 477 631 602 q 389 347 389 352 q 504 400 389 344 q 709 525 619 456 q 833 642 798 593 q 869 713 869 691 m 140 194 q 132 163 132 176 q 140 135 132 151 l 284 285 l 282 288 l 140 194 m 133 128 q 128 140 130 136 l 123 163 q 14 7 94 109 l 18 5 l 133 128 z "},"g":{"ha":423,"x_min":-268,"x_max":470,"o":"m 412 264 l 470 264 l 144 -58 q 288 5 201 -43 q 417 91 374 54 l 465 131 l 469 126 q 276 -10 370 39 q 133 -68 183 -58 q -100 -283 -28 -231 q -230 -334 -171 -334 q -258 -326 -248 -334 q -268 -307 -268 -318 q -153 -182 -268 -258 q 73 -83 -39 -105 l 214 63 l 213 65 q 60 -12 113 -12 q 24 6 39 -12 q 9 49 9 24 q 61 148 9 98 q 195 233 113 197 q 324 268 277 268 q 352 259 340 268 q 364 238 364 251 q 357 208 364 227 l 412 264 m 30 24 q 59 -5 30 -5 q 236 94 117 -5 q 355 235 355 193 q 319 261 355 261 q 244 234 288 261 q 138 155 199 208 q 54 72 77 102 q 30 24 30 41 m 63 -93 q -173 -204 -85 -134 q -261 -305 -261 -273 q -227 -326 -261 -326 q -152 -301 -192 -326 q -6 -165 -111 -276 l 63 -93 z "},"h":{"ha":498,"x_min":2,"x_max":867,"o":"m 46 126 l 41 131 l 106 184 q 232 279 159 229 q 307 330 305 329 l 494 522 q 601 623 549 578 q 705 700 654 669 q 783 741 755 732 q 826 749 810 749 q 867 710 867 749 q 751 563 867 658 q 449 383 634 468 q 361 336 371 347 l 288 256 q 138 81 214 174 l 144 79 q 302 209 219 150 q 426 267 386 267 q 469 224 469 267 q 455 171 469 197 q 397 107 442 146 l 355 72 q 311 16 311 34 q 331 -1 311 -1 q 541 131 392 -1 l 545 126 l 492 81 q 404 20 451 47 q 332 -7 357 -7 q 303 6 314 -7 q 293 42 293 20 q 309 87 293 66 q 377 153 324 108 q 441 212 429 197 q 453 237 453 226 q 445 254 453 248 q 426 260 436 260 q 378 245 412 260 q 283 187 344 231 q 162 86 222 143 q 69 0 102 28 l 2 -1 l 282 300 l 279 303 q 46 126 218 268 m 857 712 q 827 741 857 741 q 724 698 786 741 q 526 514 661 655 q 391 366 391 374 q 481 406 391 365 q 587 462 534 431 q 725 552 669 509 q 817 638 781 595 q 852 693 844 671 q 857 712 857 703 z "},"i":{"ha":226,"x_min":30,"x_max":379,"o":"m 379 397 q 367 372 379 382 q 341 362 355 362 q 325 369 332 362 q 318 387 318 376 q 330 411 318 399 q 355 422 341 422 q 372 415 366 422 q 379 397 379 408 m 46 126 l 41 131 q 209 264 75 159 l 275 264 l 60 52 q 43 28 47 40 l 43 23 q 50 7 43 14 q 67 1 57 1 q 129 23 89 1 q 267 131 168 45 l 272 126 q 68 -6 121 -6 q 40 5 51 -6 q 30 34 30 16 q 47 89 30 60 q 177 226 64 117 l 176 229 l 113 182 l 46 126 z "},"j":{"ha":228,"x_min":-456,"x_max":351,"o":"m 351 399 q 339 374 351 385 q 314 363 328 363 q 298 371 304 363 q 291 388 291 378 q 302 413 291 401 q 328 424 314 424 q 345 417 338 424 q 351 399 351 410 m -26 -37 q 32 -12 -28 -39 q 113 26 92 15 q 159 53 135 38 q 211 87 183 67 q 270 131 239 107 l 274 126 q 157 43 200 69 q 36 -18 115 18 q -47 -59 -42 -53 l -106 -121 q -269 -266 -185 -203 q -413 -330 -353 -330 q -445 -321 -433 -330 q -456 -300 -456 -313 q -358 -186 -456 -254 q -92 -58 -260 -119 q 13 59 -55 -14 l 174 232 l 172 234 l 46 126 l 41 131 q 111 190 66 151 l 197 264 l 257 264 l 231 235 q 126 123 186 186 l -26 -37 m -447 -298 q -412 -321 -447 -321 q -326 -291 -374 -321 q -193 -166 -279 -260 l -108 -74 q -164 -95 -108 -73 q -282 -150 -220 -116 q -381 -215 -343 -184 q -433 -264 -420 -245 q -447 -298 -447 -283 z "},"k":{"ha":456,"x_min":5,"x_max":865,"o":"m 46 126 l 41 131 l 189 255 q 327 346 243 300 l 519 534 q 817 749 739 749 q 852 735 839 749 q 865 707 865 722 q 847 658 865 686 q 775 581 829 630 q 611 466 721 532 q 418 365 501 399 q 372 336 386 351 l 68 -3 l 5 -3 l 283 295 l 310 322 l 307 325 q 144 209 248 298 l 46 126 m 855 706 q 844 730 855 720 q 816 741 833 741 q 789 736 802 741 q 747 710 777 730 q 644 622 718 690 q 487 461 571 553 q 403 368 403 369 q 467 396 403 366 q 630 488 531 426 q 780 597 730 550 q 843 668 831 645 q 855 706 855 690 m 497 131 l 502 126 q 359 17 402 41 q 288 -7 317 -7 q 254 10 264 -7 q 244 43 244 28 q 274 96 244 69 q 304 134 304 123 q 273 150 304 150 q 219 143 245 150 l 220 150 q 235 153 234 153 l 283 157 q 315 164 302 158 q 349 192 328 170 q 484 269 422 269 q 507 260 498 269 q 515 242 515 252 q 510 228 515 234 q 496 222 504 222 q 480 237 480 222 q 487 249 480 246 q 494 254 494 252 q 480 264 494 264 q 457 256 469 264 q 423 222 446 249 q 304 153 382 172 q 328 110 328 138 q 319 77 328 90 q 289 46 310 64 q 267 19 267 28 q 290 1 267 1 q 497 131 349 1 z "},"l":{"ha":291,"x_min":41,"x_max":851,"o":"m 46 126 l 41 131 q 216 277 191 258 q 256 302 241 295 q 281 319 271 309 q 502 538 396 442 q 683 688 608 635 q 808 741 758 741 q 839 730 826 741 q 851 705 851 719 q 764 588 851 666 q 549 433 677 511 q 353 336 421 356 q 295 273 337 318 l 241 213 l 172 132 q 96 24 101 47 l 96 18 q 121 -5 96 -5 q 332 131 180 -5 l 337 126 l 296 91 q 117 -14 172 -14 q 87 -1 100 -14 q 75 31 75 12 q 153 176 75 81 q 253 286 231 271 l 252 290 q 180 237 228 279 l 46 126 m 362 347 q 546 440 416 364 q 759 593 676 517 q 842 705 842 669 q 831 725 842 716 q 806 733 821 733 q 707 694 765 733 q 529 531 649 655 q 362 347 410 407 z "},"m":{"ha":764,"x_min":41,"x_max":810,"o":"m 46 126 l 41 131 l 110 187 q 254 271 212 271 q 292 229 292 271 q 233 127 292 191 l 236 124 q 473 268 410 268 q 506 256 494 268 q 517 231 517 245 q 453 123 517 191 l 456 121 q 549 199 501 165 q 630 248 597 233 q 686 262 663 262 q 730 224 730 262 q 705 158 730 190 q 594 58 680 127 q 570 26 570 38 q 602 2 570 2 q 672 26 632 2 q 805 131 711 50 l 810 126 q 662 13 699 32 q 601 -5 625 -5 q 569 8 582 -5 q 555 39 555 21 q 575 91 555 64 q 654 164 594 117 q 714 235 714 210 q 688 254 714 254 q 599 223 654 254 q 474 129 545 193 l 393 54 q 337 -1 357 20 l 275 -2 l 368 90 q 467 194 442 164 q 492 240 492 224 q 486 254 492 247 q 469 260 479 260 q 373 219 438 260 q 236 115 308 177 l 106 -1 l 45 -2 l 69 25 l 157 111 q 248 206 226 179 q 271 248 271 233 q 253 262 271 262 q 182 232 228 262 q 46 126 136 201 z "},"n":{"ha":532,"x_min":41,"x_max":578,"o":"m 41 131 q 259 264 201 264 q 282 255 273 264 q 292 231 292 246 q 235 125 292 186 l 237 123 q 458 262 397 262 q 504 223 504 262 q 485 169 504 197 q 417 99 467 141 q 356 44 368 57 q 344 21 344 31 q 350 8 344 14 q 365 3 357 3 q 430 25 386 3 q 529 94 474 47 l 573 131 l 578 126 q 363 -4 432 -4 q 337 8 348 -4 q 326 37 326 20 q 335 72 326 54 q 354 102 343 90 q 404 148 364 114 l 435 174 q 488 237 488 219 q 461 255 488 255 q 321 184 411 255 q 113 0 232 113 l 46 0 l 233 186 q 277 243 277 230 q 258 259 277 259 q 46 126 205 259 l 41 131 z "},"o":{"ha":300,"x_min":9,"x_max":347,"o":"m 342 131 l 347 126 q 295 102 321 102 q 258 118 273 102 q 151 29 208 65 q 56 -7 94 -7 q 23 7 37 -7 q 9 47 9 22 q 61 158 9 104 q 179 240 113 211 q 286 270 246 270 q 324 233 324 270 q 263 124 324 195 q 296 109 275 109 q 342 131 319 109 m 318 235 q 308 256 318 248 q 286 264 298 264 q 131 161 235 264 q 26 25 26 58 q 36 8 26 16 q 58 0 45 0 q 139 30 86 0 q 233 101 193 59 q 296 177 273 144 q 318 235 318 211 z "},"p":{"ha":496,"x_min":-334,"x_max":543,"o":"m 47 126 l 42 131 q 266 309 142 216 l 358 377 q 448 452 374 389 l 491 454 l 203 153 l 165 115 l 168 110 q 442 283 373 283 q 473 269 460 283 q 486 233 486 254 q 474 190 486 214 q 401 118 463 166 q 307 22 307 45 q 337 -1 307 -1 q 538 131 384 -1 l 543 126 q 335 -9 382 -9 q 305 2 318 -9 q 292 38 292 14 q 302 79 292 60 q 326 113 311 98 q 393 170 341 127 l 432 201 q 469 252 469 231 q 460 268 469 262 q 441 275 451 275 q 250 168 393 275 q -93 -141 106 61 l -267 -319 l -334 -319 l 374 374 l 371 378 q 47 126 184 244 z "},"q":{"ha":422,"x_min":-173,"x_max":469,"o":"m 416 264 l 463 264 l 94 -107 l 96 -111 q 464 131 386 56 l 469 126 q 296 2 395 60 l 68 -133 l -114 -315 l -173 -315 l 217 69 l 215 71 q 52 -10 97 -10 q 9 39 9 -10 q 69 154 9 98 q 204 236 130 209 q 321 264 278 264 q 351 254 339 264 q 363 229 363 244 q 357 206 363 221 l 416 264 m 355 229 q 319 258 355 258 q 271 245 296 258 q 186 189 246 233 q 85 104 125 144 q 34 46 44 64 q 23 20 23 28 q 55 -3 23 -3 q 133 26 79 -3 q 255 111 186 56 q 339 188 323 166 q 355 229 355 209 z "},"r":{"ha":315,"x_min":41,"x_max":361,"o":"m 46 126 l 41 131 l 144 216 q 179 246 169 235 q 157 281 157 259 q 167 307 157 296 q 189 317 177 317 q 205 310 198 317 q 212 292 212 302 q 205 273 212 281 q 186 265 197 265 q 171 271 179 265 q 170 267 170 268 q 180 255 170 261 q 208 249 189 249 q 264 262 234 249 l 300 222 q 247 160 288 197 q 167 82 207 123 q 121 32 127 40 q 116 16 116 24 q 138 -3 116 -3 q 218 27 163 -3 q 356 131 272 58 l 361 126 q 136 -10 203 -10 q 105 2 117 -10 q 94 35 94 15 q 111 87 94 61 q 182 166 127 113 q 258 246 237 220 l 256 251 q 203 241 227 241 q 189 243 196 241 l 46 126 z "},"s":{"ha":243,"x_min":-14,"x_max":294,"o":"m 46 126 l 41 131 l 290 339 l 294 332 q 258 298 266 309 q 250 269 250 286 q 254 225 250 254 q 259 171 259 195 q 224 79 259 121 l 285 131 l 290 126 q 42 -8 137 -8 q 2 5 19 -8 q -14 39 -14 18 q -4 66 -14 55 q 21 77 7 77 q 36 71 30 77 q 43 57 43 65 q 34 36 43 45 q 14 27 24 27 q 3 29 10 27 q 41 -1 3 -1 q 162 77 95 -1 q 237 241 230 155 q 246 292 239 269 l 46 126 z "},"t":{"ha":277,"x_min":41,"x_max":489,"o":"m 46 126 l 41 131 l 228 283 l 307 346 l 245 346 l 248 352 l 317 352 l 431 472 l 489 473 l 378 352 l 476 352 l 474 346 l 372 346 l 138 96 q 87 40 96 52 q 79 18 79 28 q 87 1 79 8 q 105 -6 96 -6 q 318 131 161 -6 l 323 126 q 104 -14 159 -14 q 74 0 86 -14 q 61 35 61 15 q 129 157 61 85 l 267 301 l 264 303 l 46 126 z "},"u":{"ha":450,"x_min":28,"x_max":496,"o":"m 46 126 l 41 131 q 149 221 119 194 q 202 264 180 249 l 267 264 q 213 210 248 243 l 63 54 q 41 24 45 36 l 41 19 q 49 3 41 10 q 68 -4 57 -4 q 154 34 98 -4 q 258 116 211 71 l 344 197 q 418 264 379 229 l 485 264 q 339 114 393 175 l 294 64 q 262 15 262 27 q 287 -5 262 -5 q 364 28 317 -5 q 491 131 411 61 l 496 126 q 342 6 379 25 q 286 -13 305 -13 q 259 -1 271 -13 q 248 30 248 10 q 319 151 248 79 l 384 217 l 380 221 q 66 -10 146 -10 q 39 1 51 -10 q 28 33 28 13 q 75 125 28 76 l 177 229 l 172 232 q 46 126 145 207 z "},"v":{"ha":447,"x_min":41,"x_max":500,"o":"m 46 126 l 41 131 l 138 211 q 190 247 154 224 q 251 269 226 269 q 274 260 263 269 q 284 234 284 250 q 270 183 284 212 q 201 107 255 153 q 137 48 148 61 q 125 24 125 35 q 153 3 125 3 q 264 42 191 3 q 383 123 337 81 q 443 227 408 186 q 490 269 477 269 q 500 256 500 269 q 460 190 500 239 q 391 120 420 140 q 418 92 393 92 q 488 131 444 92 l 493 126 l 470 108 q 418 85 441 85 q 381 112 392 85 q 252 27 320 62 q 154 -7 184 -7 q 123 5 139 -7 q 108 42 108 18 q 125 95 108 68 q 204 172 142 121 q 266 243 266 222 q 259 256 266 249 q 243 262 252 262 q 117 185 212 262 l 46 126 z "},"w":{"ha":673,"x_min":41,"x_max":720,"o":"m 46 126 l 41 131 l 125 200 q 243 272 212 272 q 270 259 260 272 q 280 228 280 245 q 267 180 280 204 q 200 108 254 155 q 133 47 145 61 q 121 22 121 33 q 144 1 121 1 q 235 42 176 1 q 328 112 295 84 l 495 264 l 557 264 l 521 222 l 427 126 q 360 54 374 71 q 347 26 347 37 q 357 6 347 13 q 381 -1 368 -1 q 487 32 423 -1 q 617 124 551 65 q 659 219 630 173 q 705 266 688 266 q 715 253 715 266 q 684 188 715 229 q 625 123 652 146 l 625 116 q 632 99 625 106 q 650 93 640 93 q 671 97 661 93 q 715 131 681 101 l 720 126 q 650 86 675 86 q 616 114 621 86 q 489 25 555 59 q 376 -8 422 -8 q 344 5 357 -8 q 331 39 331 18 q 350 95 331 65 q 452 207 370 125 l 449 211 l 340 114 q 236 34 297 76 q 144 -7 175 -7 q 118 5 130 -7 q 106 41 106 18 q 126 100 106 73 q 204 175 146 127 q 262 248 262 223 q 244 265 262 265 q 200 248 229 265 q 98 170 171 230 l 46 126 z "},"x":{"ha":393,"x_min":5,"x_max":441,"o":"m 47 126 l 42 131 l 120 195 q 200 255 175 241 q 249 269 225 269 q 280 256 266 269 q 294 219 294 242 q 290 180 294 205 q 411 267 368 267 q 441 240 441 267 q 429 212 441 224 q 404 199 417 199 q 387 218 387 199 q 395 236 387 228 q 414 243 403 243 q 422 242 418 243 q 427 240 426 240 q 432 245 432 240 q 412 260 432 260 q 285 155 373 260 q 197 23 197 51 q 207 3 197 12 q 229 -6 217 -6 q 389 92 274 -6 l 435 131 l 439 126 q 287 8 328 29 q 225 -13 247 -13 q 194 -2 209 -13 q 179 33 179 9 q 187 76 179 51 q 91 0 116 14 q 44 -14 65 -14 q 16 -4 26 -14 q 5 18 5 5 q 20 52 5 37 q 52 66 36 66 q 65 61 59 66 q 71 50 71 56 q 61 31 71 39 q 39 22 51 22 q 29 26 34 22 q 23 31 24 31 q 17 26 21 31 q 14 16 14 22 q 23 1 14 7 q 43 -6 32 -6 q 182 96 90 -6 q 275 235 275 197 q 249 261 275 261 q 198 244 226 261 q 109 177 171 228 l 47 126 z "},"y":{"ha":511,"x_min":-163,"x_max":558,"o":"m 46 126 l 41 131 l 105 184 q 183 238 138 212 q 254 264 228 264 q 279 254 269 264 q 288 229 288 243 q 268 175 288 201 q 153 66 248 149 q 117 18 117 34 q 137 0 117 0 q 215 32 165 0 q 391 176 264 63 l 456 235 q 481 264 463 241 l 547 264 l 259 -39 q 553 131 401 -3 l 558 126 q 245 -51 389 -19 l 173 -126 q 25 -256 111 -191 q -122 -320 -60 -320 q -163 -292 -163 -320 q -73 -187 -163 -251 q 176 -73 18 -123 l 452 215 l 448 218 q 397 172 429 202 l 334 115 q 257 54 311 94 q 177 3 203 14 q 132 -8 151 -8 q 107 1 119 -8 q 94 28 94 9 q 163 140 94 82 q 249 217 233 199 q 265 245 265 235 q 249 257 265 257 q 191 235 231 257 q 96 168 151 212 l 46 126 m 163 -90 q -53 -184 48 -116 q -155 -292 -155 -252 q -122 -313 -155 -313 q -33 -283 -77 -313 q 105 -153 11 -254 l 163 -90 z "},"z":{"ha":414,"x_min":41,"x_max":460,"o":"m 46 126 l 41 131 l 133 207 q 229 263 201 263 q 254 253 243 263 q 264 228 264 242 q 242 192 264 207 q 221 171 221 178 q 233 161 221 161 q 276 174 248 161 q 319 200 304 186 q 398 258 386 258 q 407 252 407 258 q 381 225 407 246 q 294 175 355 205 q 193 81 251 140 q 280 116 260 116 q 305 105 296 116 q 314 80 314 94 q 284 33 314 52 q 255 7 255 15 q 260 -2 255 2 q 271 -5 265 -5 q 393 77 296 -5 l 455 131 l 460 126 l 374 52 q 267 -13 298 -13 q 242 -2 253 -13 q 232 26 232 9 q 272 79 232 54 q 290 98 290 90 q 277 108 290 108 q 225 90 259 108 q 175 64 192 72 q 161 53 174 64 l 133 29 q 71 -13 83 -13 q 62 -5 62 -13 q 93 25 62 1 q 170 69 124 50 l 262 157 l 260 160 q 232 155 241 155 q 208 163 218 155 q 198 183 198 172 q 224 225 198 206 q 242 246 242 239 q 231 256 242 256 q 191 241 217 256 q 46 126 165 227 z "},"{":{"ha":507,"x_min":269,"x_max":1076,"o":"m 512 474 q 525 471 514 474 q 535 467 531 469 q 542 463 539 465 q 547 458 545 461 q 552 452 550 456 q 555 446 554 449 q 557 438 557 441 q 558 430 558 434 q 549 392 558 412 q 498 316 539 373 l 385 159 q 332 56 332 87 q 343 27 332 39 q 370 12 355 15 q 432 8 385 8 l 426 0 q 292 11 315 1 q 269 45 269 21 q 332 168 269 82 l 477 370 q 506 430 506 409 q 495 456 506 446 q 438 470 484 467 l 441 478 q 538 497 493 478 q 627 578 583 517 l 758 758 q 857 868 810 831 q 945 915 904 905 q 1076 926 986 924 l 1072 918 q 980 908 1015 918 q 909 866 945 897 q 823 766 872 834 l 694 589 q 668 558 680 572 q 646 536 656 546 l 620 516 q 594 500 607 507 q 567 488 582 494 q 541 479 553 482 q 512 474 519 474 z "},"|":{"ha":694,"x_min":333,"x_max":361,"o":"m 333 926 l 361 926 l 361 -231 l 333 -231 l 333 926 z "},"}":{"ha":507,"x_min":83,"x_max":897,"o":"m 667 474 q 656 476 665 474 q 647 479 652 477 l 640 484 q 633 488 635 486 q 628 494 630 491 q 624 501 625 498 q 622 509 623 505 q 621 517 621 513 q 633 556 621 534 q 684 632 644 578 l 783 766 q 815 818 798 787 q 833 863 833 849 q 823 898 833 885 q 796 914 812 910 q 736 918 781 918 l 743 926 q 874 916 851 925 q 897 880 897 906 q 836 758 897 842 l 703 578 q 674 518 674 538 q 743 479 674 479 l 737 469 q 637 449 678 467 q 551 370 595 431 l 402 168 q 329 81 361 113 q 263 31 297 49 q 199 7 229 12 q 83 0 169 2 l 89 8 q 172 16 142 8 q 227 40 201 23 q 274 79 254 57 q 337 159 295 101 l 452 316 q 490 366 470 341 q 511 391 501 381 q 536 414 522 402 q 559 432 548 424 q 585 447 572 440 q 611 459 598 454 q 639 468 625 465 q 667 474 661 474 z "},"~":{"ha":926,"x_min":133,"x_max":793,"o":"m 157 142 l 133 157 q 304 286 204 286 q 447 239 361 286 q 561 181 532 192 q 619 170 590 170 q 699 198 664 170 q 770 288 734 227 l 793 274 q 708 171 749 197 q 621 144 667 144 q 479 192 564 144 q 365 249 393 239 q 304 260 336 260 q 227 232 261 260 q 157 142 192 204 z "},"":{"ha":1082,"x_min":30,"x_max":1771,"o":"m 926 54 l 888 0 l 814 1 l 857 62 q 634 154 732 84 q 242 -13 428 -13 q 96 30 162 -13 q 30 137 30 73 q 50 192 30 172 q 94 212 70 212 q 132 197 117 212 q 148 161 148 182 q 135 130 148 142 q 102 117 121 117 q 57 172 60 117 l 54 173 q 38 130 38 153 q 102 34 38 75 q 251 -7 167 -7 q 462 49 351 -7 q 629 159 572 104 q 477 465 477 302 q 531 635 477 566 q 663 705 584 705 q 827 632 753 705 q 940 442 901 560 q 1342 784 1221 703 q 1560 906 1463 865 q 1744 949 1657 946 l 1553 777 q 1211 412 1417 653 q 932 62 1006 171 q 1124 131 1047 68 l 1128 126 q 926 54 1052 63 m 941 433 q 951 353 951 395 q 891 115 951 252 l 897 113 q 1326 610 1076 360 q 1713 935 1575 861 l 1712 940 q 1402 817 1580 928 q 941 433 1225 707 m 634 163 q 791 299 688 204 q 935 437 894 393 q 838 605 907 534 q 687 675 769 675 q 544 612 602 675 q 487 454 487 549 q 634 163 487 296 m 862 68 q 945 353 945 227 q 937 430 945 389 q 640 158 767 262 q 741 102 675 129 q 862 68 806 75 m 1668 1070 q 1656 1045 1668 1056 q 1630 1035 1644 1035 q 1614 1042 1621 1035 q 1607 1059 1607 1049 q 1619 1084 1607 1072 q 1644 1095 1630 1095 q 1661 1088 1654 1095 q 1668 1070 1668 1080 m 1771 1070 q 1759 1045 1771 1056 q 1733 1035 1747 1035 q 1717 1042 1724 1035 q 1710 1059 1710 1049 q 1722 1084 1710 1072 q 1748 1095 1733 1095 q 1765 1088 1758 1095 q 1771 1070 1771 1080 z "},"":{"ha":1082,"x_min":30,"x_max":1746,"o":"m 1698 1018 q 1665 1032 1679 1018 q 1651 1065 1651 1046 q 1665 1099 1651 1085 q 1698 1113 1679 1113 q 1732 1099 1718 1113 q 1746 1065 1746 1085 q 1732 1032 1746 1046 q 1698 1018 1718 1018 m 1698 1107 q 1670 1095 1682 1107 q 1657 1065 1657 1082 q 1670 1036 1657 1048 q 1698 1024 1682 1024 q 1727 1036 1715 1024 q 1740 1065 1740 1048 q 1727 1095 1740 1082 q 1698 1107 1715 1107 m 926 54 l 888 0 l 814 1 l 857 62 q 634 154 732 84 q 242 -13 428 -13 q 96 30 162 -13 q 30 137 30 73 q 50 192 30 172 q 94 212 70 212 q 132 197 117 212 q 148 161 148 182 q 135 130 148 142 q 102 117 121 117 q 57 172 60 117 l 54 173 q 38 130 38 153 q 102 34 38 75 q 251 -7 167 -7 q 462 49 351 -7 q 629 159 572 104 q 477 465 477 302 q 531 635 477 566 q 663 705 584 705 q 827 632 753 705 q 940 442 901 560 q 1342 784 1221 703 q 1560 906 1463 865 q 1744 949 1657 946 l 1553 777 q 1211 412 1417 653 q 932 62 1006 171 q 1124 131 1047 68 l 1128 126 q 926 54 1052 63 m 941 433 q 951 353 951 395 q 891 115 951 252 l 897 113 q 1326 610 1076 360 q 1713 935 1575 861 l 1712 940 q 1402 817 1580 928 q 941 433 1225 707 m 634 163 q 791 299 688 204 q 935 437 894 393 q 838 605 907 534 q 687 675 769 675 q 544 612 602 675 q 487 454 487 549 q 634 163 487 296 m 862 68 q 945 353 945 227 q 937 430 945 389 q 640 158 767 262 q 741 102 675 129 q 862 68 806 75 z "},"":{"ha":1080,"x_min":377,"x_max":1540,"o":"m 578 11 l 523 -42 q 549 -35 541 -35 q 579 -46 566 -35 q 592 -73 592 -58 q 536 -139 592 -111 q 378 -175 481 -168 l 377 -172 q 507 -116 452 -155 q 562 -55 562 -77 q 546 -41 562 -41 q 529 -45 536 -41 q 499 -65 522 -48 q 465 -90 476 -83 l 462 -86 l 571 14 q 505 133 505 50 q 519 218 505 175 q 591 338 534 262 q 692 452 648 414 q 646 450 661 450 q 457 504 523 450 q 391 632 391 558 q 526 851 391 761 q 890 941 661 941 q 976 937 929 941 l 975 931 q 900 934 933 934 q 529 825 654 934 q 404 616 404 716 q 465 508 404 559 q 646 456 526 456 q 696 458 662 456 q 1085 758 861 629 q 1458 888 1308 888 q 1517 870 1495 888 q 1540 827 1540 852 q 1435 684 1540 762 q 1141 538 1331 605 q 778 458 951 472 l 681 359 q 526 104 526 201 q 564 30 526 62 q 675 -2 601 -2 q 881 45 773 -2 q 1046 152 989 93 q 1103 263 1103 211 q 1075 316 1103 296 q 1010 336 1046 336 q 795 263 919 336 q 600 82 671 190 l 595 85 q 790 266 664 190 q 1011 341 916 341 q 1082 319 1055 341 q 1110 264 1110 297 q 959 77 1110 163 q 683 -9 807 -9 q 578 11 622 -9 m 786 465 q 1154 549 966 480 q 1436 698 1343 618 q 1529 829 1529 777 q 1508 865 1529 850 q 1456 880 1488 880 q 1196 796 1335 880 q 894 563 1057 712 l 786 465 z "},"":{"ha":967,"x_min":353,"x_max":1398,"o":"m 832 593 q 851 540 833 557 l 868 541 q 947 529 920 541 q 973 504 973 518 q 964 489 973 495 q 944 483 955 483 q 848 533 893 483 q 516 360 646 505 q 387 112 387 215 q 431 30 387 64 q 551 -5 474 -5 q 843 84 695 -5 q 991 278 991 173 q 967 336 991 313 q 901 359 943 359 q 668 278 795 359 q 469 91 541 198 l 465 94 q 664 282 537 200 q 898 363 791 363 q 974 337 946 363 q 1001 277 1001 311 q 848 79 1001 169 q 554 -10 695 -10 q 402 44 452 -10 q 353 166 353 98 q 466 390 353 287 q 844 539 579 492 q 814 589 825 559 q 632 566 703 566 q 461 615 522 566 q 401 725 401 664 q 542 924 401 846 q 865 1001 682 1001 l 865 996 q 543 907 669 996 q 418 714 418 819 q 475 616 418 659 q 641 572 532 572 q 814 595 710 572 q 806 640 806 619 q 868 784 806 712 q 1057 918 930 855 q 1267 981 1184 981 q 1334 963 1308 981 q 1360 913 1360 945 q 1217 745 1360 840 q 832 593 1074 649 m 833 599 q 1217 751 1080 659 q 1353 917 1353 843 q 1330 959 1353 943 q 1269 975 1307 975 q 1003 845 1156 975 q 833 599 850 715 m 856 534 q 944 488 899 488 q 966 503 966 488 q 936 527 966 519 q 880 535 907 535 q 856 534 872 535 m 1237 1025 q 1272 1042 1240 1025 q 1295 1056 1285 1049 q 1318 1075 1307 1064 q 1341 1098 1332 1087 l 1357 1117 q 1366 1125 1362 1123 q 1371 1128 1369 1127 q 1377 1128 1374 1128 q 1398 1109 1398 1128 q 1396 1100 1398 1105 q 1392 1090 1395 1095 q 1384 1082 1389 1086 q 1367 1069 1377 1076 q 1336 1053 1352 1060 q 1306 1040 1321 1045 q 1277 1031 1291 1034 q 1237 1025 1246 1025 z "},"":{"ha":1095,"x_min":30,"x_max":2042,"o":"m 867 -1 q 918 86 897 39 q 964 268 939 133 q 1011 474 989 402 q 1082 649 1033 545 q 1162 800 1131 753 l 1158 802 l 986 584 q 556 139 751 287 q 197 -9 360 -9 q 76 24 122 -9 q 30 107 30 56 q 52 166 30 141 q 103 192 75 192 q 133 180 120 192 q 145 153 145 169 q 135 127 145 137 q 108 117 124 117 q 71 146 81 117 q 64 146 67 146 q 43 109 43 146 q 86 30 43 61 q 199 -1 130 -1 q 508 112 339 -1 q 893 484 677 224 q 1190 856 1109 745 q 1223 897 1210 884 l 1229 894 q 1093 545 1145 802 l 1076 466 q 909 55 1037 288 l 913 54 l 1099 295 q 1529 760 1340 607 q 1889 913 1718 913 q 1998 885 1954 913 q 2042 817 2042 857 q 2029 781 2042 796 q 1998 766 2016 766 q 1976 775 1985 766 q 1966 797 1966 785 q 1977 821 1966 811 q 2000 831 1988 831 q 2012 827 2006 831 q 2021 824 2019 824 q 2029 836 2029 824 q 1986 883 2029 859 q 1887 907 1942 907 q 1527 752 1715 907 q 1056 229 1339 598 l 876 -8 l 867 -1 m 1683 1087 q 1668 1074 1683 1087 q 1657 1065 1662 1069 q 1647 1058 1651 1061 q 1638 1053 1643 1055 q 1628 1050 1633 1051 q 1618 1047 1624 1048 q 1606 1045 1612 1046 q 1595 1044 1600 1044 q 1554 1052 1577 1044 q 1522 1059 1530 1059 q 1486 1042 1509 1059 q 1519 1076 1495 1063 q 1561 1089 1542 1089 q 1603 1082 1575 1089 q 1642 1075 1630 1075 l 1646 1075 q 1651 1076 1648 1076 l 1655 1077 q 1660 1078 1657 1077 q 1666 1080 1663 1079 q 1671 1082 1668 1080 l 1683 1087 z "},"":{"ha":977,"x_min":287,"x_max":1434,"o":"m 1147 819 q 1037 562 1134 669 q 847 455 939 455 q 791 478 810 455 q 772 537 772 501 q 827 694 772 611 q 966 827 883 777 q 1110 876 1050 876 q 1184 847 1151 876 q 1217 768 1217 819 q 1088 457 1217 629 q 763 137 960 284 q 450 -11 566 -11 q 328 43 369 -11 q 287 168 287 97 q 444 504 287 320 q 825 818 600 688 q 1238 947 1050 947 q 1380 911 1326 947 q 1434 816 1434 876 q 1384 723 1434 760 q 1274 685 1335 685 q 1250 686 1265 685 l 1249 691 l 1269 691 q 1379 726 1331 691 q 1427 816 1427 760 q 1374 909 1427 875 q 1241 943 1321 943 q 845 802 1048 943 q 478 443 641 662 q 315 112 315 223 q 356 28 315 61 q 446 -4 396 -4 q 753 134 566 -4 q 1075 448 939 273 q 1211 764 1211 624 q 1181 841 1211 813 q 1111 868 1150 868 q 898 748 1017 868 q 779 533 779 629 q 799 479 779 498 q 846 460 819 460 q 979 515 907 460 q 1095 658 1050 569 q 1143 819 1140 747 l 1147 819 m 1272 1070 q 1260 1045 1272 1056 q 1235 1035 1249 1035 q 1219 1042 1225 1035 q 1212 1059 1212 1049 q 1223 1084 1212 1072 q 1249 1095 1235 1095 q 1265 1088 1259 1095 q 1272 1070 1272 1080 m 1376 1070 q 1364 1045 1376 1056 q 1338 1035 1352 1035 q 1322 1042 1329 1035 q 1315 1059 1315 1049 q 1326 1084 1315 1072 q 1352 1095 1338 1095 q 1369 1088 1362 1095 q 1376 1070 1376 1080 z "},"":{"ha":1063,"x_min":386,"x_max":1586,"o":"m 1105 131 l 1109 126 q 876 -5 952 -5 q 838 9 852 -5 q 824 44 824 23 q 852 130 824 77 q 1058 352 880 183 l 1053 357 l 884 209 q 498 -6 640 -6 q 444 16 463 -6 q 426 64 426 38 q 484 194 426 116 q 730 431 543 272 q 985 675 917 589 q 1053 810 1053 760 q 999 897 1053 865 q 869 929 945 929 q 547 833 697 929 q 396 653 396 737 q 432 586 396 612 q 512 561 469 561 q 608 576 550 561 q 741 629 666 591 q 860 704 816 667 q 965 812 903 741 l 968 810 q 534 551 783 551 q 428 578 469 551 q 386 647 386 605 q 474 792 386 717 q 670 902 563 867 q 871 937 778 937 q 1011 900 957 937 q 1066 795 1066 863 q 1044 697 1066 745 q 977 589 1022 650 q 766 385 931 528 l 672 302 q 509 147 571 213 q 447 44 447 81 q 464 13 447 24 q 500 1 481 1 q 559 9 531 1 q 627 35 587 16 q 720 89 666 54 q 847 188 774 125 l 1142 444 q 1270 566 1192 488 l 1520 819 l 1586 821 l 920 151 q 839 32 839 70 q 850 11 839 19 q 876 3 861 3 q 1105 131 954 3 m 1417 1070 q 1406 1045 1417 1056 q 1380 1035 1394 1035 q 1364 1042 1371 1035 q 1357 1059 1357 1049 q 1369 1084 1357 1072 q 1394 1095 1380 1095 q 1411 1088 1404 1095 q 1417 1070 1417 1080 m 1521 1070 q 1509 1045 1521 1056 q 1483 1035 1497 1035 q 1467 1042 1474 1035 q 1460 1059 1460 1049 q 1472 1084 1460 1072 q 1497 1095 1483 1095 q 1514 1088 1508 1095 q 1521 1070 1521 1080 z "},"":{"ha":404,"x_min":9,"x_max":509,"o":"m 389 264 l 450 264 l 259 65 q 231 18 231 36 q 239 1 231 7 q 255 -5 247 -5 q 307 19 271 -5 q 446 131 343 43 l 450 126 q 306 12 341 34 q 252 -10 270 -10 q 226 2 235 -10 q 217 30 217 14 q 245 101 217 58 l 242 103 q 54 -10 104 -10 q 21 7 33 -10 q 9 52 9 24 q 118 196 9 130 q 302 263 227 263 q 340 231 340 263 q 339 212 340 223 l 389 264 m 332 232 q 300 256 332 256 q 135 158 244 256 q 26 20 26 60 q 34 4 26 12 q 55 -4 41 -4 q 120 21 75 -4 q 231 102 165 46 q 314 184 296 159 q 332 232 332 210 m 348 310 q 382 326 351 310 q 406 340 396 334 q 429 359 418 349 q 452 382 443 372 l 468 401 q 477 410 473 408 q 482 412 479 412 q 488 413 485 413 q 509 393 509 413 q 507 385 509 389 q 503 375 506 379 q 495 366 500 371 q 477 353 488 360 q 447 337 463 345 q 417 324 432 330 q 388 316 401 319 q 348 310 357 310 z "},"":{"ha":404,"x_min":9,"x_max":453,"o":"m 389 264 l 450 264 l 259 65 q 231 18 231 36 q 239 1 231 7 q 255 -5 247 -5 q 307 19 271 -5 q 446 131 343 43 l 450 126 q 306 12 341 34 q 252 -10 270 -10 q 226 2 235 -10 q 217 30 217 14 q 245 101 217 58 l 242 103 q 54 -10 104 -10 q 21 7 33 -10 q 9 52 9 24 q 118 196 9 130 q 302 263 227 263 q 340 231 340 263 q 339 212 340 223 l 389 264 m 332 232 q 300 256 332 256 q 135 158 244 256 q 26 20 26 60 q 34 4 26 12 q 55 -4 41 -4 q 120 21 75 -4 q 231 102 165 46 q 314 184 296 159 q 332 232 332 210 m 453 310 q 416 315 444 310 q 385 323 400 319 q 355 336 370 329 q 326 352 339 344 q 307 366 315 359 q 298 375 301 370 q 294 384 296 379 q 292 393 292 389 q 312 412 292 412 q 319 412 315 412 q 324 409 321 411 q 333 401 328 407 l 348 382 q 372 359 359 371 q 393 341 382 349 q 417 327 403 334 q 453 310 450 310 z "},"":{"ha":404,"x_min":9,"x_max":481,"o":"m 389 264 l 450 264 l 259 65 q 231 18 231 36 q 239 1 231 7 q 255 -5 247 -5 q 307 19 271 -5 q 446 131 343 43 l 450 126 q 306 12 341 34 q 252 -10 270 -10 q 226 2 235 -10 q 217 30 217 14 q 245 101 217 58 l 242 103 q 54 -10 104 -10 q 21 7 33 -10 q 9 52 9 24 q 118 196 9 130 q 302 263 227 263 q 340 231 340 263 q 339 212 340 223 l 389 264 m 332 232 q 300 256 332 256 q 135 158 244 256 q 26 20 26 60 q 34 4 26 12 q 55 -4 41 -4 q 120 21 75 -4 q 231 102 165 46 q 314 184 296 159 q 332 232 332 210 m 411 408 l 481 408 q 440 363 447 374 q 434 342 434 353 q 446 321 434 332 l 440 315 q 404 355 408 328 q 287 315 344 319 l 283 321 q 411 408 360 355 z "},"":{"ha":404,"x_min":9,"x_max":464,"o":"m 389 264 l 450 264 l 259 65 q 231 18 231 36 q 239 1 231 7 q 255 -5 247 -5 q 307 19 271 -5 q 446 131 343 43 l 450 126 q 306 12 341 34 q 252 -10 270 -10 q 226 2 235 -10 q 217 30 217 14 q 245 101 217 58 l 242 103 q 54 -10 104 -10 q 21 7 33 -10 q 9 52 9 24 q 118 196 9 130 q 302 263 227 263 q 340 231 340 263 q 339 212 340 223 l 389 264 m 332 232 q 300 256 332 256 q 135 158 244 256 q 26 20 26 60 q 34 4 26 12 q 55 -4 41 -4 q 120 21 75 -4 q 231 102 165 46 q 314 184 296 159 q 332 232 332 210 m 360 370 q 348 345 360 355 q 323 334 336 334 q 307 341 313 334 q 300 359 300 349 q 311 383 300 372 q 336 395 323 395 q 353 387 347 395 q 360 370 360 380 m 464 370 q 452 345 464 355 q 426 334 439 334 q 410 341 416 334 q 403 359 403 349 q 414 383 403 372 q 440 395 426 395 q 457 387 450 395 q 464 370 464 380 z "},"":{"ha":404,"x_min":9,"x_max":509,"o":"m 389 264 l 450 264 l 259 65 q 231 18 231 36 q 239 1 231 7 q 255 -5 247 -5 q 307 19 271 -5 q 446 131 343 43 l 450 126 q 306 12 341 34 q 252 -10 270 -10 q 226 2 235 -10 q 217 30 217 14 q 245 101 217 58 l 242 103 q 54 -10 104 -10 q 21 7 33 -10 q 9 52 9 24 q 118 196 9 130 q 302 263 227 263 q 340 231 340 263 q 339 212 340 223 l 389 264 m 332 232 q 300 256 332 256 q 135 158 244 256 q 26 20 26 60 q 34 4 26 12 q 55 -4 41 -4 q 120 21 75 -4 q 231 102 165 46 q 314 184 296 159 q 332 232 332 210 m 508 391 q 494 378 509 391 q 482 369 488 373 q 472 362 477 365 q 463 357 468 359 q 454 354 458 355 q 444 351 449 352 q 431 349 437 350 q 420 349 426 349 q 379 356 403 349 q 347 363 355 363 q 311 347 334 363 q 344 380 321 367 q 387 393 368 393 q 428 386 401 393 q 467 379 455 379 l 471 379 q 476 380 473 380 l 481 381 q 486 382 483 381 q 491 384 488 383 q 496 386 494 385 l 508 391 z "},"":{"ha":404,"x_min":9,"x_max":450,"o":"m 389 264 l 450 264 l 259 65 q 231 18 231 36 q 239 1 231 7 q 255 -5 247 -5 q 307 19 271 -5 q 446 131 343 43 l 450 126 q 306 12 341 34 q 252 -10 270 -10 q 226 2 235 -10 q 217 30 217 14 q 245 101 217 58 l 242 103 q 54 -10 104 -10 q 21 7 33 -10 q 9 52 9 24 q 118 196 9 130 q 302 263 227 263 q 340 231 340 263 q 339 212 340 223 l 389 264 m 332 232 q 300 256 332 256 q 135 158 244 256 q 26 20 26 60 q 34 4 26 12 q 55 -4 41 -4 q 120 21 75 -4 q 231 102 165 46 q 314 184 296 159 q 332 232 332 210 m 401 322 q 367 336 381 322 q 353 370 353 350 q 367 403 353 389 q 401 417 381 417 q 434 403 420 417 q 448 370 448 389 q 434 336 448 350 q 401 322 420 322 m 401 411 q 372 399 384 411 q 359 370 359 387 q 372 340 359 353 q 401 328 384 328 q 430 340 418 328 q 442 370 442 353 q 430 399 442 387 q 401 411 418 411 z "},"":{"ha":259,"x_min":-117,"x_max":306,"o":"m 63 -10 l 17 -55 q 54 -49 41 -49 q 79 -58 69 -49 q 90 -82 90 -68 q 17 -161 90 -132 q -117 -189 -56 -189 l -117 -185 q 10 -132 -40 -174 q 60 -69 60 -90 q 47 -57 60 -57 q 11 -68 35 -57 q -37 -102 -14 -79 l -41 -96 l 53 -10 q 9 50 9 -1 q 109 199 9 132 q 258 266 209 266 q 287 256 275 266 q 298 232 298 246 q 280 193 298 212 q 247 175 262 175 q 231 182 238 175 q 223 198 223 190 q 233 219 223 210 q 254 228 242 228 q 269 219 265 228 q 277 210 273 210 q 287 218 283 210 q 291 233 291 227 q 281 252 291 244 q 262 259 271 259 q 124 155 221 259 q 27 22 27 50 q 37 3 27 10 q 61 -3 47 -3 q 174 39 104 -3 q 301 131 244 81 l 306 126 q 63 -10 153 -4 z "},"":{"ha":274,"x_min":9,"x_max":446,"o":"m 316 131 l 321 126 q 172 22 239 54 q 65 -10 105 -10 q 9 47 9 -10 q 114 191 9 123 q 278 259 219 259 q 297 253 289 259 q 304 238 304 247 q 239 168 304 205 q 93 123 173 132 q 24 28 24 54 q 36 5 24 16 q 64 -5 48 -5 q 164 25 100 -5 q 316 131 229 56 m 103 131 q 175 149 123 131 q 261 194 227 166 q 295 240 295 222 q 280 253 295 253 q 241 242 262 253 q 176 198 220 231 q 103 131 133 164 m 285 310 q 319 326 288 310 q 343 340 333 334 q 366 359 355 349 q 389 382 380 372 l 405 401 q 414 410 410 408 q 419 412 416 412 q 425 413 422 413 q 446 393 446 413 q 444 385 446 389 q 440 375 443 379 q 432 366 437 371 q 414 353 425 360 q 384 337 400 345 q 354 324 369 330 q 325 316 338 319 q 285 310 294 310 z "},"":{"ha":274,"x_min":9,"x_max":399,"o":"m 316 131 l 321 126 q 172 22 239 54 q 65 -10 105 -10 q 9 47 9 -10 q 114 191 9 123 q 278 259 219 259 q 297 253 289 259 q 304 238 304 247 q 239 168 304 205 q 93 123 173 132 q 24 28 24 54 q 36 5 24 16 q 64 -5 48 -5 q 164 25 100 -5 q 316 131 229 56 m 103 131 q 175 149 123 131 q 261 194 227 166 q 295 240 295 222 q 280 253 295 253 q 241 242 262 253 q 176 198 220 231 q 103 131 133 164 m 399 310 q 362 315 389 310 q 331 323 346 319 q 300 336 316 329 q 271 352 285 344 q 253 366 260 359 q 244 375 247 370 q 239 384 241 379 q 238 393 238 389 q 258 412 238 412 q 264 412 261 412 q 270 409 267 411 q 279 401 273 407 l 294 382 q 317 359 304 371 q 339 341 328 349 q 363 327 349 334 q 399 310 396 310 z "},"":{"ha":274,"x_min":9,"x_max":418,"o":"m 316 131 l 321 126 q 172 22 239 54 q 65 -10 105 -10 q 9 47 9 -10 q 114 191 9 123 q 278 259 219 259 q 297 253 289 259 q 304 238 304 247 q 239 168 304 205 q 93 123 173 132 q 24 28 24 54 q 36 5 24 16 q 64 -5 48 -5 q 164 25 100 -5 q 316 131 229 56 m 103 131 q 175 149 123 131 q 261 194 227 166 q 295 240 295 222 q 280 253 295 253 q 241 242 262 253 q 176 198 220 231 q 103 131 133 164 m 348 408 l 418 408 q 377 363 384 374 q 371 342 371 353 q 382 321 371 332 l 377 315 q 340 355 345 328 q 224 315 281 319 l 220 321 q 348 408 297 355 z "},"":{"ha":274,"x_min":9,"x_max":447,"o":"m 316 131 l 321 126 q 172 22 239 54 q 65 -10 105 -10 q 9 47 9 -10 q 114 191 9 123 q 278 259 219 259 q 297 253 289 259 q 304 238 304 247 q 239 168 304 205 q 93 123 173 132 q 24 28 24 54 q 36 5 24 16 q 64 -5 48 -5 q 164 25 100 -5 q 316 131 229 56 m 103 131 q 175 149 123 131 q 261 194 227 166 q 295 240 295 222 q 280 253 295 253 q 241 242 262 253 q 176 198 220 231 q 103 131 133 164 m 343 370 q 331 345 343 355 q 306 334 319 334 q 290 341 296 334 q 283 359 283 349 q 294 383 283 372 q 319 395 306 395 q 336 387 330 395 q 343 370 343 380 m 447 370 q 435 345 447 355 q 409 334 422 334 q 393 341 399 334 q 386 359 386 349 q 397 383 386 372 q 423 395 409 395 q 440 387 433 395 q 447 370 447 380 z "},"":{"ha":226,"x_min":30,"x_max":425,"o":"m 46 126 l 41 131 q 209 264 75 159 l 275 264 l 60 52 q 43 28 47 40 l 43 23 q 50 7 43 14 q 67 1 57 1 q 129 23 89 1 q 267 131 168 45 l 272 126 q 68 -6 121 -6 q 40 5 51 -6 q 30 34 30 16 q 47 89 30 60 q 177 226 64 117 l 176 229 l 113 182 l 46 126 m 264 310 q 298 326 267 310 q 322 340 312 334 q 345 359 334 349 q 368 382 359 372 l 384 401 q 393 410 389 408 q 398 412 395 412 q 404 413 401 413 q 425 393 425 413 q 423 385 425 389 q 419 375 422 379 q 411 366 416 371 q 393 353 404 360 q 363 337 379 345 q 333 324 348 330 q 304 316 317 319 q 264 310 273 310 z "},"":{"ha":226,"x_min":30,"x_max":397,"o":"m 46 126 l 41 131 q 209 264 75 159 l 275 264 l 60 52 q 43 28 47 40 l 43 23 q 50 7 43 14 q 67 1 57 1 q 129 23 89 1 q 267 131 168 45 l 272 126 q 68 -6 121 -6 q 40 5 51 -6 q 30 34 30 16 q 47 89 30 60 q 177 226 64 117 l 176 229 l 113 182 l 46 126 m 397 310 q 360 315 387 310 q 329 323 344 319 q 298 336 314 329 q 269 352 283 344 q 251 366 258 359 q 242 375 245 370 q 237 384 239 379 q 236 393 236 389 q 256 412 236 412 q 262 412 259 412 q 268 409 265 411 q 277 401 271 407 l 292 382 q 315 359 302 371 q 337 341 326 349 q 361 327 347 334 q 397 310 394 310 z "},"":{"ha":226,"x_min":30,"x_max":397,"o":"m 46 126 l 41 131 q 209 264 75 159 l 275 264 l 60 52 q 43 28 47 40 l 43 23 q 50 7 43 14 q 67 1 57 1 q 129 23 89 1 q 267 131 168 45 l 272 126 q 68 -6 121 -6 q 40 5 51 -6 q 30 34 30 16 q 47 89 30 60 q 177 226 64 117 l 176 229 l 113 182 l 46 126 m 327 408 l 397 408 q 356 363 363 374 q 350 342 350 353 q 361 321 350 332 l 356 315 q 319 355 324 328 q 203 315 260 319 l 199 321 q 327 408 276 355 z "},"":{"ha":226,"x_min":30,"x_max":440,"o":"m 46 126 l 41 131 q 209 264 75 159 l 275 264 l 60 52 q 43 28 47 40 l 43 23 q 50 7 43 14 q 67 1 57 1 q 129 23 89 1 q 267 131 168 45 l 272 126 q 68 -6 121 -6 q 40 5 51 -6 q 30 34 30 16 q 47 89 30 60 q 177 226 64 117 l 176 229 l 113 182 l 46 126 m 336 370 q 325 345 336 355 q 299 334 313 334 q 283 341 290 334 q 276 359 276 349 q 288 383 276 372 q 313 395 299 395 q 330 387 323 395 q 336 370 336 380 m 440 370 q 428 345 440 355 q 402 334 416 334 q 386 341 393 334 q 379 359 379 349 q 391 383 379 372 q 416 395 402 395 q 433 387 427 395 q 440 370 440 380 z "},"":{"ha":532,"x_min":41,"x_max":578,"o":"m 41 131 q 259 264 201 264 q 282 255 273 264 q 292 231 292 246 q 235 125 292 186 l 237 123 q 458 262 397 262 q 504 223 504 262 q 485 169 504 197 q 417 99 467 141 q 356 44 368 57 q 344 21 344 31 q 350 8 344 14 q 365 3 357 3 q 430 25 386 3 q 529 94 474 47 l 573 131 l 578 126 q 363 -4 432 -4 q 337 8 348 -4 q 326 37 326 20 q 335 72 326 54 q 354 102 343 90 q 404 148 364 114 l 435 174 q 488 237 488 219 q 461 255 488 255 q 321 184 411 255 q 113 0 232 113 l 46 0 l 233 186 q 277 243 277 230 q 258 259 277 259 q 46 126 205 259 l 41 131 m 549 391 q 535 378 550 391 q 524 369 529 373 q 513 362 518 365 q 505 357 509 359 q 495 354 500 355 q 485 351 490 352 q 473 349 479 350 q 462 349 467 349 q 420 356 444 349 q 389 363 397 363 q 353 347 376 363 q 386 380 362 367 q 428 393 409 393 q 469 386 442 393 q 509 379 496 379 l 513 379 q 517 380 515 380 l 522 381 q 527 382 524 381 q 532 384 530 383 q 538 386 535 385 l 549 391 z "},"":{"ha":300,"x_min":9,"x_max":456,"o":"m 342 131 l 347 126 q 295 102 321 102 q 258 118 273 102 q 151 29 208 65 q 56 -7 94 -7 q 23 7 37 -7 q 9 47 9 22 q 61 158 9 104 q 179 240 113 211 q 286 270 246 270 q 324 233 324 270 q 263 124 324 195 q 296 109 275 109 q 342 131 319 109 m 318 235 q 308 256 318 248 q 286 264 298 264 q 131 161 235 264 q 26 25 26 58 q 36 8 26 16 q 58 0 45 0 q 139 30 86 0 q 233 101 193 59 q 296 177 273 144 q 318 235 318 211 m 296 310 q 330 326 299 310 q 354 340 344 334 q 377 359 366 349 q 400 382 391 372 l 416 401 q 425 410 421 408 q 430 412 427 412 q 436 413 433 413 q 456 393 456 413 q 455 385 456 389 q 451 375 454 379 q 443 366 448 371 q 425 353 436 360 q 395 337 411 345 q 365 324 380 330 q 336 316 349 319 q 296 310 304 310 z "},"":{"ha":300,"x_min":9,"x_max":401,"o":"m 342 131 l 347 126 q 295 102 321 102 q 258 118 273 102 q 151 29 208 65 q 56 -7 94 -7 q 23 7 37 -7 q 9 47 9 22 q 61 158 9 104 q 179 240 113 211 q 286 270 246 270 q 324 233 324 270 q 263 124 324 195 q 296 109 275 109 q 342 131 319 109 m 318 235 q 308 256 318 248 q 286 264 298 264 q 131 161 235 264 q 26 25 26 58 q 36 8 26 16 q 58 0 45 0 q 139 30 86 0 q 233 101 193 59 q 296 177 273 144 q 318 235 318 211 m 401 310 q 364 315 391 310 q 333 323 348 319 q 302 336 318 329 q 273 352 287 344 q 255 366 262 359 q 246 375 249 370 q 241 384 243 379 q 240 393 240 389 q 260 412 240 412 q 267 412 263 412 q 272 409 269 411 q 281 401 275 407 l 296 382 q 319 359 307 371 q 341 341 330 349 q 365 327 351 334 q 401 310 398 310 z "},"":{"ha":300,"x_min":9,"x_max":428,"o":"m 342 131 l 347 126 q 295 102 321 102 q 258 118 273 102 q 151 29 208 65 q 56 -7 94 -7 q 23 7 37 -7 q 9 47 9 22 q 61 158 9 104 q 179 240 113 211 q 286 270 246 270 q 324 233 324 270 q 263 124 324 195 q 296 109 275 109 q 342 131 319 109 m 318 235 q 308 256 318 248 q 286 264 298 264 q 131 161 235 264 q 26 25 26 58 q 36 8 26 16 q 58 0 45 0 q 139 30 86 0 q 233 101 193 59 q 296 177 273 144 q 318 235 318 211 m 358 408 l 428 408 q 388 363 394 374 q 381 342 381 353 q 393 321 381 332 l 387 315 q 351 355 355 328 q 234 315 291 319 l 231 321 q 358 408 307 355 z "},"":{"ha":300,"x_min":9,"x_max":412,"o":"m 342 131 l 347 126 q 295 102 321 102 q 258 118 273 102 q 151 29 208 65 q 56 -7 94 -7 q 23 7 37 -7 q 9 47 9 22 q 61 158 9 104 q 179 240 113 211 q 286 270 246 270 q 324 233 324 270 q 263 124 324 195 q 296 109 275 109 q 342 131 319 109 m 318 235 q 308 256 318 248 q 286 264 298 264 q 131 161 235 264 q 26 25 26 58 q 36 8 26 16 q 58 0 45 0 q 139 30 86 0 q 233 101 193 59 q 296 177 273 144 q 318 235 318 211 m 308 370 q 296 345 308 355 q 271 334 284 334 q 254 341 261 334 q 248 359 248 349 q 259 383 248 372 q 284 395 271 395 q 301 387 294 395 q 308 370 308 380 m 412 370 q 399 345 412 355 q 374 334 387 334 q 357 341 364 334 q 351 359 351 349 q 362 383 351 372 q 388 395 374 395 q 405 387 398 395 q 412 370 412 380 z "},"":{"ha":300,"x_min":9,"x_max":466,"o":"m 342 131 l 347 126 q 295 102 321 102 q 258 118 273 102 q 151 29 208 65 q 56 -7 94 -7 q 23 7 37 -7 q 9 47 9 22 q 61 158 9 104 q 179 240 113 211 q 286 270 246 270 q 324 233 324 270 q 263 124 324 195 q 296 109 275 109 q 342 131 319 109 m 318 235 q 308 256 318 248 q 286 264 298 264 q 131 161 235 264 q 26 25 26 58 q 36 8 26 16 q 58 0 45 0 q 139 30 86 0 q 233 101 193 59 q 296 177 273 144 q 318 235 318 211 m 465 391 q 451 378 466 391 q 439 369 445 373 q 429 362 434 365 q 420 357 425 359 q 411 354 416 355 q 401 351 406 352 q 389 349 395 350 q 378 349 383 349 q 336 356 360 349 q 304 363 313 363 q 269 347 292 363 q 301 380 278 367 q 344 393 325 393 q 385 386 358 393 q 425 379 412 379 l 429 379 q 433 380 431 380 l 438 381 q 443 382 440 381 q 448 384 446 383 q 454 386 451 385 l 465 391 z "},"":{"ha":450,"x_min":28,"x_max":496,"o":"m 46 126 l 41 131 q 149 221 119 194 q 202 264 180 249 l 267 264 q 213 210 248 243 l 63 54 q 41 24 45 36 l 41 19 q 49 3 41 10 q 68 -4 57 -4 q 154 34 98 -4 q 258 116 211 71 l 344 197 q 418 264 379 229 l 485 264 q 339 114 393 175 l 294 64 q 262 15 262 27 q 287 -5 262 -5 q 364 28 317 -5 q 491 131 411 61 l 496 126 q 342 6 379 25 q 286 -13 305 -13 q 259 -1 271 -13 q 248 30 248 10 q 319 151 248 79 l 384 217 l 380 221 q 66 -10 146 -10 q 39 1 51 -10 q 28 33 28 13 q 75 125 28 76 l 177 229 l 172 232 q 46 126 145 207 m 330 310 q 364 326 333 310 q 388 340 378 334 q 411 359 399 349 q 434 382 425 372 l 450 401 q 458 410 455 408 q 464 412 461 412 q 470 413 467 413 q 490 393 490 413 q 489 385 490 389 q 485 375 488 379 q 477 366 481 371 q 459 353 470 360 q 429 337 445 345 q 399 324 414 330 q 370 316 383 319 q 330 310 338 310 z "},"":{"ha":450,"x_min":28,"x_max":496,"o":"m 46 126 l 41 131 q 149 221 119 194 q 202 264 180 249 l 267 264 q 213 210 248 243 l 63 54 q 41 24 45 36 l 41 19 q 49 3 41 10 q 68 -4 57 -4 q 154 34 98 -4 q 258 116 211 71 l 344 197 q 418 264 379 229 l 485 264 q 339 114 393 175 l 294 64 q 262 15 262 27 q 287 -5 262 -5 q 364 28 317 -5 q 491 131 411 61 l 496 126 q 342 6 379 25 q 286 -13 305 -13 q 259 -1 271 -13 q 248 30 248 10 q 319 151 248 79 l 384 217 l 380 221 q 66 -10 146 -10 q 39 1 51 -10 q 28 33 28 13 q 75 125 28 76 l 177 229 l 172 232 q 46 126 145 207 m 444 310 q 407 315 434 310 q 376 323 391 319 q 345 336 361 329 q 316 352 330 344 q 298 366 305 359 q 289 375 292 370 q 284 384 286 379 q 283 393 283 389 q 302 412 283 412 q 309 412 306 412 q 315 409 312 411 q 323 401 318 407 l 338 382 q 362 359 349 371 q 384 341 373 349 q 408 327 393 334 q 444 310 441 310 z "},"":{"ha":450,"x_min":28,"x_max":509,"o":"m 46 126 l 41 131 q 149 221 119 194 q 202 264 180 249 l 267 264 q 213 210 248 243 l 63 54 q 41 24 45 36 l 41 19 q 49 3 41 10 q 68 -4 57 -4 q 154 34 98 -4 q 258 116 211 71 l 344 197 q 418 264 379 229 l 485 264 q 339 114 393 175 l 294 64 q 262 15 262 27 q 287 -5 262 -5 q 364 28 317 -5 q 491 131 411 61 l 496 126 q 342 6 379 25 q 286 -13 305 -13 q 259 -1 271 -13 q 248 30 248 10 q 319 151 248 79 l 384 217 l 380 221 q 66 -10 146 -10 q 39 1 51 -10 q 28 33 28 13 q 75 125 28 76 l 177 229 l 172 232 q 46 126 145 207 m 439 408 l 509 408 q 468 363 475 374 q 462 342 462 353 q 473 321 462 332 l 468 315 q 431 355 436 328 q 315 315 372 319 l 311 321 q 439 408 388 355 z "},"":{"ha":450,"x_min":28,"x_max":496,"o":"m 46 126 l 41 131 q 149 221 119 194 q 202 264 180 249 l 267 264 q 213 210 248 243 l 63 54 q 41 24 45 36 l 41 19 q 49 3 41 10 q 68 -4 57 -4 q 154 34 98 -4 q 258 116 211 71 l 344 197 q 418 264 379 229 l 485 264 q 339 114 393 175 l 294 64 q 262 15 262 27 q 287 -5 262 -5 q 364 28 317 -5 q 491 131 411 61 l 496 126 q 342 6 379 25 q 286 -13 305 -13 q 259 -1 271 -13 q 248 30 248 10 q 319 151 248 79 l 384 217 l 380 221 q 66 -10 146 -10 q 39 1 51 -10 q 28 33 28 13 q 75 125 28 76 l 177 229 l 172 232 q 46 126 145 207 m 388 370 q 376 345 388 355 q 351 334 364 334 q 334 341 341 334 q 328 359 328 349 q 339 383 328 372 q 364 395 351 395 q 381 387 374 395 q 388 370 388 380 m 492 370 q 479 345 492 355 q 454 334 467 334 q 437 341 444 334 q 431 359 431 349 q 442 383 431 372 q 468 395 454 395 q 485 387 478 395 q 492 370 492 380 z "},"":{"ha":509,"x_min":-20,"x_max":745,"o":"m 5 -144 l -20 -144 l 267 130 q 386 260 362 222 q 405 280 393 274 q 537 388 466 319 q 449 375 494 387 q 389 364 403 364 q 363 376 363 364 q 385 408 363 390 q 433 426 406 426 q 476 415 445 426 q 546 404 507 404 l 554 404 q 626 486 600 451 q 730 570 690 570 q 745 559 745 570 q 677 487 745 535 q 572 404 609 439 q 652 415 606 404 q 715 427 699 427 q 741 414 741 427 q 720 383 741 400 q 673 366 700 366 q 626 377 663 366 q 555 387 589 387 q 459 269 480 316 q 310 150 391 224 q 5 -144 229 76 z "},"":{"ha":311,"x_min":288,"x_max":469,"o":"m 288 470 q 315 533 288 507 q 379 559 342 559 q 443 533 417 559 q 469 469 469 506 q 443 405 469 431 q 379 378 416 378 q 314 405 340 378 q 288 470 288 431 m 456 469 q 434 526 456 502 q 378 549 411 549 q 323 526 346 549 q 300 469 300 502 q 323 413 300 437 q 378 389 347 389 q 434 413 412 389 q 456 469 456 437 z "},"":{"ha":385,"x_min":80,"x_max":512,"o":"m 178 102 l 86 6 l 80 10 l 170 105 q 155 159 155 130 q 198 253 155 207 q 308 335 241 300 q 404 370 376 370 q 421 367 411 370 l 507 456 l 512 451 l 430 364 q 445 332 445 349 q 428 294 445 310 q 393 279 410 279 q 369 302 373 279 l 184 108 q 208 100 195 100 q 320 142 248 100 q 456 240 392 184 l 459 235 q 316 132 388 172 q 208 92 245 92 q 178 102 192 92 m 416 360 l 406 360 q 351 335 383 360 q 271 260 318 310 q 198 176 224 211 q 172 127 172 142 q 178 113 172 122 l 416 360 m 395 328 q 422 307 420 328 q 436 333 436 310 q 422 357 436 349 l 395 328 z "},"":{"ha":718,"x_min":-109,"x_max":943,"o":"m 574 238 l 574 232 l 459 232 q 200 44 333 99 l 290 14 q 387 -3 344 -3 q 503 25 436 -3 q 646 122 570 53 l 648 117 q 514 23 586 55 q 387 -9 443 -9 q 330 -3 357 -9 q 252 20 304 3 l 189 41 q -30 -10 68 -10 q -87 0 -66 -10 q -109 30 -109 11 q -79 70 -109 55 q 2 84 -50 84 q 63 79 35 84 q 189 47 92 73 q 396 232 289 80 l 292 232 l 292 238 l 400 238 l 451 305 l 349 305 l 349 312 l 458 312 q 627 474 536 416 q 804 532 718 532 q 901 503 858 532 q 943 421 943 474 q 916 348 943 377 q 846 318 888 318 q 785 339 810 318 q 760 387 760 359 q 770 423 760 405 l 774 422 q 767 392 767 405 q 789 345 767 365 q 845 325 812 325 q 910 352 884 325 q 937 420 937 379 q 896 498 937 470 q 809 527 855 527 q 692 489 753 527 q 528 312 631 450 l 638 312 l 637 305 l 524 305 q 465 238 498 274 l 574 238 m 178 43 q -3 79 74 79 q -75 65 -46 79 q -104 30 -104 51 q -24 -4 -104 -4 q 77 9 16 -4 q 178 43 139 23 z "},"":{"ha":509,"x_min":47,"x_max":731,"o":"m 449 370 q 445 399 445 388 q 510 518 445 467 q 650 569 575 569 q 708 550 686 569 q 731 501 731 530 q 715 457 731 476 q 674 438 699 438 q 648 461 648 438 q 677 496 648 485 q 707 527 707 508 q 690 552 707 543 q 648 561 673 561 q 543 525 589 561 q 496 440 496 488 q 505 399 496 421 l 527 338 q 538 288 538 308 q 337 102 538 176 q 341 66 341 83 q 275 -54 341 -2 q 135 -106 210 -106 q 68 -85 90 -106 q 47 -38 47 -64 q 64 4 47 -16 q 102 23 81 23 q 127 0 127 23 q 98 -36 127 -24 q 68 -66 68 -47 q 86 -90 68 -80 q 130 -100 103 -100 q 241 -55 193 -100 q 290 40 290 -11 q 275 94 290 59 l 256 146 q 248 178 248 166 q 283 273 248 225 q 449 370 317 320 m 451 361 q 327 282 349 319 q 304 208 304 246 q 317 161 304 195 l 335 108 q 480 260 480 159 q 469 311 480 282 l 451 361 z "},"":{"ha":926,"x_min":296,"x_max":630,"o":"m 463 296 q 345 345 394 296 q 296 463 296 393 q 345 581 296 532 q 463 629 394 629 q 581 581 532 629 q 630 463 630 532 q 581 345 630 394 q 463 296 532 296 z "},"":{"ha":465,"x_min":-26,"x_max":827,"o":"m 705 486 l 498 326 q 179 16 357 219 l 45 -138 l -26 -142 l 198 80 q 359 230 290 171 q 521 355 429 290 l 597 410 q 694 486 658 454 q 631 510 666 493 q 571 528 595 528 q 507 509 539 528 q 417 431 475 491 q 347 352 359 372 q 335 315 335 332 q 345 294 335 302 q 368 286 355 286 q 466 336 399 286 q 571 434 532 387 l 574 431 q 484 342 559 406 q 368 278 409 278 q 330 297 345 278 q 315 341 315 316 q 355 429 315 381 q 478 518 395 476 q 611 560 562 560 q 648 555 635 560 q 685 529 660 549 q 719 507 711 509 l 776 555 l 780 553 q 728 505 751 526 q 738 504 734 504 q 767 513 751 504 q 822 555 783 522 l 827 553 q 667 414 783 510 q 451 220 550 319 q 150 -140 351 121 l 79 -145 l 299 94 q 582 355 431 238 l 700 450 q 747 491 712 459 l 747 495 q 705 486 720 487 z "},"":{"ha":602,"x_min":-421,"x_max":922,"o":"m 46 126 l 42 131 q 184 227 115 186 l 336 304 l 374 342 q 583 542 480 450 q 756 681 685 633 q 879 728 828 728 q 910 717 899 728 q 922 692 922 706 q 853 584 922 651 q 632 433 785 517 q 425 329 479 349 q 384 298 406 322 l 263 166 q 75 -26 192 89 l 78 -29 q 325 107 182 12 q 605 342 469 201 l 610 337 q 575 304 584 316 q 566 277 566 292 q 575 232 566 265 q 585 181 585 198 q 501 40 585 98 q 644 131 562 67 l 649 126 l 592 84 q 513 39 555 57 l 431 3 q 397 -7 414 -3 q 364 -11 381 -11 q 323 3 340 -11 q 306 37 306 17 q 315 63 306 52 q 338 75 325 75 q 361 53 361 75 q 354 36 361 43 q 334 29 346 29 q 322 31 329 29 q 320 24 320 26 q 332 6 320 14 q 359 -2 345 -2 q 451 39 399 -2 q 530 131 503 81 q 557 239 557 180 q 559 290 557 278 l 494 229 q 301 83 423 163 q 57 -45 180 3 l 4 -94 q -374 -334 -252 -334 q -410 -321 -399 -334 q -421 -294 -421 -309 q -268 -163 -421 -242 q -6 -55 -115 -84 l 307 276 l 305 278 q 46 126 178 229 m 422 337 q 607 428 467 352 q 828 579 748 504 q 909 696 909 654 q 901 712 909 705 q 878 720 892 720 q 686 615 802 720 q 422 337 570 511 m -20 -70 q -288 -185 -163 -113 q -412 -296 -412 -258 q -402 -318 -412 -309 q -374 -327 -392 -327 q -20 -70 -258 -327 z "},"":{"ha":1330,"x_min":530,"x_max":1491,"o":"m 1060 941 q 1367 818 1244 941 q 1491 513 1491 694 q 1419 257 1491 380 q 1223 60 1348 134 q 960 -15 1097 -15 q 654 109 778 -15 q 530 414 530 232 q 603 671 530 547 q 799 868 675 795 q 1060 941 923 941 m 964 7 q 1213 78 1093 7 q 1400 266 1332 149 q 1468 509 1468 382 q 1349 801 1468 683 q 1056 918 1231 918 q 809 850 927 918 q 622 664 692 781 q 553 418 553 547 q 671 125 553 243 q 964 7 790 7 m 1245 283 l 1249 278 q 1098 197 1158 197 q 1068 207 1078 197 q 1059 229 1059 217 q 1074 272 1059 249 q 1131 332 1090 295 l 1156 356 q 1176 389 1176 374 q 1166 418 1176 404 q 1154 418 1158 418 q 1120 430 1120 418 q 1125 441 1120 435 q 1141 446 1131 446 q 1173 426 1159 446 q 1292 493 1239 433 q 1345 598 1345 553 q 1314 665 1345 642 q 1221 581 1264 628 q 1107 435 1179 533 l 1065 378 q 918 250 1011 303 q 741 197 825 197 q 647 219 682 197 q 612 269 612 241 q 620 291 612 282 q 640 300 627 300 q 662 278 662 300 q 656 262 662 269 q 641 256 650 256 q 625 258 637 256 q 747 204 654 204 q 894 255 825 204 q 1042 405 962 305 l 1093 467 q 1309 669 1183 578 q 1086 732 1236 732 q 817 650 928 732 q 705 486 705 567 q 740 424 705 450 q 819 397 774 397 q 987 450 901 397 q 1074 566 1074 502 q 1056 606 1074 592 q 1009 620 1038 620 q 882 581 944 620 q 781 472 820 542 l 775 475 q 878 585 812 543 q 1013 627 943 627 q 1066 610 1049 627 q 1084 566 1084 592 q 1000 441 1084 498 q 827 385 916 385 q 737 414 777 385 q 696 481 696 443 q 812 654 696 568 q 1091 740 927 740 q 1317 675 1240 740 q 1381 713 1359 703 l 1383 707 q 1322 671 1359 696 q 1369 574 1369 628 q 1320 476 1369 519 q 1177 420 1271 433 q 1188 382 1188 402 q 1179 346 1188 367 q 1124 282 1170 325 q 1078 222 1078 240 q 1104 205 1078 205 q 1245 283 1156 205 z "},"":{"ha":1330,"x_min":530,"x_max":1491,"o":"m 1060 941 q 1367 818 1244 941 q 1491 513 1491 694 q 1419 257 1491 380 q 1223 60 1348 134 q 960 -15 1097 -15 q 654 109 778 -15 q 530 414 530 232 q 603 671 530 547 q 799 868 675 795 q 1060 941 923 941 m 964 7 q 1213 78 1093 7 q 1400 266 1332 149 q 1468 509 1468 382 q 1349 801 1468 683 q 1056 918 1231 918 q 809 850 927 918 q 622 664 692 781 q 553 418 553 547 q 671 125 553 243 q 964 7 790 7 m 904 463 l 850 408 q 764 266 764 320 q 785 224 764 242 q 848 206 806 206 q 1006 255 926 206 q 1086 353 1086 304 q 1070 382 1086 372 q 1034 393 1054 393 q 911 351 980 393 q 803 249 842 309 l 798 252 q 910 357 838 313 q 1038 401 982 401 q 1079 388 1063 401 q 1095 357 1095 375 q 1007 249 1095 299 q 848 199 920 199 q 747 279 747 199 q 851 459 747 359 q 828 458 836 458 q 720 489 757 458 q 682 563 682 520 q 760 687 682 635 q 969 740 838 740 q 1019 738 994 740 l 1017 730 q 971 732 993 732 q 764 672 833 732 q 695 556 695 612 q 730 494 695 523 q 831 465 766 465 q 858 467 840 465 q 1078 636 951 563 q 1291 710 1205 710 q 1325 700 1312 710 q 1338 675 1338 689 q 1203 548 1338 617 q 904 463 1068 479 m 913 471 q 1128 522 1025 482 q 1279 605 1232 562 q 1326 673 1326 648 q 1315 693 1326 685 q 1286 702 1303 702 q 1159 665 1228 702 q 993 544 1090 628 l 913 471 z "},"":{"ha":1249,"x_min":461,"x_max":1800,"o":"m 1531 477 l 1535 473 q 1396 391 1442 391 q 1373 401 1382 391 q 1363 427 1363 411 q 1497 651 1363 494 q 1772 916 1630 808 q 1630 834 1723 907 q 1358 549 1536 761 l 1310 492 q 1235 409 1254 427 q 1199 391 1216 391 q 1181 414 1181 391 q 1311 623 1181 471 q 1521 847 1440 775 l 1604 916 q 1451 824 1540 897 q 1230 591 1361 751 q 1067 431 1133 472 q 947 390 1001 390 q 893 406 914 390 q 871 444 871 421 q 882 468 871 458 q 906 478 892 478 q 923 472 916 478 q 930 458 930 467 q 921 441 930 449 q 901 433 911 433 q 891 435 898 433 l 891 429 q 909 407 891 417 q 953 397 928 397 q 1065 437 1003 397 q 1226 596 1128 476 q 1454 833 1359 758 q 1629 930 1549 909 q 1361 633 1503 811 q 1200 414 1218 455 q 1199 410 1200 412 l 1199 407 q 1205 399 1199 399 q 1303 492 1226 399 q 1613 827 1508 740 q 1800 932 1718 914 q 1532 642 1687 830 q 1378 417 1378 454 q 1384 404 1378 410 q 1399 399 1391 399 q 1531 477 1441 399 m 1411 915 q 1304 876 1364 876 q 1178 891 1283 876 q 975 906 1074 906 q 757 854 832 906 q 682 755 682 802 q 708 711 682 730 q 772 692 734 692 q 893 728 832 692 q 955 802 955 763 q 940 830 955 820 q 904 840 924 840 q 814 817 862 840 q 732 762 766 793 l 709 739 l 705 743 q 804 820 749 791 q 908 848 859 848 q 949 837 934 848 q 965 808 965 825 q 900 723 965 762 q 768 685 835 685 q 700 705 726 685 q 673 750 673 725 q 761 865 673 807 q 1075 923 848 923 q 1255 916 1175 923 q 1356 909 1335 909 q 1407 920 1380 909 l 1411 915 m 1177 880 l 1114 825 q 1045 755 1070 787 q 967 641 1019 724 q 869 511 916 558 q 748 430 822 464 q 595 396 675 396 q 495 416 529 396 q 461 467 461 437 q 473 496 461 483 q 500 509 486 509 q 519 502 511 509 q 528 485 528 494 q 518 465 528 474 q 497 456 509 456 q 477 465 489 456 q 477 454 477 458 q 509 421 477 438 q 595 404 541 404 q 703 425 652 404 q 793 485 754 447 q 897 606 833 523 q 989 720 961 688 q 1061 789 1017 751 l 1173 884 l 1177 880 z "},"":{"ha":694,"x_min":498,"x_max":659,"o":"m 498 310 q 533 326 502 310 q 557 340 547 334 q 580 359 568 349 q 603 382 593 372 l 618 401 q 627 410 624 408 q 633 412 630 412 q 639 413 635 413 q 659 393 659 413 q 658 385 659 389 q 654 375 656 379 q 646 366 650 371 q 628 353 639 360 q 597 337 614 345 q 568 324 583 330 q 538 316 552 319 q 498 310 507 310 z "},"":{"ha":694,"x_min":450,"x_max":614,"o":"m 511 370 q 499 345 511 355 q 473 334 487 334 q 457 341 464 334 q 450 359 450 349 q 462 383 450 372 q 487 395 473 395 q 504 387 497 395 q 511 370 511 380 m 614 370 q 602 345 614 355 q 576 334 590 334 q 560 341 567 334 q 553 359 553 349 q 565 383 553 372 q 591 395 576 395 q 608 387 601 395 q 614 370 614 380 z "},"":{"ha":372,"x_min":83,"x_max":492,"o":"m 245 187 l 302 243 l 143 243 l 151 258 l 317 258 l 468 405 l 492 405 l 340 258 l 465 258 l 457 243 l 326 243 l 268 187 l 427 187 l 419 172 l 253 172 l 106 28 l 83 28 l 229 172 l 104 172 l 113 187 l 245 187 z "},"":{"ha":1773,"x_min":29,"x_max":2148,"o":"m 875 -1 l 802 -1 l 854 64 q 631 157 722 84 q 399 25 485 54 q 236 -4 313 -4 q 89 36 149 -4 q 29 130 29 77 q 45 178 29 157 q 83 198 60 198 q 117 184 102 198 q 131 155 131 171 q 119 127 131 138 q 91 117 107 117 q 54 148 61 117 q 39 125 39 141 q 98 42 39 81 q 238 3 157 3 q 624 163 414 3 q 483 463 483 307 q 533 626 483 566 q 655 685 583 685 q 824 612 749 685 q 934 420 899 540 q 1401 798 1221 687 q 1732 930 1582 909 l 1650 854 q 1556 762 1634 840 l 1421 628 l 1310 513 q 1074 245 1232 433 l 922 62 l 946 61 q 1183 167 1048 58 q 1305 391 1181 288 q 1645 530 1429 495 q 1618 582 1630 547 q 1432 560 1520 560 q 1385 564 1408 560 l 1387 571 q 1426 568 1407 568 q 1619 591 1548 568 q 1617 621 1617 610 q 1678 770 1617 692 q 1858 907 1740 848 q 2056 966 1976 966 q 2122 949 2096 966 q 2148 906 2148 931 q 2018 747 2148 838 q 1641 587 1888 656 q 1640 574 1640 577 q 1659 530 1640 555 q 1687 531 1678 531 q 1749 522 1723 531 q 1776 495 1776 512 q 1752 476 1776 476 q 1655 522 1708 476 q 1452 452 1550 513 q 1285 287 1354 391 q 1217 116 1217 182 q 1262 32 1217 62 q 1371 2 1308 2 q 1656 91 1518 2 q 1794 275 1794 180 q 1766 332 1794 312 q 1700 351 1738 351 q 1494 275 1613 351 q 1287 79 1375 199 l 1280 82 q 1472 268 1342 178 q 1703 358 1601 358 q 1777 332 1749 358 q 1806 269 1806 307 q 1656 82 1806 170 q 1367 -6 1507 -6 q 1237 36 1291 -6 q 1183 146 1183 77 l 1183 157 q 933 53 1047 53 l 916 53 l 875 -1 m 1642 596 q 1869 674 1741 616 q 2066 797 1997 732 q 2135 910 2135 861 q 2114 944 2135 930 q 2060 958 2093 958 q 1909 913 1991 958 q 1738 766 1827 869 q 1642 596 1650 663 m 1697 911 l 1696 916 q 1332 743 1522 880 q 936 411 1143 607 q 943 351 943 389 q 938 282 943 317 q 927 218 934 247 q 910 161 920 189 l 889 102 l 940 167 q 1027 269 975 210 q 1133 385 1078 327 q 1259 516 1190 446 q 1385 640 1328 586 q 1486 734 1436 690 q 1584 820 1534 778 q 1697 911 1636 863 m 631 168 q 927 414 727 237 q 837 588 903 511 q 677 665 771 665 q 544 608 597 665 q 491 458 491 552 q 529 303 491 380 q 631 168 568 227 m 1667 522 q 1750 485 1714 485 q 1768 496 1768 485 q 1743 515 1768 507 q 1688 524 1717 524 q 1667 522 1681 524 m 861 71 q 936 351 936 210 q 929 406 936 381 q 845 334 914 394 l 739 243 q 637 163 701 212 q 861 71 724 90 z "},"":{"ha":974,"x_min":288,"x_max":1430,"o":"m 1369 986 l 1373 983 l 1326 935 q 1430 817 1430 901 q 1378 720 1430 757 q 1277 682 1326 682 q 1246 685 1266 682 l 1246 692 q 1275 688 1265 688 q 1370 723 1318 688 q 1422 816 1422 758 q 1321 930 1422 897 l 1205 812 q 1217 760 1217 787 q 1110 486 1217 649 q 791 153 1003 322 q 444 -16 579 -16 q 379 -3 408 -16 l 331 -50 l 327 -45 l 372 -1 q 306 76 325 31 q 288 164 288 121 q 460 518 288 322 q 852 831 632 713 q 1238 949 1073 949 q 1320 938 1280 949 l 1369 986 m 830 451 q 768 532 768 467 q 821 686 768 604 q 955 820 873 768 q 1109 872 1037 872 q 1162 859 1136 872 q 1202 819 1189 846 l 1313 931 q 1238 942 1278 942 q 883 828 1069 942 q 507 473 697 713 q 317 105 317 233 q 378 4 317 43 l 830 451 m 837 458 l 1125 743 q 1141 819 1136 785 l 1146 818 q 1134 753 1143 795 l 1196 814 q 1161 851 1185 838 q 1111 864 1136 864 q 893 744 1010 864 q 777 529 777 623 q 837 458 777 465 m 385 2 q 450 -9 418 -9 q 792 161 581 -9 q 1107 492 1004 331 q 1211 758 1211 652 q 1199 808 1211 786 l 1129 739 q 1010 532 1097 616 q 839 450 922 449 l 385 2 m 847 458 l 854 458 q 1001 532 916 458 q 1120 730 1086 606 l 847 458 z "},"":{"ha":926,"x_min":28,"x_max":898,"o":"m 463 451 q 340 308 396 345 q 222 272 283 272 q 81 330 134 272 q 28 477 28 387 q 84 621 28 566 q 222 675 140 675 q 463 495 353 675 q 588 639 532 604 q 705 674 644 674 q 845 616 793 674 q 898 471 898 559 q 843 326 898 380 q 707 272 787 272 q 572 319 630 272 q 463 451 515 366 m 448 473 q 342 603 395 557 q 218 649 289 649 q 102 600 148 649 q 56 473 56 551 q 105 345 56 391 q 222 298 153 298 q 335 337 282 298 q 448 473 388 376 m 478 473 q 582 346 528 393 q 708 298 635 298 q 825 347 779 298 q 870 473 870 397 q 821 602 870 555 q 705 648 772 648 q 595 612 647 648 q 478 473 543 575 z "},"":{"ha":555,"x_min":22,"x_max":605,"o":"m 407 235 l 227 56 l 214 56 l 393 235 l 241 235 l 256 250 l 408 250 l 591 433 l 605 433 l 422 250 l 570 250 l 555 235 l 407 235 m 22 13 l 37 28 l 351 28 l 336 13 l 22 13 z "},"":{"ha":694,"x_min":46,"x_max":648,"o":"m 648 770 l 648 741 l 79 497 l 648 254 l 648 224 l 46 482 l 46 512 l 648 770 m 648 182 l 648 156 l 46 156 l 46 182 l 648 182 z "},"":{"ha":694,"x_min":46,"x_max":648,"o":"m 46 770 l 648 511 l 648 482 l 46 224 l 46 254 l 616 497 l 46 741 l 46 770 m 46 182 l 648 182 l 648 156 l 46 156 l 46 182 z "},"":{"ha":541,"x_min":151,"x_max":787,"o":"m 479 312 l 547 312 l 781 483 l 787 477 l 566 312 l 646 312 l 642 305 l 557 305 l 468 238 l 583 238 l 578 232 l 462 232 l 243 1 l 151 -5 l 412 232 l 296 232 l 300 238 l 418 238 q 444 305 437 276 l 353 305 l 357 312 l 444 312 q 449 354 449 334 q 436 428 449 398 q 397 458 423 458 q 319 417 359 458 q 279 356 279 376 q 287 341 279 347 q 303 335 295 335 q 358 360 324 335 q 411 415 392 385 l 415 412 q 357 350 388 373 q 300 328 326 328 q 266 359 266 328 q 303 433 266 400 q 386 465 341 465 q 456 428 432 465 q 481 338 481 391 q 479 312 481 327 m 477 305 q 439 233 473 278 l 539 305 l 477 305 z "},"":{"ha":463,"x_min":-328,"x_max":503,"o":"m 36 19 l -135 -178 l -208 -258 q -268 -317 -247 -301 q -304 -334 -290 -334 q -321 -327 -315 -334 q -328 -312 -328 -319 q -322 -290 -328 -302 q -281 -242 -317 -278 q -208 -175 -246 -207 q -77 -55 -170 -143 l -26 -4 q 57 94 31 52 q 82 125 66 107 l 184 229 l 179 232 q 53 126 153 208 l 48 131 q 209 266 116 186 l 273 266 l 252 241 l 168 157 l 92 77 q 53 34 58 41 q 48 19 48 27 q 56 3 48 9 q 74 -4 64 -4 q 339 184 142 -4 l 425 267 l 492 267 l 373 143 q 320 85 361 132 l 286 46 q 269 15 269 27 q 294 -5 269 -5 q 354 18 316 -5 q 498 131 393 41 l 503 126 q 356 10 395 33 q 292 -13 316 -13 q 266 -1 277 -13 q 255 27 255 11 q 329 153 255 78 l 391 217 l 387 221 q 73 -10 153 -10 q 36 19 44 -10 z "},"":{"ha":694,"x_min":60,"x_max":634,"o":"m 147 909 l 152 938 q 511 722 387 901 q 634 309 634 544 q 548 66 634 150 q 347 -18 462 -18 q 148 71 235 -18 q 60 295 60 159 q 147 518 60 428 q 355 608 234 608 q 488 575 424 608 q 590 468 552 543 q 430 773 543 660 q 147 909 317 886 m 356 582 q 167 499 245 582 q 89 295 89 416 q 166 91 89 174 q 351 7 243 7 q 529 87 453 7 q 606 304 606 167 q 535 506 606 430 q 356 582 464 582 z "},"":{"ha":926,"x_min":48,"x_max":815,"o":"m 802 1042 l 802 753 l 774 753 l 774 1014 l 78 1014 l 432 378 l 78 -321 l 787 -321 l 787 -62 l 815 -62 l 815 -347 l 48 -347 l 48 -315 l 399 378 l 48 1014 l 48 1042 l 802 1042 z "},"":{"ha":926,"x_min":47,"x_max":880,"o":"m 47 1042 l 880 1042 l 880 1016 l 775 1016 l 775 -321 l 880 -321 l 880 -347 l 629 -347 l 629 -321 l 747 -321 l 747 1016 l 179 1016 l 179 -321 l 296 -321 l 296 -347 l 47 -347 l 47 -321 l 151 -321 l 151 1016 l 47 1016 l 47 1042 z "},"":{"ha":695,"x_min":26,"x_max":669,"o":"m 126 0 l 126 638 l 26 638 l 26 664 l 669 664 l 669 638 l 570 638 l 570 0 l 543 0 l 543 638 l 154 638 l 154 0 l 126 0 z "},"":{"ha":694,"x_min":193,"x_max":500,"o":"m 193 -332 l 206 -307 q 257 -321 231 -321 q 306 -306 288 -321 q 329 -264 324 -290 q 333 -170 333 -238 l 333 861 q 338 968 333 938 q 370 1020 343 999 q 437 1042 397 1042 q 500 1026 468 1042 l 488 1002 q 437 1016 461 1016 q 388 1000 406 1016 q 365 959 370 985 q 361 865 361 934 l 361 -168 q 354 -283 361 -256 q 320 -329 347 -311 q 254 -347 294 -347 q 193 -332 223 -347 z "},"":{"ha":293,"x_min":293,"x_max":562,"o":"m 522 532 l 562 532 q 524 492 547 515 l 452 417 q 430 385 430 395 q 444 372 430 372 q 557 453 462 372 l 561 448 q 438 365 463 365 q 416 389 416 365 q 433 431 416 406 q 321 364 349 364 q 293 402 293 364 q 361 492 293 448 q 471 531 422 531 q 495 511 495 531 q 494 503 495 508 l 522 532 m 485 509 q 467 523 485 523 q 373 468 437 523 q 308 385 308 413 q 324 372 308 372 q 418 427 352 372 q 485 509 485 482 z "},"":{"ha":232,"x_min":291,"x_max":498,"o":"m 493 453 l 498 448 q 462 431 475 431 q 441 439 450 431 q 319 366 368 366 q 291 399 291 366 q 352 493 291 448 q 460 535 410 535 q 484 513 484 535 q 448 448 484 489 q 463 439 454 439 q 493 453 475 439 m 475 509 q 456 528 475 528 q 369 470 431 528 q 307 389 307 412 q 324 374 307 374 q 416 425 358 374 q 475 509 475 476 z "},"":{"ha":926,"x_min":39,"x_max":887,"o":"m 39 0 l 39 26 l 343 26 q 127 217 215 94 q 39 498 39 340 q 162 819 39 689 q 463 948 285 948 q 765 819 644 948 q 887 494 887 690 q 798 215 887 338 q 583 26 709 91 l 887 26 l 887 0 l 536 0 l 536 26 q 781 239 703 116 q 859 499 859 361 q 747 797 859 672 q 467 922 635 922 q 179 797 291 922 q 67 496 67 672 q 144 240 67 362 q 391 26 221 119 l 391 0 l 39 0 z "},"":{"ha":500,"x_min":9,"x_max":553,"o":"m 401 264 l 462 264 l 385 178 q 441 218 400 189 q 501 256 481 248 q 531 263 520 263 q 547 257 541 263 q 553 241 553 250 q 464 162 553 204 q 334 119 374 119 q 265 21 265 38 q 275 1 265 9 q 300 -7 286 -7 q 542 131 387 -7 l 546 126 l 506 92 q 391 14 448 41 q 302 -14 335 -14 q 262 2 278 -14 q 245 43 245 18 q 273 112 245 70 q 54 -14 137 -14 q 21 3 32 -14 q 9 45 9 20 q 113 191 9 117 q 300 264 216 264 q 336 254 321 264 q 351 221 351 243 q 349 202 351 214 l 401 264 m 340 127 q 466 169 387 127 q 545 241 545 210 q 528 256 545 256 q 432 203 505 256 q 340 127 360 151 m 345 222 q 334 247 345 237 q 309 256 323 256 q 241 233 279 256 q 137 146 203 210 q 50 59 71 83 q 28 20 28 34 q 37 2 28 9 q 58 -6 45 -6 q 233 86 121 -6 q 345 222 345 179 z "},"":{"ha":300,"x_min":9,"x_max":347,"o":"m 320 283 l 323 280 l 308 265 q 324 233 324 253 q 263 124 324 195 q 296 109 275 109 q 342 131 319 109 l 347 126 q 296 102 322 102 q 258 118 273 102 q 149 28 206 62 q 60 -7 92 -7 q 39 -4 54 -7 l 18 -25 l 14 -22 l 34 -2 q 9 47 9 12 q 56 154 9 102 q 174 238 103 207 q 286 270 244 270 q 304 267 294 270 l 320 283 m 299 262 q 285 263 290 263 q 130 161 233 263 q 26 24 26 58 q 39 3 26 15 l 299 262 m 44 1 q 59 1 54 1 q 156 40 96 1 q 267 139 216 79 q 318 233 318 200 q 303 260 318 250 l 44 1 z "},"":{"ha":428,"x_min":14,"x_max":538,"o":"m 465 413 q 479 443 465 430 q 511 455 494 455 q 530 447 522 455 q 538 426 538 438 q 525 397 538 410 q 494 384 511 384 q 473 392 481 384 q 465 413 465 401 m 460 368 q 357 277 414 317 q 191 182 300 237 l 146 160 q 61 99 92 133 q 31 39 31 64 q 45 7 31 19 q 80 -4 58 -4 q 228 50 145 -4 q 311 125 311 103 q 301 142 311 135 q 277 149 292 149 q 71 37 193 149 l 68 41 q 164 116 101 78 q 275 155 228 155 q 312 143 298 155 q 326 111 326 131 q 256 28 326 68 q 100 -11 186 -11 q 35 9 56 -11 q 14 57 14 28 q 40 133 14 96 q 97 188 66 170 q 254 243 129 205 q 456 373 378 280 l 460 368 z "},"":{"ha":313,"x_min":-17,"x_max":496,"o":"m 422 434 q 437 464 422 451 q 468 476 452 476 q 488 468 479 476 q 496 448 496 460 q 483 418 496 431 q 452 405 469 405 q 431 413 439 405 q 422 434 422 422 m 416 395 l 57 2 l -17 0 l 414 398 l 416 395 z "},"":{"ha":694,"x_min":46,"x_max":648,"o":"m 620 0 l 620 345 l 46 345 l 46 370 l 648 370 l 648 0 l 620 0 z "},"":{"ha":926,"x_min":0,"x_max":926,"o":"m 926 1148 l 926 1122 l 631 1122 l 266 0 l 248 0 l 101 451 l 0 451 l 0 477 l 122 477 l 257 64 l 609 1148 l 926 1148 z "},"":{"ha":324,"x_min":-145,"x_max":673,"o":"m 374 312 l 485 312 l 484 305 l 372 305 l -75 -184 l -145 -186 l 307 305 l 205 305 l 205 312 l 313 312 q 495 483 418 434 q 629 532 572 532 q 662 522 650 532 q 673 496 673 511 q 657 459 673 478 q 626 441 640 441 q 609 448 616 441 q 602 465 602 455 q 610 485 602 476 q 629 494 618 494 q 645 485 640 494 q 654 476 650 476 q 663 484 659 476 q 667 498 667 492 q 657 517 667 509 q 631 525 648 525 q 572 507 602 525 q 500 444 542 489 l 374 312 z "},"":{"ha":694,"x_min":17,"x_max":677,"o":"m 41 483 l 17 498 q 188 627 89 627 q 253 615 218 627 q 355 567 288 603 q 448 521 421 530 q 503 511 475 511 q 583 539 548 511 q 654 629 617 566 l 677 614 q 592 512 633 538 q 505 485 551 485 q 363 532 448 485 q 249 590 279 578 q 188 601 218 601 q 41 483 106 601 m 41 297 l 17 312 q 188 441 89 441 q 253 429 218 441 q 355 381 288 417 q 448 335 421 345 q 503 325 475 325 q 583 353 549 325 q 654 444 618 382 l 677 429 q 592 326 633 353 q 505 299 551 299 q 363 346 448 299 q 249 404 279 393 q 188 415 218 415 q 41 297 106 415 z "},"":{"ha":833,"x_min":6,"x_max":827,"o":"m 6 0 l 403 926 l 431 926 l 827 0 l 6 0 m 47 26 l 787 26 l 416 892 l 47 26 z "},"":{"ha":567,"x_min":120,"x_max":520,"o":"m 174 155 q 241 -6 233 34 l 237 -7 q 120 168 186 104 q 340 324 247 229 l 345 321 q 174 155 265 222 m 349 155 q 416 -6 404 44 l 412 -7 q 295 168 361 104 q 515 324 422 230 l 520 321 q 349 155 444 225 z "},"":{"ha":566,"x_min":109,"x_max":509,"o":"m 280 162 q 212 323 224 276 l 217 324 q 334 149 269 211 q 114 -7 205 87 l 109 -4 q 280 162 185 91 m 455 162 q 387 323 399 275 l 392 324 q 509 149 440 215 q 289 -7 381 88 l 283 -4 q 455 162 363 95 z "},"":{"ha":812,"x_min":-16,"x_max":600,"o":"m 58 34 q 43 4 58 16 q 12 -8 28 -8 q -8 0 0 -8 q -16 20 -16 8 q -2 50 -16 36 q 28 63 12 63 q 49 55 41 63 q 58 34 58 46 m 328 34 q 314 4 328 16 q 283 -8 299 -8 q 263 0 271 -8 q 254 20 254 8 q 268 50 254 36 q 299 63 282 63 q 320 55 311 63 q 328 34 328 46 m 600 34 q 585 4 600 16 q 553 -8 570 -8 q 534 0 542 -8 q 526 20 526 8 q 539 50 526 36 q 570 63 553 63 q 591 55 582 63 q 600 34 600 46 z "},"":{"ha":231,"x_min":0,"x_max":0,"o":""},"":{"ha":1082,"x_min":30,"x_max":1779,"o":"m 926 54 l 888 0 l 814 1 l 857 62 q 634 154 732 84 q 242 -13 428 -13 q 96 30 162 -13 q 30 137 30 73 q 50 192 30 172 q 94 212 70 212 q 132 197 117 212 q 148 161 148 182 q 135 130 148 142 q 102 117 121 117 q 57 172 60 117 l 54 173 q 38 130 38 153 q 102 34 38 75 q 251 -7 167 -7 q 462 49 351 -7 q 629 159 572 104 q 477 465 477 302 q 531 635 477 566 q 663 705 584 705 q 827 632 753 705 q 940 442 901 560 q 1342 784 1221 703 q 1560 906 1463 865 q 1744 949 1657 946 l 1553 777 q 1211 412 1417 653 q 932 62 1006 171 q 1124 131 1047 68 l 1128 126 q 926 54 1052 63 m 941 433 q 951 353 951 395 q 891 115 951 252 l 897 113 q 1326 610 1076 360 q 1713 935 1575 861 l 1712 940 q 1402 817 1580 928 q 941 433 1225 707 m 634 163 q 791 299 688 204 q 935 437 894 393 q 838 605 907 534 q 687 675 769 675 q 544 612 602 675 q 487 454 487 549 q 634 163 487 296 m 862 68 q 945 353 945 227 q 937 430 945 389 q 640 158 767 262 q 741 102 675 129 q 862 68 806 75 m 1779 1007 q 1742 1013 1769 1007 q 1711 1021 1726 1016 q 1681 1033 1696 1026 q 1651 1049 1665 1041 q 1633 1063 1640 1056 q 1624 1072 1627 1067 q 1619 1081 1622 1076 q 1618 1090 1618 1086 q 1638 1109 1618 1109 q 1645 1109 1641 1109 q 1650 1106 1647 1108 q 1659 1098 1653 1104 l 1674 1080 q 1697 1057 1685 1068 q 1719 1038 1708 1046 q 1743 1024 1729 1031 q 1779 1007 1776 1007 z "},"":{"ha":1082,"x_min":30,"x_max":1797,"o":"m 926 54 l 888 0 l 814 1 l 857 62 q 634 154 732 84 q 242 -13 428 -13 q 96 30 162 -13 q 30 137 30 73 q 50 192 30 172 q 94 212 70 212 q 132 197 117 212 q 148 161 148 182 q 135 130 148 142 q 102 117 121 117 q 57 172 60 117 l 54 173 q 38 130 38 153 q 102 34 38 75 q 251 -7 167 -7 q 462 49 351 -7 q 629 159 572 104 q 477 465 477 302 q 531 635 477 566 q 663 705 584 705 q 827 632 753 705 q 940 442 901 560 q 1342 784 1221 703 q 1560 906 1463 865 q 1744 949 1657 946 l 1553 777 q 1211 412 1417 653 q 932 62 1006 171 q 1124 131 1047 68 l 1128 126 q 926 54 1052 63 m 941 433 q 951 353 951 395 q 891 115 951 252 l 897 113 q 1326 610 1076 360 q 1713 935 1575 861 l 1712 940 q 1402 817 1580 928 q 941 433 1225 707 m 634 163 q 791 299 688 204 q 935 437 894 393 q 838 605 907 534 q 687 675 769 675 q 544 612 602 675 q 487 454 487 549 q 634 163 487 296 m 862 68 q 945 353 945 227 q 937 430 945 389 q 640 158 767 262 q 741 102 675 129 q 862 68 806 75 m 1796 1087 q 1782 1074 1797 1087 q 1771 1065 1776 1069 q 1761 1058 1765 1061 q 1752 1053 1756 1055 q 1742 1050 1747 1051 q 1732 1047 1737 1048 q 1720 1045 1726 1046 q 1709 1044 1714 1044 q 1668 1052 1691 1044 q 1636 1059 1644 1059 q 1600 1042 1623 1059 q 1633 1076 1609 1063 q 1675 1089 1656 1089 q 1716 1082 1689 1089 q 1756 1075 1744 1075 l 1760 1075 q 1765 1076 1762 1076 l 1769 1077 q 1774 1078 1771 1077 q 1780 1080 1777 1079 q 1785 1082 1782 1080 l 1796 1087 z "},"":{"ha":977,"x_min":287,"x_max":1434,"o":"m 1147 819 q 1037 562 1134 669 q 847 455 939 455 q 791 478 810 455 q 772 537 772 501 q 827 694 772 611 q 966 827 883 777 q 1110 876 1050 876 q 1184 847 1151 876 q 1217 768 1217 819 q 1088 457 1217 629 q 763 137 960 284 q 450 -11 566 -11 q 328 43 369 -11 q 287 168 287 97 q 444 504 287 320 q 825 818 600 688 q 1238 947 1050 947 q 1380 911 1326 947 q 1434 816 1434 876 q 1384 723 1434 760 q 1274 685 1335 685 q 1250 686 1265 685 l 1249 691 l 1269 691 q 1379 726 1331 691 q 1427 816 1427 760 q 1374 909 1427 875 q 1241 943 1321 943 q 845 802 1048 943 q 478 443 641 662 q 315 112 315 223 q 356 28 315 61 q 446 -4 396 -4 q 753 134 566 -4 q 1075 448 939 273 q 1211 764 1211 624 q 1181 841 1211 813 q 1111 868 1150 868 q 898 748 1017 868 q 779 533 779 629 q 799 479 779 498 q 846 460 819 460 q 979 515 907 460 q 1095 658 1050 569 q 1143 819 1140 747 l 1147 819 m 1402 1087 q 1388 1074 1402 1087 q 1376 1065 1381 1069 q 1366 1058 1371 1061 q 1357 1053 1362 1055 q 1348 1050 1352 1051 q 1337 1047 1343 1048 q 1325 1045 1331 1046 q 1314 1044 1320 1044 q 1273 1052 1297 1044 q 1241 1059 1249 1059 q 1205 1042 1228 1059 q 1238 1076 1215 1063 q 1280 1089 1261 1089 q 1322 1082 1295 1089 q 1361 1075 1349 1075 l 1365 1075 q 1370 1076 1367 1076 l 1375 1077 q 1379 1078 1377 1077 q 1385 1080 1382 1079 q 1390 1082 1388 1080 l 1402 1087 z "},"":{"ha":1601,"x_min":288,"x_max":1952,"o":"m 1133 551 q 804 169 1029 363 q 434 -25 579 -25 q 327 26 366 -25 q 288 144 288 77 q 345 352 288 240 q 494 562 401 463 q 714 752 587 660 q 967 901 841 845 q 1228 957 1094 957 q 1363 921 1315 957 q 1411 831 1411 886 q 1363 741 1411 778 q 1239 703 1315 704 l 1239 710 q 1356 746 1308 710 q 1403 830 1403 782 q 1354 918 1403 885 q 1223 950 1305 950 q 807 793 1007 950 q 460 428 608 635 q 313 99 313 220 q 350 14 313 47 q 433 -18 386 -18 q 754 138 561 -18 q 1069 464 948 294 q 1190 762 1190 635 q 1163 845 1190 816 q 1094 875 1136 875 q 882 752 991 875 q 772 536 772 629 q 792 483 772 502 q 838 465 812 465 q 1020 587 925 465 q 1117 822 1116 710 l 1123 822 q 1026 584 1123 711 q 840 456 928 456 q 784 479 806 456 q 762 541 762 501 q 876 767 762 652 q 1093 882 989 882 q 1168 850 1139 882 q 1198 761 1198 818 q 1137 557 1198 669 l 1185 554 l 1195 553 q 1310 566 1236 553 q 1439 595 1383 578 q 1434 643 1434 624 q 1594 880 1434 766 q 1877 994 1754 994 q 1932 977 1912 994 q 1952 932 1952 959 q 1840 774 1952 865 q 1453 591 1729 684 q 1483 541 1457 563 q 1525 545 1508 545 q 1577 535 1558 545 q 1596 513 1596 525 q 1571 494 1596 494 q 1478 532 1523 494 q 1277 451 1379 515 q 1116 289 1175 387 q 1057 115 1057 191 q 1095 26 1057 66 q 1201 -14 1134 -14 q 1398 39 1291 -14 q 1569 161 1505 92 q 1632 287 1632 230 q 1609 340 1632 315 q 1546 366 1586 366 q 1352 294 1459 366 q 1140 74 1245 223 l 1136 78 q 1340 294 1229 215 q 1544 372 1451 372 q 1614 348 1586 372 q 1642 287 1642 323 q 1482 77 1642 176 q 1202 -22 1322 -22 q 1074 36 1120 -22 q 1027 163 1027 94 q 1133 384 1027 281 q 1473 539 1240 486 q 1440 588 1459 553 q 1192 547 1301 547 q 1133 551 1172 547 m 1455 600 q 1751 725 1653 664 q 1894 843 1849 785 q 1940 937 1940 901 q 1921 974 1940 959 q 1875 988 1902 988 q 1709 935 1802 988 q 1534 771 1616 882 q 1455 600 1453 660 m 1487 534 q 1523 513 1496 525 q 1570 500 1550 500 q 1588 512 1588 500 q 1571 529 1588 521 q 1522 537 1554 537 q 1487 534 1506 537 z "},"":{"ha":507,"x_min":9,"x_max":553,"o":"m 337 182 l 381 210 q 517 261 463 261 q 539 254 530 261 q 547 239 547 248 q 455 158 547 203 q 334 113 363 113 l 288 56 q 270 21 270 34 q 280 0 270 8 q 304 -7 291 -7 q 549 131 388 -7 l 553 126 q 394 12 454 39 q 300 -16 334 -16 q 261 0 277 -16 q 245 37 245 15 q 258 100 245 52 q 152 17 203 47 q 65 -14 100 -14 q 9 45 9 -14 q 54 142 9 94 q 179 225 99 190 q 306 261 260 261 q 338 250 325 261 q 351 222 351 239 l 351 218 q 351 215 351 217 q 350 211 351 213 l 347 202 q 345 196 346 199 l 337 182 m 343 222 q 332 245 343 237 q 307 254 321 254 q 139 155 247 254 q 31 22 31 56 q 64 -6 31 -6 q 237 89 131 -6 q 343 222 343 184 m 347 124 q 458 167 377 124 q 538 241 538 210 q 524 252 538 252 q 434 203 494 252 q 347 124 374 155 z "},"":{"ha":555,"x_min":137,"x_max":425,"o":"m 137 140 l 143 147 l 425 147 l 420 140 l 137 140 z "},"":{"ha":429,"x_min":21,"x_max":452,"o":"m 21 140 l 31 147 l 452 147 l 446 140 l 21 140 z "},"":{"ha":311,"x_min":597,"x_max":804,"o":"m 709 937 q 664 878 699 930 q 620 833 635 833 q 597 857 597 833 q 709 937 597 902 m 804 937 q 759 878 793 930 q 715 833 730 833 q 692 857 692 833 q 804 937 692 902 z "},"":{"ha":311,"x_min":581,"x_max":787,"o":"m 787 913 q 675 833 787 869 q 720 892 686 841 q 764 937 750 937 q 787 913 787 937 m 692 913 q 581 833 692 869 q 625 892 591 841 q 669 937 655 937 q 692 913 692 937 z "},"":{"ha":214,"x_min":597,"x_max":709,"o":"m 709 937 q 664 878 699 930 q 620 833 635 833 q 597 857 597 833 q 709 937 597 902 z "},"":{"ha":214,"x_min":581,"x_max":693,"o":"m 693 913 q 581 833 693 869 q 625 892 591 841 q 670 937 655 937 q 693 913 693 937 z "},"":{"ha":555,"x_min":187,"x_max":516,"o":"m 496 330 q 482 300 496 313 q 451 288 468 288 q 431 296 439 288 q 422 317 422 304 q 437 346 422 332 q 468 359 451 359 q 488 351 479 359 q 496 330 496 342 m 187 208 l 201 222 l 516 222 l 501 208 l 187 208 m 302 126 q 288 97 302 109 q 256 84 273 84 q 237 93 245 84 q 229 113 229 101 q 242 142 229 129 q 273 156 256 156 q 294 147 285 156 q 302 126 302 138 z "},"":{"ha":926,"x_min":102,"x_max":824,"o":"m 463 962 l 824 463 l 463 -36 l 102 463 l 463 962 m 463 839 l 189 463 l 463 87 l 736 463 l 463 839 z "},"":{"ha":511,"x_min":-163,"x_max":558,"o":"m 46 126 l 41 131 l 105 184 q 183 238 138 212 q 254 264 228 264 q 279 254 269 264 q 288 229 288 243 q 268 175 288 201 q 153 66 248 149 q 117 18 117 34 q 137 0 117 0 q 215 32 165 0 q 391 176 264 63 l 456 235 q 481 264 463 241 l 547 264 l 259 -39 q 553 131 401 -3 l 558 126 q 245 -51 389 -19 l 173 -126 q 25 -256 111 -191 q -122 -320 -60 -320 q -163 -292 -163 -320 q -73 -187 -163 -251 q 176 -73 18 -123 l 452 215 l 448 218 q 397 172 429 202 l 334 115 q 257 54 311 94 q 177 3 203 14 q 132 -8 151 -8 q 107 1 119 -8 q 94 28 94 9 q 163 140 94 82 q 249 217 233 199 q 265 245 265 235 q 249 257 265 257 q 191 235 231 257 q 96 168 151 212 l 46 126 m 163 -90 q -53 -184 48 -116 q -155 -292 -155 -252 q -122 -313 -155 -313 q -33 -283 -77 -313 q 105 -153 11 -254 l 163 -90 m 419 370 q 407 345 419 355 q 382 334 395 334 q 366 341 372 334 q 359 359 359 349 q 370 383 359 372 q 395 395 382 395 q 412 387 406 395 q 419 370 419 380 m 523 370 q 511 345 523 355 q 485 334 498 334 q 469 341 475 334 q 462 359 462 349 q 473 383 462 372 q 499 395 485 395 q 516 387 509 395 q 523 370 523 380 z "},"":{"ha":955,"x_min":302,"x_max":1476,"o":"m 1476 781 l 1233 548 l 1023 332 l 918 217 q 701 54 824 115 q 453 -7 578 -7 q 343 21 383 -7 q 302 102 302 50 q 323 166 302 139 q 372 193 344 193 q 402 184 390 193 q 415 158 415 174 q 404 131 415 142 q 376 119 392 119 q 343 149 348 119 l 339 149 q 319 135 326 149 q 311 102 311 121 q 350 26 311 52 q 450 -1 388 -1 q 613 32 534 -1 q 760 124 692 64 q 954 321 829 184 l 1092 470 l 1088 474 q 666 218 804 218 q 598 238 619 218 q 576 287 576 258 q 604 373 576 327 q 655 443 631 418 q 766 535 679 468 q 904 651 852 602 q 975 734 956 701 q 994 803 994 767 q 950 889 994 858 q 840 921 907 921 q 620 873 734 921 q 447 762 505 825 q 389 644 389 699 q 417 591 389 611 q 497 571 446 571 q 714 632 594 571 q 929 809 835 694 l 932 806 q 728 618 829 674 q 509 562 626 562 q 411 585 441 562 q 380 644 380 608 q 449 774 380 708 q 632 884 517 840 q 841 928 746 928 q 958 892 907 928 q 1008 783 1008 857 q 986 696 1008 747 q 925 605 965 646 q 810 506 884 565 q 675 393 736 446 q 601 320 614 340 q 587 277 587 300 q 609 239 587 254 q 664 225 631 225 q 815 275 728 225 q 1040 441 903 325 l 1155 538 q 1236 613 1183 561 l 1407 781 l 1476 781 m 1363 1070 q 1351 1045 1363 1056 q 1326 1035 1339 1035 q 1310 1042 1316 1035 q 1303 1059 1303 1049 q 1314 1084 1303 1072 q 1339 1095 1326 1095 q 1356 1088 1350 1095 q 1363 1070 1363 1080 m 1467 1070 q 1455 1045 1467 1056 q 1429 1035 1442 1035 q 1413 1042 1419 1035 q 1406 1059 1406 1049 q 1417 1084 1406 1072 q 1443 1095 1429 1095 q 1460 1088 1453 1095 q 1467 1070 1467 1080 z "},"":{"ha":178,"x_min":-70,"x_max":414,"o":"m -70 -1 l 411 451 l 414 446 l -66 -5 l -70 -1 z "},"":{"ha":477,"x_min":109,"x_max":703,"o":"m 703 421 q 675 348 703 377 q 605 318 648 318 q 548 336 574 318 q 519 387 519 357 q 530 423 519 405 l 533 422 q 526 392 526 405 q 551 343 526 363 q 604 325 574 325 q 670 352 645 325 q 696 420 696 380 q 655 499 696 468 q 568 527 618 527 q 406 452 488 527 q 287 312 360 410 l 438 312 l 437 305 l 282 305 q 227 239 266 283 l 375 239 l 374 232 l 222 232 q 187 184 204 208 q 162 104 162 144 q 200 28 162 60 q 311 -2 235 -2 q 477 49 408 -2 l 484 45 q 313 -9 413 -9 q 185 26 226 -9 q 141 132 141 65 q 163 232 141 186 l 109 232 l 110 239 l 168 239 q 210 305 169 242 l 162 305 l 163 312 l 217 312 q 563 532 382 532 q 658 505 618 532 q 703 421 703 474 z "},"":{"ha":392,"x_min":120,"x_max":345,"o":"m 174 155 q 241 -6 233 34 l 237 -7 q 120 168 186 104 q 340 324 247 229 l 345 321 q 174 155 265 222 z "},"":{"ha":392,"x_min":109,"x_max":334,"o":"m 280 162 q 212 323 222 282 l 217 324 q 334 149 269 212 q 114 -7 207 88 l 109 -4 q 280 162 189 95 z "},"":{"ha":502,"x_min":-302,"x_max":878,"o":"m 481 264 l 548 264 l 523 237 l 363 81 q 319 23 319 37 q 327 7 319 14 q 342 1 334 1 q 408 25 366 1 q 543 131 449 50 l 548 126 q 410 20 454 45 q 340 -6 366 -6 q 315 5 324 -6 q 305 33 305 16 q 321 86 305 58 q 453 226 337 115 l 451 229 q 353 153 414 203 q 270 90 292 102 q 221 77 248 77 q 160 98 186 77 l -235 -325 l -302 -326 l -100 -113 q 130 189 28 22 q 79 155 94 166 l 46 126 l 41 131 q 133 200 73 159 q 164 257 146 236 q 191 279 181 279 q 199 269 199 279 q 178 230 199 262 l 299 307 q 393 396 315 317 q 541 539 471 476 q 688 660 611 602 q 796 730 765 718 q 843 742 827 742 q 867 732 857 742 q 878 710 878 723 q 825 613 878 677 q 630 462 771 550 q 377 336 490 374 l 166 105 q 222 85 189 85 q 269 97 250 85 q 336 146 289 108 l 391 191 q 481 264 420 214 m 869 711 q 860 727 869 720 q 841 734 852 734 q 783 715 821 734 q 682 644 745 697 q 504 471 618 591 q 389 347 389 351 q 459 377 389 345 q 596 449 528 410 q 727 538 665 489 q 819 623 789 587 q 859 681 848 659 q 869 711 869 703 m 140 194 q 132 163 132 176 q 140 135 132 151 l 284 285 l 282 288 l 140 194 m 133 128 q 123 163 125 147 q 14 7 94 109 l 18 5 l 133 128 m 654 397 q 643 372 654 382 q 617 362 631 362 q 594 387 594 362 q 606 411 594 399 q 631 422 617 422 q 648 415 641 422 q 654 397 654 408 z "},"":{"ha":567,"x_min":-302,"x_max":1127,"o":"m -235 -325 l -302 -326 l -100 -113 q 130 189 23 16 q 79 155 94 166 l 46 126 l 41 131 q 133 200 77 163 q 164 257 146 235 q 191 279 181 279 q 199 269 199 279 q 193 253 199 262 l 178 230 l 299 307 q 341 345 311 315 q 546 544 477 481 q 689 661 615 606 q 794 729 764 717 q 842 742 824 742 q 868 733 857 742 q 878 713 878 725 q 817 605 878 672 q 617 454 755 538 q 377 336 479 370 l 166 105 q 222 85 189 85 q 297 115 262 85 q 394 195 332 144 l 443 236 q 515 292 503 286 q 553 315 551 313 l 618 384 q 817 574 697 469 q 994 710 937 680 q 1084 741 1050 741 q 1114 730 1101 741 q 1127 705 1127 719 q 1122 684 1127 695 q 1091 640 1113 665 q 999 553 1052 595 q 874 465 943 509 q 724 377 798 416 l 626 334 l 516 213 l 448 131 q 382 47 393 65 q 372 18 372 30 q 379 1 372 7 q 397 -5 387 -5 q 608 131 452 -5 l 613 126 l 560 81 q 393 -14 447 -14 q 363 -1 375 -14 q 351 31 351 12 q 425 171 351 79 q 528 286 498 262 l 528 290 q 474 252 507 280 l 332 135 q 271 90 294 102 q 221 77 248 77 q 160 98 186 77 l -235 -325 m 869 713 q 861 728 869 722 q 841 734 852 734 q 783 715 821 734 q 688 649 745 696 q 510 477 631 602 q 389 347 389 352 q 503 399 389 344 q 707 523 616 454 q 833 641 798 591 q 869 713 869 690 m 638 347 q 818 438 690 363 q 1031 590 946 513 q 1117 705 1117 668 q 1107 725 1117 716 q 1082 733 1097 733 q 980 692 1038 733 q 801 527 921 652 q 638 347 680 402 m 140 194 q 132 163 132 176 q 140 135 132 151 l 284 285 l 282 288 l 140 194 m 133 128 q 123 163 125 147 q 14 7 94 109 l 18 5 l 133 128 z "},"":{"ha":509,"x_min":-16,"x_max":750,"o":"m 212 51 q 304 63 258 52 q 361 75 349 75 q 386 62 386 75 q 365 31 386 48 q 317 13 344 13 q 272 24 304 13 q 203 35 239 35 q 195 34 201 35 q 104 -69 146 -16 q 37 -136 61 -122 q -1 -151 13 -151 q -16 -140 -16 -151 q 1 -110 -16 -128 q 75 -50 18 -92 q 178 35 132 -8 q 96 24 140 35 q 35 12 51 12 q 9 24 9 12 q 30 55 9 38 q 77 72 50 72 q 125 61 86 72 q 194 51 165 51 q 349 224 302 155 q 359 233 353 229 q 534 380 444 293 q 441 366 487 377 q 386 355 396 355 q 360 368 360 355 q 381 399 360 382 q 430 417 403 417 q 473 407 441 417 q 543 396 505 396 l 551 396 q 632 489 592 438 q 697 555 673 540 q 735 570 721 570 q 750 559 750 570 q 732 528 750 547 q 662 472 715 510 q 568 395 610 434 q 650 406 605 395 q 711 418 695 418 q 737 406 737 418 q 718 375 737 392 q 669 358 698 358 q 622 369 660 358 q 552 379 583 379 q 450 269 481 310 l 422 229 l 407 218 q 212 51 335 166 z "},"":{"ha":271,"x_min":210,"x_max":284,"o":"m 284 237 q 270 208 284 220 q 239 195 255 195 q 218 203 227 195 q 210 224 210 212 q 224 253 210 239 q 255 267 238 267 q 276 258 267 267 q 284 237 284 250 z "},"":{"ha":164,"x_min":40,"x_max":152,"o":"m 40 -18 q 59 -1 45 -16 q 90 38 73 13 l 102 62 q 122 84 111 79 q 128 85 125 85 q 152 61 152 85 q 151 54 152 57 q 141 37 149 44 q 129 26 136 31 q 87 -1 118 16 q 66 -10 81 -4 q 40 -18 44 -18 z "},"":{"ha":267,"x_min":39,"x_max":248,"o":"m 39 -35 q 58 -18 43 -32 q 88 21 78 2 l 100 44 q 115 64 104 52 q 121 67 117 66 q 127 68 124 68 q 151 45 151 68 q 151 37 151 41 q 128 10 146 26 q 86 -17 113 -2 q 66 -26 73 -24 q 39 -35 43 -35 m 136 -35 q 155 -18 140 -32 q 185 21 175 2 l 197 44 q 212 64 201 52 q 218 67 214 66 q 224 68 221 68 q 248 45 248 68 q 248 37 248 41 q 225 10 243 26 q 183 -17 210 -2 q 163 -26 170 -24 q 136 -35 140 -35 z "},"":{"ha":1007,"x_min":173,"x_max":1045,"o":"m 173 231 q 288 385 173 308 q 453 462 404 462 q 498 421 498 462 q 389 274 498 370 q 219 178 280 178 q 173 231 173 178 m 484 422 q 456 448 484 448 q 354 392 420 448 q 241 288 288 336 q 194 212 194 240 q 220 191 194 191 q 379 283 275 191 q 484 422 484 375 m 215 -1 l 695 451 l 699 446 l 218 -5 l 215 -1 m 719 45 q 834 199 719 122 q 1000 277 950 277 q 1045 236 1045 277 q 936 89 1045 186 q 765 -8 827 -8 q 719 45 719 -8 m 1029 237 q 1002 263 1029 263 q 849 163 958 263 q 740 26 740 62 q 766 6 740 6 q 924 97 819 6 q 1029 237 1029 188 m 441 45 q 557 200 441 123 q 722 277 672 277 q 767 236 767 277 q 658 89 767 186 q 488 -8 549 -8 q 441 45 441 -8 m 752 237 q 724 263 752 263 q 670 242 705 263 q 570 162 635 222 q 484 73 505 102 q 463 26 463 45 q 489 6 463 6 q 560 33 520 6 q 644 95 600 60 q 720 172 688 130 q 752 237 752 214 z "},"":{"ha":1082,"x_min":30,"x_max":1797,"o":"m 926 54 l 888 0 l 814 1 l 857 62 q 634 154 732 84 q 242 -13 428 -13 q 96 30 162 -13 q 30 137 30 73 q 50 192 30 172 q 94 212 70 212 q 132 197 117 212 q 148 161 148 182 q 135 130 148 142 q 102 117 121 117 q 57 172 60 117 l 54 173 q 38 130 38 153 q 102 34 38 75 q 251 -7 167 -7 q 462 49 351 -7 q 629 159 572 104 q 477 465 477 302 q 531 635 477 566 q 663 705 584 705 q 827 632 753 705 q 940 442 901 560 q 1342 784 1221 703 q 1560 906 1463 865 q 1744 949 1657 946 l 1553 777 q 1211 412 1417 653 q 932 62 1006 171 q 1124 131 1047 68 l 1128 126 q 926 54 1052 63 m 941 433 q 951 353 951 395 q 891 115 951 252 l 897 113 q 1326 610 1076 360 q 1713 935 1575 861 l 1712 940 q 1402 817 1580 928 q 941 433 1225 707 m 634 163 q 791 299 688 204 q 935 437 894 393 q 838 605 907 534 q 687 675 769 675 q 544 612 602 675 q 487 454 487 549 q 634 163 487 296 m 862 68 q 945 353 945 227 q 937 430 945 389 q 640 158 767 262 q 741 102 675 129 q 862 68 806 75 m 1727 1101 l 1797 1101 q 1757 1056 1763 1066 q 1750 1035 1750 1045 q 1762 1013 1750 1024 l 1756 1007 q 1720 1048 1725 1021 q 1603 1007 1660 1012 l 1600 1013 q 1727 1101 1676 1047 z "},"":{"ha":967,"x_min":353,"x_max":1397,"o":"m 832 593 q 851 540 833 557 l 868 541 q 947 529 920 541 q 973 504 973 518 q 964 489 973 495 q 944 483 955 483 q 848 533 893 483 q 516 360 646 505 q 387 112 387 215 q 431 30 387 64 q 551 -5 474 -5 q 843 84 695 -5 q 991 278 991 173 q 967 336 991 313 q 901 359 943 359 q 668 278 795 359 q 469 91 541 198 l 465 94 q 664 282 537 200 q 898 363 791 363 q 974 337 946 363 q 1001 277 1001 311 q 848 79 1001 169 q 554 -10 695 -10 q 402 44 452 -10 q 353 166 353 98 q 466 390 353 287 q 844 539 579 492 q 814 589 825 559 q 632 566 703 566 q 461 615 522 566 q 401 725 401 664 q 542 924 401 846 q 865 1001 682 1001 l 865 996 q 543 907 669 996 q 418 714 418 819 q 475 616 418 659 q 641 572 532 572 q 814 595 710 572 q 806 640 806 619 q 868 784 806 712 q 1057 918 930 855 q 1267 981 1184 981 q 1334 963 1308 981 q 1360 913 1360 945 q 1217 745 1360 840 q 832 593 1074 649 m 833 599 q 1217 751 1080 659 q 1353 917 1353 843 q 1330 959 1353 943 q 1269 975 1307 975 q 1003 845 1156 975 q 833 599 850 715 m 856 534 q 944 488 899 488 q 966 503 966 488 q 936 527 966 519 q 880 535 907 535 q 856 534 872 535 m 1327 1119 l 1397 1119 q 1357 1074 1363 1084 q 1350 1053 1350 1063 q 1362 1031 1350 1042 l 1356 1025 q 1320 1066 1324 1039 q 1203 1025 1260 1030 l 1200 1031 q 1327 1119 1276 1065 z "},"":{"ha":1082,"x_min":30,"x_max":1797,"o":"m 926 54 l 888 0 l 814 1 l 857 62 q 634 154 732 84 q 242 -13 428 -13 q 96 30 162 -13 q 30 137 30 73 q 50 192 30 172 q 94 212 70 212 q 132 197 117 212 q 148 161 148 182 q 135 130 148 142 q 102 117 121 117 q 57 172 60 117 l 54 173 q 38 130 38 153 q 102 34 38 75 q 251 -7 167 -7 q 462 49 351 -7 q 629 159 572 104 q 477 465 477 302 q 531 635 477 566 q 663 705 584 705 q 827 632 753 705 q 940 442 901 560 q 1342 784 1221 703 q 1560 906 1463 865 q 1744 949 1657 946 l 1553 777 q 1211 412 1417 653 q 932 62 1006 171 q 1124 131 1047 68 l 1128 126 q 926 54 1052 63 m 941 433 q 951 353 951 395 q 891 115 951 252 l 897 113 q 1326 610 1076 360 q 1713 935 1575 861 l 1712 940 q 1402 817 1580 928 q 941 433 1225 707 m 634 163 q 791 299 688 204 q 935 437 894 393 q 838 605 907 534 q 687 675 769 675 q 544 612 602 675 q 487 454 487 549 q 634 163 487 296 m 862 68 q 945 353 945 227 q 937 430 945 389 q 640 158 767 262 q 741 102 675 129 q 862 68 806 75 m 1636 1007 q 1671 1023 1640 1007 q 1695 1038 1685 1031 q 1718 1057 1706 1046 q 1741 1080 1731 1069 l 1756 1099 q 1765 1107 1762 1105 q 1771 1109 1768 1109 q 1777 1110 1773 1110 q 1797 1090 1797 1110 q 1796 1082 1797 1086 q 1792 1072 1794 1076 q 1784 1063 1788 1068 q 1766 1050 1777 1057 q 1735 1034 1752 1042 q 1706 1021 1721 1027 q 1676 1013 1690 1016 q 1636 1007 1645 1007 z "},"":{"ha":967,"x_min":353,"x_max":1399,"o":"m 832 593 q 851 540 833 557 l 868 541 q 947 529 920 541 q 973 504 973 518 q 964 489 973 495 q 944 483 955 483 q 848 533 893 483 q 516 360 646 505 q 387 112 387 215 q 431 30 387 64 q 551 -5 474 -5 q 843 84 695 -5 q 991 278 991 173 q 967 336 991 313 q 901 359 943 359 q 668 278 795 359 q 469 91 541 198 l 465 94 q 664 282 537 200 q 898 363 791 363 q 974 337 946 363 q 1001 277 1001 311 q 848 79 1001 169 q 554 -10 695 -10 q 402 44 452 -10 q 353 166 353 98 q 466 390 353 287 q 844 539 579 492 q 814 589 825 559 q 632 566 703 566 q 461 615 522 566 q 401 725 401 664 q 542 924 401 846 q 865 1001 682 1001 l 865 996 q 543 907 669 996 q 418 714 418 819 q 475 616 418 659 q 641 572 532 572 q 814 595 710 572 q 806 640 806 619 q 868 784 806 712 q 1057 918 930 855 q 1267 981 1184 981 q 1334 963 1308 981 q 1360 913 1360 945 q 1217 745 1360 840 q 832 593 1074 649 m 833 599 q 1217 751 1080 659 q 1353 917 1353 843 q 1330 959 1353 943 q 1269 975 1307 975 q 1003 845 1156 975 q 833 599 850 715 m 856 534 q 944 488 899 488 q 966 503 966 488 q 936 527 966 519 q 880 535 907 535 q 856 534 872 535 m 1295 1089 q 1283 1064 1295 1075 q 1258 1054 1272 1054 q 1242 1061 1249 1054 q 1235 1078 1235 1068 q 1246 1103 1235 1091 q 1272 1114 1258 1114 q 1289 1107 1282 1114 q 1295 1089 1295 1099 m 1399 1089 q 1387 1064 1399 1075 q 1361 1054 1375 1054 q 1345 1061 1352 1054 q 1338 1078 1338 1068 q 1350 1103 1338 1091 q 1375 1114 1361 1114 q 1392 1107 1385 1114 q 1399 1089 1399 1099 z "},"":{"ha":967,"x_min":353,"x_max":1379,"o":"m 832 593 q 851 540 833 557 l 868 541 q 947 529 920 541 q 973 504 973 518 q 964 489 973 495 q 944 483 955 483 q 848 533 893 483 q 516 360 646 505 q 387 112 387 215 q 431 30 387 64 q 551 -5 474 -5 q 843 84 695 -5 q 991 278 991 173 q 967 336 991 313 q 901 359 943 359 q 668 278 795 359 q 469 91 541 198 l 465 94 q 664 282 537 200 q 898 363 791 363 q 974 337 946 363 q 1001 277 1001 311 q 848 79 1001 169 q 554 -10 695 -10 q 402 44 452 -10 q 353 166 353 98 q 466 390 353 287 q 844 539 579 492 q 814 589 825 559 q 632 566 703 566 q 461 615 522 566 q 401 725 401 664 q 542 924 401 846 q 865 1001 682 1001 l 865 996 q 543 907 669 996 q 418 714 418 819 q 475 616 418 659 q 641 572 532 572 q 814 595 710 572 q 806 640 806 619 q 868 784 806 712 q 1057 918 930 855 q 1267 981 1184 981 q 1334 963 1308 981 q 1360 913 1360 945 q 1217 745 1360 840 q 832 593 1074 649 m 833 599 q 1217 751 1080 659 q 1353 917 1353 843 q 1330 959 1353 943 q 1269 975 1307 975 q 1003 845 1156 975 q 833 599 850 715 m 856 534 q 944 488 899 488 q 966 503 966 488 q 936 527 966 519 q 880 535 907 535 q 856 534 872 535 m 1379 1026 q 1342 1031 1369 1026 q 1311 1040 1326 1035 q 1280 1052 1296 1045 q 1251 1068 1265 1060 q 1233 1082 1240 1075 q 1224 1091 1227 1086 q 1219 1100 1221 1095 q 1218 1109 1218 1105 q 1238 1128 1218 1128 q 1244 1128 1241 1128 q 1250 1125 1247 1127 q 1259 1117 1253 1123 l 1274 1099 q 1297 1076 1284 1087 q 1319 1057 1308 1065 q 1343 1043 1329 1050 q 1379 1026 1376 1026 z "},"":{"ha":772,"x_min":25,"x_max":1497,"o":"m 897 446 q 557 82 735 172 q 235 -8 379 -8 q 83 25 140 -8 q 25 115 25 59 q 41 161 25 142 q 81 180 56 180 q 115 166 101 180 q 130 136 130 153 q 116 105 130 119 q 85 92 103 92 q 52 108 66 92 q 46 87 46 94 q 95 29 46 58 q 232 0 143 0 q 519 92 381 0 q 827 447 657 184 q 748 487 780 451 q 717 571 717 522 q 799 741 717 654 q 1055 883 882 829 q 1387 937 1229 937 q 1497 929 1440 937 l 1497 925 q 1193 808 1328 908 q 902 454 1059 708 q 1088 533 999 458 q 1217 694 1177 608 l 1223 692 q 1087 522 1176 592 q 897 446 999 451 m 831 455 q 983 647 926 584 q 1126 775 1039 710 q 1290 874 1213 840 q 1464 927 1367 909 q 1394 931 1426 931 q 1063 874 1221 931 q 817 726 905 817 q 728 557 728 635 q 761 485 728 516 q 823 454 793 454 q 831 455 825 454 m 1306 1007 q 1341 1023 1310 1007 q 1364 1038 1354 1031 q 1388 1057 1376 1046 q 1411 1080 1401 1069 l 1426 1099 q 1435 1107 1432 1105 q 1440 1109 1438 1109 q 1447 1110 1443 1110 q 1467 1090 1467 1110 q 1466 1082 1467 1086 q 1461 1072 1464 1076 q 1453 1063 1458 1068 q 1436 1050 1447 1057 q 1405 1034 1421 1042 q 1375 1021 1390 1027 q 1346 1013 1360 1016 q 1306 1007 1315 1007 z "},"":{"ha":772,"x_min":25,"x_max":1497,"o":"m 897 446 q 557 82 735 172 q 235 -8 379 -8 q 83 25 140 -8 q 25 115 25 59 q 41 161 25 142 q 81 180 56 180 q 115 166 101 180 q 130 136 130 153 q 116 105 130 119 q 85 92 103 92 q 52 108 66 92 q 46 87 46 94 q 95 29 46 58 q 232 0 143 0 q 519 92 381 0 q 827 447 657 184 q 748 487 780 451 q 717 571 717 522 q 799 741 717 654 q 1055 883 882 829 q 1387 937 1229 937 q 1497 929 1440 937 l 1497 925 q 1193 808 1328 908 q 902 454 1059 708 q 1088 533 999 458 q 1217 694 1177 608 l 1223 692 q 1087 522 1176 592 q 897 446 999 451 m 831 455 q 983 647 926 584 q 1126 775 1039 710 q 1290 874 1213 840 q 1464 927 1367 909 q 1394 931 1426 931 q 1063 874 1221 931 q 817 726 905 817 q 728 557 728 635 q 761 485 728 516 q 823 454 793 454 q 831 455 825 454 m 1369 1101 l 1438 1101 q 1398 1056 1404 1066 q 1392 1035 1392 1045 q 1403 1013 1392 1024 l 1398 1007 q 1361 1048 1366 1021 q 1244 1007 1301 1012 l 1241 1013 q 1369 1101 1318 1047 z "},"":{"ha":772,"x_min":25,"x_max":1497,"o":"m 897 446 q 557 82 735 172 q 235 -8 379 -8 q 83 25 140 -8 q 25 115 25 59 q 41 161 25 142 q 81 180 56 180 q 115 166 101 180 q 130 136 130 153 q 116 105 130 119 q 85 92 103 92 q 52 108 66 92 q 46 87 46 94 q 95 29 46 58 q 232 0 143 0 q 519 92 381 0 q 827 447 657 184 q 748 487 780 451 q 717 571 717 522 q 799 741 717 654 q 1055 883 882 829 q 1387 937 1229 937 q 1497 929 1440 937 l 1497 925 q 1193 808 1328 908 q 902 454 1059 708 q 1088 533 999 458 q 1217 694 1177 608 l 1223 692 q 1087 522 1176 592 q 897 446 999 451 m 831 455 q 983 647 926 584 q 1126 775 1039 710 q 1290 874 1213 840 q 1464 927 1367 909 q 1394 931 1426 931 q 1063 874 1221 931 q 817 726 905 817 q 728 557 728 635 q 761 485 728 516 q 823 454 793 454 q 831 455 825 454 m 1314 1070 q 1302 1045 1314 1056 q 1276 1035 1290 1035 q 1260 1042 1267 1035 q 1253 1059 1253 1049 q 1265 1084 1253 1072 q 1290 1095 1276 1095 q 1307 1088 1300 1095 q 1314 1070 1314 1080 m 1417 1070 q 1405 1045 1417 1056 q 1379 1035 1393 1035 q 1363 1042 1370 1035 q 1356 1059 1356 1049 q 1368 1084 1356 1072 q 1394 1095 1379 1095 q 1411 1088 1404 1095 q 1417 1070 1417 1080 z "},"":{"ha":772,"x_min":25,"x_max":1497,"o":"m 897 446 q 557 82 735 172 q 235 -8 379 -8 q 83 25 140 -8 q 25 115 25 59 q 41 161 25 142 q 81 180 56 180 q 115 166 101 180 q 130 136 130 153 q 116 105 130 119 q 85 92 103 92 q 52 108 66 92 q 46 87 46 94 q 95 29 46 58 q 232 0 143 0 q 519 92 381 0 q 827 447 657 184 q 748 487 780 451 q 717 571 717 522 q 799 741 717 654 q 1055 883 882 829 q 1387 937 1229 937 q 1497 929 1440 937 l 1497 925 q 1193 808 1328 908 q 902 454 1059 708 q 1088 533 999 458 q 1217 694 1177 608 l 1223 692 q 1087 522 1176 592 q 897 446 999 451 m 831 455 q 983 647 926 584 q 1126 775 1039 710 q 1290 874 1213 840 q 1464 927 1367 909 q 1394 931 1426 931 q 1063 874 1221 931 q 817 726 905 817 q 728 557 728 635 q 761 485 728 516 q 823 454 793 454 q 831 455 825 454 m 1467 1007 q 1430 1013 1457 1007 q 1399 1021 1414 1016 q 1369 1033 1384 1026 q 1339 1049 1353 1041 q 1321 1063 1329 1056 q 1312 1072 1315 1067 q 1308 1081 1310 1076 q 1306 1090 1306 1086 q 1326 1109 1306 1109 q 1333 1109 1329 1109 q 1338 1106 1335 1108 q 1347 1098 1341 1104 l 1362 1080 q 1385 1057 1373 1068 q 1407 1038 1396 1046 q 1431 1024 1417 1031 q 1467 1007 1464 1007 z "},"":{"ha":977,"x_min":287,"x_max":1434,"o":"m 1147 819 q 1037 562 1134 669 q 847 455 939 455 q 791 478 810 455 q 772 537 772 501 q 827 694 772 611 q 966 827 883 777 q 1110 876 1050 876 q 1184 847 1151 876 q 1217 768 1217 819 q 1088 457 1217 629 q 763 137 960 284 q 450 -11 566 -11 q 328 43 369 -11 q 287 168 287 97 q 444 504 287 320 q 825 818 600 688 q 1238 947 1050 947 q 1380 911 1326 947 q 1434 816 1434 876 q 1384 723 1434 760 q 1274 685 1335 685 q 1250 686 1265 685 l 1249 691 l 1269 691 q 1379 726 1331 691 q 1427 816 1427 760 q 1374 909 1427 875 q 1241 943 1321 943 q 845 802 1048 943 q 478 443 641 662 q 315 112 315 223 q 356 28 315 61 q 446 -4 396 -4 q 753 134 566 -4 q 1075 448 939 273 q 1211 764 1211 624 q 1181 841 1211 813 q 1111 868 1150 868 q 898 748 1017 868 q 779 533 779 629 q 799 479 779 498 q 846 460 819 460 q 979 515 907 460 q 1095 658 1050 569 q 1143 819 1140 747 l 1147 819 m 1242 1007 q 1276 1023 1245 1007 q 1300 1038 1290 1031 q 1323 1057 1312 1046 q 1346 1080 1337 1069 l 1362 1099 q 1371 1107 1367 1105 q 1376 1109 1373 1109 q 1382 1110 1379 1110 q 1402 1090 1402 1110 q 1401 1082 1402 1086 q 1397 1072 1400 1076 q 1389 1063 1394 1068 q 1371 1050 1382 1057 q 1341 1034 1357 1042 q 1311 1021 1326 1027 q 1282 1013 1295 1016 q 1242 1007 1251 1007 z "},"":{"ha":977,"x_min":287,"x_max":1434,"o":"m 1147 819 q 1037 562 1134 669 q 847 455 939 455 q 791 478 810 455 q 772 537 772 501 q 827 694 772 611 q 966 827 883 777 q 1110 876 1050 876 q 1184 847 1151 876 q 1217 768 1217 819 q 1088 457 1217 629 q 763 137 960 284 q 450 -11 566 -11 q 328 43 369 -11 q 287 168 287 97 q 444 504 287 320 q 825 818 600 688 q 1238 947 1050 947 q 1380 911 1326 947 q 1434 816 1434 876 q 1384 723 1434 760 q 1274 685 1335 685 q 1250 686 1265 685 l 1249 691 l 1269 691 q 1379 726 1331 691 q 1427 816 1427 760 q 1374 909 1427 875 q 1241 943 1321 943 q 845 802 1048 943 q 478 443 641 662 q 315 112 315 223 q 356 28 315 61 q 446 -4 396 -4 q 753 134 566 -4 q 1075 448 939 273 q 1211 764 1211 624 q 1181 841 1211 813 q 1111 868 1150 868 q 898 748 1017 868 q 779 533 779 629 q 799 479 779 498 q 846 460 819 460 q 979 515 907 460 q 1095 658 1050 569 q 1143 819 1140 747 l 1147 819 m 1286 1101 l 1356 1101 q 1315 1056 1322 1066 q 1309 1035 1309 1045 q 1320 1013 1309 1024 l 1315 1007 q 1278 1048 1283 1021 q 1162 1007 1219 1012 l 1158 1013 q 1286 1101 1235 1047 z "},"":{"ha":977,"x_min":287,"x_max":1434,"o":"m 1147 819 q 1037 562 1134 669 q 847 455 939 455 q 791 478 810 455 q 772 537 772 501 q 827 694 772 611 q 966 827 883 777 q 1110 876 1050 876 q 1184 847 1151 876 q 1217 768 1217 819 q 1088 457 1217 629 q 763 137 960 284 q 450 -11 566 -11 q 328 43 369 -11 q 287 168 287 97 q 444 504 287 320 q 825 818 600 688 q 1238 947 1050 947 q 1380 911 1326 947 q 1434 816 1434 876 q 1384 723 1434 760 q 1274 685 1335 685 q 1250 686 1265 685 l 1249 691 l 1269 691 q 1379 726 1331 691 q 1427 816 1427 760 q 1374 909 1427 875 q 1241 943 1321 943 q 845 802 1048 943 q 478 443 641 662 q 315 112 315 223 q 356 28 315 61 q 446 -4 396 -4 q 753 134 566 -4 q 1075 448 939 273 q 1211 764 1211 624 q 1181 841 1211 813 q 1111 868 1150 868 q 898 748 1017 868 q 779 533 779 629 q 799 479 779 498 q 846 460 819 460 q 979 515 907 460 q 1095 658 1050 569 q 1143 819 1140 747 l 1147 819 m 1383 1007 q 1347 1013 1374 1007 q 1316 1021 1331 1016 q 1285 1033 1301 1026 q 1256 1049 1270 1041 q 1238 1063 1245 1056 q 1229 1072 1232 1067 q 1224 1081 1226 1076 q 1223 1090 1223 1086 q 1242 1109 1223 1109 q 1249 1109 1246 1109 q 1255 1106 1252 1108 q 1263 1098 1258 1104 l 1278 1080 q 1302 1057 1289 1068 q 1324 1038 1313 1046 q 1348 1024 1333 1031 q 1383 1007 1381 1007 z "},"":{"ha":1063,"x_min":386,"x_max":1586,"o":"m 1105 131 l 1109 126 q 876 -5 952 -5 q 838 9 852 -5 q 824 44 824 23 q 852 130 824 77 q 1058 352 880 183 l 1053 357 l 884 209 q 498 -6 640 -6 q 444 16 463 -6 q 426 64 426 38 q 484 194 426 116 q 730 431 543 272 q 985 675 917 589 q 1053 810 1053 760 q 999 897 1053 865 q 869 929 945 929 q 547 833 697 929 q 396 653 396 737 q 432 586 396 612 q 512 561 469 561 q 608 576 550 561 q 741 629 666 591 q 860 704 816 667 q 965 812 903 741 l 968 810 q 534 551 783 551 q 428 578 469 551 q 386 647 386 605 q 474 792 386 717 q 670 902 563 867 q 871 937 778 937 q 1011 900 957 937 q 1066 795 1066 863 q 1044 697 1066 745 q 977 589 1022 650 q 766 385 931 528 l 672 302 q 509 147 571 213 q 447 44 447 81 q 464 13 447 24 q 500 1 481 1 q 559 9 531 1 q 627 35 587 16 q 720 89 666 54 q 847 188 774 125 l 1142 444 q 1270 566 1192 488 l 1520 819 l 1586 821 l 920 151 q 839 32 839 70 q 850 11 839 19 q 876 3 861 3 q 1105 131 954 3 m 1377 1007 q 1412 1023 1381 1007 q 1436 1038 1426 1031 q 1459 1057 1447 1046 q 1482 1080 1472 1069 l 1497 1099 q 1506 1107 1503 1105 q 1512 1109 1509 1109 q 1518 1110 1514 1110 q 1538 1090 1538 1110 q 1537 1082 1538 1086 q 1533 1072 1535 1076 q 1525 1063 1529 1068 q 1507 1050 1518 1057 q 1476 1034 1493 1042 q 1447 1021 1461 1027 q 1417 1013 1431 1016 q 1377 1007 1386 1007 z "},"":{"ha":1063,"x_min":386,"x_max":1586,"o":"m 1105 131 l 1109 126 q 876 -5 952 -5 q 838 9 852 -5 q 824 44 824 23 q 852 130 824 77 q 1058 352 880 183 l 1053 357 l 884 209 q 498 -6 640 -6 q 444 16 463 -6 q 426 64 426 38 q 484 194 426 116 q 730 431 543 272 q 985 675 917 589 q 1053 810 1053 760 q 999 897 1053 865 q 869 929 945 929 q 547 833 697 929 q 396 653 396 737 q 432 586 396 612 q 512 561 469 561 q 608 576 550 561 q 741 629 666 591 q 860 704 816 667 q 965 812 903 741 l 968 810 q 534 551 783 551 q 428 578 469 551 q 386 647 386 605 q 474 792 386 717 q 670 902 563 867 q 871 937 778 937 q 1011 900 957 937 q 1066 795 1066 863 q 1044 697 1066 745 q 977 589 1022 650 q 766 385 931 528 l 672 302 q 509 147 571 213 q 447 44 447 81 q 464 13 447 24 q 500 1 481 1 q 559 9 531 1 q 627 35 587 16 q 720 89 666 54 q 847 188 774 125 l 1142 444 q 1270 566 1192 488 l 1520 819 l 1586 821 l 920 151 q 839 32 839 70 q 850 11 839 19 q 876 3 861 3 q 1105 131 954 3 m 1440 1101 l 1510 1101 q 1469 1056 1476 1066 q 1463 1035 1463 1045 q 1474 1013 1463 1024 l 1469 1007 q 1432 1048 1437 1021 q 1316 1007 1373 1012 l 1312 1013 q 1440 1101 1389 1047 z "},"":{"ha":1063,"x_min":386,"x_max":1586,"o":"m 1105 131 l 1109 126 q 876 -5 952 -5 q 838 9 852 -5 q 824 44 824 23 q 852 130 824 77 q 1058 352 880 183 l 1053 357 l 884 209 q 498 -6 640 -6 q 444 16 463 -6 q 426 64 426 38 q 484 194 426 116 q 730 431 543 272 q 985 675 917 589 q 1053 810 1053 760 q 999 897 1053 865 q 869 929 945 929 q 547 833 697 929 q 396 653 396 737 q 432 586 396 612 q 512 561 469 561 q 608 576 550 561 q 741 629 666 591 q 860 704 816 667 q 965 812 903 741 l 968 810 q 534 551 783 551 q 428 578 469 551 q 386 647 386 605 q 474 792 386 717 q 670 902 563 867 q 871 937 778 937 q 1011 900 957 937 q 1066 795 1066 863 q 1044 697 1066 745 q 977 589 1022 650 q 766 385 931 528 l 672 302 q 509 147 571 213 q 447 44 447 81 q 464 13 447 24 q 500 1 481 1 q 559 9 531 1 q 627 35 587 16 q 720 89 666 54 q 847 188 774 125 l 1142 444 q 1270 566 1192 488 l 1520 819 l 1586 821 l 920 151 q 839 32 839 70 q 850 11 839 19 q 876 3 861 3 q 1105 131 954 3 m 1537 1007 q 1501 1013 1528 1007 q 1470 1021 1485 1016 q 1439 1033 1455 1026 q 1410 1049 1423 1041 q 1392 1063 1399 1056 q 1383 1072 1385 1067 q 1378 1081 1380 1076 q 1377 1090 1377 1086 q 1396 1109 1377 1109 q 1403 1109 1400 1109 q 1409 1106 1406 1108 q 1417 1098 1412 1104 l 1432 1080 q 1456 1057 1443 1068 q 1478 1038 1467 1046 q 1501 1024 1487 1031 q 1537 1007 1535 1007 z "},"":{"ha":226,"x_min":30,"x_max":275,"o":"m 46 126 l 41 131 q 209 264 75 159 l 275 264 l 60 52 q 43 28 47 40 l 43 23 q 50 7 43 14 q 67 1 57 1 q 129 23 89 1 q 267 131 168 45 l 272 126 q 68 -6 121 -6 q 40 5 51 -6 q 30 34 30 16 q 47 89 30 60 q 177 226 64 117 l 176 229 l 113 182 l 46 126 z "},"":{"ha":694,"x_min":434,"x_max":631,"o":"m 562 408 l 631 408 q 591 363 597 374 q 585 342 585 353 q 596 321 585 332 l 591 315 q 554 355 559 328 q 437 315 494 319 l 434 321 q 562 408 511 355 z "},"":{"ha":694,"x_min":434,"x_max":631,"o":"m 631 391 q 616 378 631 391 q 605 369 610 373 q 595 362 600 365 q 586 357 591 359 q 576 354 581 355 q 566 351 572 352 q 554 349 560 350 q 543 349 549 349 q 502 356 526 349 q 470 363 478 363 q 434 347 457 363 q 467 380 444 367 q 509 393 490 393 q 551 386 524 393 q 590 379 578 379 l 594 379 q 599 380 596 380 l 604 381 q 608 382 606 381 q 614 384 611 383 q 619 386 616 385 l 631 391 z "},"":{"ha":694,"x_min":412,"x_max":653,"o":"m 412 362 l 418 370 l 653 370 l 649 362 l 412 362 z "},"":{"ha":694,"x_min":417,"x_max":648,"o":"m 424 410 q 508 353 424 353 q 644 410 589 353 l 648 410 q 506 323 587 323 q 442 344 467 323 q 417 390 417 365 q 420 410 417 397 l 424 410 z "},"":{"ha":694,"x_min":502,"x_max":562,"o":"m 562 370 q 550 345 562 355 q 525 334 538 334 q 509 341 515 334 q 502 359 502 349 q 513 383 502 372 q 538 395 525 395 q 555 387 549 395 q 562 370 562 380 z "},"":{"ha":694,"x_min":578,"x_max":673,"o":"m 625 322 q 592 336 606 322 q 578 370 578 350 q 592 403 578 389 q 625 417 606 417 q 659 403 645 417 q 673 370 673 389 q 659 336 673 350 q 625 322 645 322 m 625 411 q 596 399 608 411 q 584 370 584 387 q 596 340 584 353 q 625 328 608 328 q 654 340 642 328 q 667 370 667 353 q 654 399 667 387 q 625 411 642 411 z "},"":{"ha":694,"x_min":199,"x_max":406,"o":"m 380 0 l 390 0 l 333 -55 q 370 -49 357 -49 q 395 -58 385 -49 q 406 -82 406 -68 q 333 -161 406 -132 q 199 -189 260 -189 l 199 -185 q 326 -132 276 -174 q 376 -69 376 -90 q 363 -57 376 -57 q 327 -68 351 -57 q 279 -102 302 -79 l 275 -96 l 380 0 z "},"":{"ha":694,"x_min":438,"x_max":720,"o":"m 438 310 q 473 326 441 310 q 496 340 486 334 q 519 359 508 349 q 543 382 533 372 l 558 401 q 567 410 564 408 q 572 412 570 412 q 578 413 575 413 q 599 393 599 413 q 597 385 599 389 q 593 375 596 379 q 585 366 590 371 q 568 353 578 360 q 537 337 553 345 q 507 324 522 330 q 478 316 492 319 q 438 310 447 310 m 558 310 q 593 326 562 310 q 617 341 607 334 q 640 359 628 349 q 663 382 652 371 l 678 401 q 687 410 684 408 q 692 412 690 412 q 699 413 696 413 q 720 393 720 413 q 718 385 720 389 q 714 376 717 380 q 705 366 711 371 q 687 353 699 359 q 658 336 673 345 q 627 324 642 330 q 597 316 611 319 q 558 310 568 310 z "},"":{"ha":694,"x_min":250,"x_max":399,"o":"m 397 28 l 369 14 q 345 -1 356 7 q 326 -16 335 -8 q 311 -31 318 -23 q 300 -48 305 -39 q 292 -64 295 -56 q 286 -80 288 -73 q 285 -96 285 -88 q 304 -131 285 -118 q 355 -143 323 -143 q 397 -136 377 -143 l 399 -141 q 321 -164 360 -164 q 250 -111 250 -164 q 283 -38 250 -75 q 385 28 316 0 l 397 28 z "},"":{"ha":694,"x_min":480,"x_max":677,"o":"m 550 315 l 480 315 q 520 359 513 347 q 527 380 527 371 q 515 402 527 392 l 521 408 q 557 368 553 395 q 674 408 621 406 l 677 402 q 550 315 600 369 z "},"":{"ha":1064,"x_min":90,"x_max":1624,"o":"m 815 264 l 639 200 l 642 209 l 825 275 q 917 406 878 341 q 686 378 803 378 q 469 437 533 378 q 405 576 405 496 q 592 847 405 743 q 1035 951 780 951 q 1126 947 1078 951 l 1125 941 q 1037 945 1084 945 q 736 895 890 945 q 500 749 583 846 q 418 558 418 652 q 482 437 418 489 q 690 385 546 385 q 922 412 800 385 q 1253 783 1068 651 q 1543 914 1438 914 q 1601 894 1579 914 q 1624 843 1624 874 q 1419 609 1624 745 q 991 422 1214 473 q 909 306 942 351 l 1072 366 l 1071 357 l 900 295 q 736 132 833 203 q 538 37 640 60 q 755 1 667 1 q 921 23 831 1 q 1105 131 1010 46 l 1109 126 q 716 -12 966 -12 q 491 24 600 -12 q 264 -7 385 -7 q 122 4 155 -7 q 90 36 90 16 q 224 89 90 89 q 524 39 376 89 q 682 127 616 71 q 815 264 749 183 m 997 429 q 1434 627 1253 493 q 1616 848 1616 761 q 1594 891 1616 873 q 1542 908 1573 908 q 1373 848 1472 908 q 1166 665 1274 787 q 997 429 1059 543 m 475 27 q 216 77 319 77 q 99 37 99 77 q 127 11 99 22 q 265 0 155 0 q 475 27 397 0 z "},"":{"ha":291,"x_min":41,"x_max":851,"o":"m 405 447 l 279 401 l 282 410 l 418 459 l 462 501 q 635 652 555 591 q 750 728 715 714 q 808 741 784 741 q 839 730 826 741 q 851 705 851 719 q 764 588 851 666 q 549 433 677 511 q 353 336 421 356 q 295 273 337 318 l 241 213 l 172 132 q 96 24 101 47 l 96 18 q 121 -5 96 -5 q 332 131 180 -5 l 337 126 l 296 91 q 117 -14 172 -14 q 87 -1 100 -14 q 75 31 75 12 q 153 176 75 81 q 253 286 231 271 l 252 290 q 180 237 228 279 l 46 126 l 41 131 q 124 200 74 159 l 193 258 q 235 291 224 285 q 258 302 245 296 q 275 313 271 309 l 405 447 m 471 471 l 434 431 q 362 347 411 406 q 546 440 416 364 q 759 593 676 517 q 842 705 842 669 q 831 725 842 716 q 806 733 821 733 q 706 693 766 733 q 483 483 645 654 l 625 534 l 623 526 l 471 471 z "},"":{"ha":878,"x_min":100,"x_max":1534,"o":"m 1007 499 q 644 92 819 191 q 287 -7 469 -7 q 150 24 201 -7 q 100 107 100 56 q 120 162 100 140 q 170 185 141 185 q 202 175 189 185 q 216 148 216 165 q 204 121 216 132 q 176 110 193 110 q 152 119 162 110 q 141 140 141 128 q 142 149 141 142 q 136 152 137 152 q 120 138 127 152 q 112 108 112 125 q 157 30 112 60 q 287 1 202 1 q 511 47 401 1 q 709 184 621 94 q 935 479 798 275 q 660 436 780 436 q 453 490 526 436 q 380 621 380 543 q 519 847 380 751 q 892 943 658 943 q 1010 937 949 943 l 1008 931 q 903 938 954 938 q 529 830 669 938 q 389 616 389 722 q 459 495 389 547 q 665 444 530 444 q 941 488 762 444 q 1219 791 1062 680 q 1470 902 1377 902 q 1516 887 1498 902 q 1534 852 1534 873 q 1459 727 1534 799 q 1237 586 1383 656 q 1007 499 1090 515 m 1012 507 q 1356 665 1190 554 q 1522 850 1522 775 q 1509 880 1522 868 q 1470 892 1495 892 q 1332 852 1411 892 q 1158 705 1253 811 q 1012 507 1062 599 m 1318 1007 l 1249 1007 q 1288 1052 1281 1040 q 1295 1073 1295 1063 q 1284 1095 1295 1084 l 1289 1101 q 1326 1060 1321 1087 q 1442 1101 1390 1098 l 1446 1095 q 1318 1007 1369 1061 z "},"":{"ha":243,"x_min":-14,"x_max":498,"o":"m 46 126 l 41 131 l 290 339 l 294 332 q 258 298 266 309 q 250 269 250 286 q 254 225 250 254 q 259 171 259 195 q 224 79 259 121 l 285 131 l 290 126 q 42 -8 137 -8 q 2 5 19 -8 q -14 39 -14 18 q -4 66 -14 55 q 21 77 7 77 q 36 71 30 77 q 43 57 43 65 q 34 36 43 45 q 14 27 24 27 q 3 29 10 27 q 41 -1 3 -1 q 162 77 95 -1 q 237 241 230 155 q 246 292 239 269 l 46 126 m 370 408 l 300 408 q 340 452 333 440 q 347 473 347 464 q 336 495 347 485 l 341 501 q 378 460 373 488 q 494 501 441 498 l 498 495 q 370 408 420 462 z "},"":{"ha":930,"x_min":139,"x_max":1360,"o":"m 971 131 l 976 126 q 827 12 877 39 q 734 -15 778 -15 q 683 6 702 -15 q 665 51 665 26 q 751 159 665 97 q 804 218 804 197 q 787 245 804 235 q 743 255 769 255 q 654 244 701 255 q 508 194 608 234 l 431 161 q 395 140 411 153 q 160 -10 201 -10 q 139 7 139 -10 q 150 25 139 16 q 246 81 161 35 q 422 165 332 127 q 506 241 472 209 q 619 352 540 273 q 751 479 698 430 q 687 501 713 501 q 587 449 648 501 l 582 454 q 652 506 614 487 q 720 526 690 526 q 782 508 754 526 l 817 542 q 923 631 864 587 l 1015 698 q 957 692 981 692 q 876 711 907 692 q 846 758 846 730 q 851 781 846 770 q 870 808 857 791 q 884 834 884 825 q 842 876 884 859 q 732 892 801 892 q 505 827 601 892 q 409 699 409 762 q 450 633 409 659 q 543 608 491 608 q 803 713 671 608 l 806 709 q 685 634 760 667 q 541 601 610 601 q 443 628 484 601 q 403 694 403 654 q 501 834 403 768 q 732 899 600 899 q 880 864 828 899 q 931 799 931 829 q 913 757 931 779 q 895 728 895 736 q 953 700 895 700 l 981 701 q 1013 705 996 701 q 1029 709 1029 708 l 1109 774 q 1235 863 1172 825 q 1327 901 1297 901 q 1350 894 1341 901 q 1358 877 1358 887 q 1345 843 1358 861 q 1274 793 1331 825 q 1162 737 1217 760 q 1035 701 1106 714 q 966 637 1008 680 l 909 576 q 824 489 876 541 q 890 468 872 468 q 988 524 927 468 l 991 519 q 862 441 916 441 q 796 461 837 441 q 612 306 760 421 l 454 184 l 455 180 q 637 247 584 232 q 736 262 690 262 q 810 239 787 262 q 833 189 833 216 q 814 133 833 158 q 745 72 795 109 q 695 18 695 35 q 708 1 695 8 q 736 -7 720 -7 q 971 131 818 -7 m 1046 711 q 1160 744 1103 720 q 1270 798 1217 768 q 1336 845 1323 829 q 1350 876 1350 861 q 1327 892 1350 892 q 1199 830 1289 892 q 1046 711 1109 768 m 1232 1007 l 1162 1007 q 1202 1052 1195 1040 q 1209 1073 1209 1063 q 1198 1095 1209 1084 l 1203 1101 q 1240 1060 1235 1087 q 1356 1101 1303 1098 l 1360 1095 q 1232 1007 1282 1061 z "},"":{"ha":414,"x_min":41,"x_max":509,"o":"m 46 126 l 41 131 l 133 207 q 229 263 201 263 q 254 253 243 263 q 264 228 264 242 q 242 192 264 207 q 221 171 221 178 q 233 161 221 161 q 276 174 248 161 q 319 200 304 186 q 398 258 386 258 q 407 252 407 258 q 381 225 407 246 q 294 175 355 205 q 193 81 251 140 q 280 116 260 116 q 305 105 296 116 q 314 80 314 94 q 284 33 314 52 q 255 7 255 15 q 260 -2 255 2 q 271 -5 265 -5 q 393 77 296 -5 l 455 131 l 460 126 l 374 52 q 267 -13 298 -13 q 242 -2 253 -13 q 232 26 232 9 q 272 79 232 54 q 290 98 290 90 q 277 108 290 108 q 225 90 259 108 q 175 64 192 72 q 161 53 174 64 l 133 29 q 71 -13 83 -13 q 62 -5 62 -13 q 93 25 62 1 q 170 69 124 50 l 262 157 l 260 160 q 232 155 241 155 q 208 163 218 155 q 198 183 198 172 q 224 225 198 206 q 242 246 242 239 q 231 256 242 256 q 191 241 217 256 q 46 126 165 227 m 381 315 l 311 315 q 351 359 344 347 q 358 380 358 371 q 347 402 358 392 l 352 408 q 389 368 384 395 q 505 408 452 406 l 509 402 q 381 315 431 369 z "},"":{"ha":694,"x_min":333,"x_max":361,"o":"m 333 926 l 361 926 l 361 481 l 333 481 l 333 926 m 333 213 l 361 213 l 361 -231 l 333 -231 l 333 213 z "},"":{"ha":1253,"x_min":222,"x_max":1540,"o":"m 912 186 l 764 186 l 770 194 l 920 194 q 1048 345 939 211 q 1391 676 1240 581 q 1239 859 1351 795 q 989 922 1128 922 q 702 857 838 922 q 461 675 565 791 q 357 479 357 560 q 415 369 357 420 q 575 318 474 318 q 923 419 764 318 q 1083 627 1083 520 q 1047 697 1083 664 q 951 730 1011 730 q 705 649 837 730 q 470 412 574 568 l 466 416 q 693 646 556 557 q 951 736 829 736 q 1053 700 1016 736 q 1089 625 1089 664 q 927 415 1089 517 q 576 312 765 312 q 401 371 467 312 q 336 510 336 430 q 426 726 336 625 q 670 878 517 827 q 979 930 824 930 q 1234 871 1122 930 q 1396 680 1347 812 q 1538 768 1472 730 l 1540 763 l 1515 748 q 1398 674 1497 737 q 1412 585 1412 632 q 1332 315 1412 458 q 1107 81 1253 172 q 777 -11 962 -11 q 600 16 676 -11 q 414 -7 506 -7 q 284 6 347 -7 q 222 47 222 20 q 330 92 222 92 q 568 45 431 92 l 621 26 q 669 36 623 26 q 779 82 716 47 q 912 186 842 117 m 987 186 q 637 22 854 71 q 811 -4 731 -4 q 1101 84 958 -4 q 1326 316 1245 172 q 1407 586 1407 460 q 1392 669 1407 628 q 1250 534 1309 610 q 1113 341 1190 459 q 996 194 1035 223 l 1125 194 l 1121 186 l 987 186 m 587 21 l 546 37 l 439 68 q 387 77 427 71 q 314 82 347 82 q 230 48 230 82 q 289 13 230 26 q 427 0 348 0 q 529 9 473 0 q 587 21 585 18 z "},"":{"ha":300,"x_min":9,"x_max":578,"o":"m 471 477 l 383 436 l 380 442 l 475 488 q 530 667 515 585 l 536 666 q 485 492 525 593 l 575 536 l 578 529 l 480 482 q 372 281 444 395 q 263 124 300 168 q 296 109 275 109 q 342 131 319 109 l 347 126 q 295 102 321 102 q 258 118 274 102 q 152 29 209 65 q 57 -7 96 -7 q 9 47 9 -7 q 57 154 9 103 q 174 238 105 205 q 286 270 243 270 q 314 260 304 270 q 324 237 324 250 q 320 212 324 227 q 471 477 433 385 m 318 235 q 308 256 318 248 q 286 264 298 264 q 131 162 235 264 q 26 25 26 59 q 37 7 26 15 q 58 0 47 0 q 155 39 92 0 q 268 139 217 79 q 318 235 318 200 z "},"":{"ha":955,"x_min":302,"x_max":1484,"o":"m 1476 781 l 1233 548 l 1023 332 l 918 217 q 701 54 824 115 q 453 -7 578 -7 q 343 21 383 -7 q 302 102 302 50 q 323 166 302 139 q 372 193 344 193 q 402 184 390 193 q 415 158 415 174 q 404 131 415 142 q 376 119 392 119 q 343 149 348 119 l 339 149 q 319 135 326 149 q 311 102 311 121 q 350 26 311 52 q 450 -1 388 -1 q 613 32 534 -1 q 760 124 692 64 q 954 321 829 184 l 1092 470 l 1088 474 q 666 218 804 218 q 598 238 619 218 q 576 287 576 258 q 604 373 576 327 q 655 443 631 418 q 766 535 679 468 q 904 651 852 602 q 975 734 956 701 q 994 803 994 767 q 950 889 994 858 q 840 921 907 921 q 620 873 734 921 q 447 762 505 825 q 389 644 389 699 q 417 591 389 611 q 497 571 446 571 q 714 632 594 571 q 929 809 835 694 l 932 806 q 728 618 829 674 q 509 562 626 562 q 411 585 441 562 q 380 644 380 608 q 449 774 380 708 q 632 884 517 840 q 841 928 746 928 q 958 892 907 928 q 1008 783 1008 857 q 986 696 1008 747 q 925 605 965 646 q 810 506 884 565 q 675 393 736 446 q 601 320 614 340 q 587 277 587 300 q 609 239 587 254 q 664 225 631 225 q 815 275 728 225 q 1040 441 903 325 l 1155 538 q 1236 613 1183 561 l 1407 781 l 1476 781 m 1323 1007 q 1358 1023 1326 1007 q 1381 1038 1371 1031 q 1404 1057 1393 1046 q 1428 1080 1418 1069 l 1443 1099 q 1452 1107 1449 1105 q 1457 1109 1455 1109 q 1463 1110 1460 1110 q 1484 1090 1484 1110 q 1482 1082 1484 1086 q 1478 1072 1481 1076 q 1470 1063 1475 1068 q 1453 1050 1463 1057 q 1422 1034 1438 1042 q 1392 1021 1407 1027 q 1363 1013 1377 1016 q 1323 1007 1332 1007 z "},"":{"ha":511,"x_min":-163,"x_max":558,"o":"m 46 126 l 41 131 l 105 184 q 183 238 138 212 q 254 264 228 264 q 279 254 269 264 q 288 229 288 243 q 268 175 288 201 q 153 66 248 149 q 117 18 117 34 q 137 0 117 0 q 215 32 165 0 q 391 176 264 63 l 456 235 q 481 264 463 241 l 547 264 l 259 -39 q 553 131 401 -3 l 558 126 q 245 -51 389 -19 l 173 -126 q 25 -256 111 -191 q -122 -320 -60 -320 q -163 -292 -163 -320 q -73 -187 -163 -251 q 176 -73 18 -123 l 452 215 l 448 218 q 397 172 429 202 l 334 115 q 257 54 311 94 q 177 3 203 14 q 132 -8 151 -8 q 107 1 119 -8 q 94 28 94 9 q 163 140 94 82 q 249 217 233 199 q 265 245 265 235 q 249 257 265 257 q 191 235 231 257 q 96 168 151 212 l 46 126 m 163 -90 q -53 -184 48 -116 q -155 -292 -155 -252 q -122 -313 -155 -313 q -33 -283 -77 -313 q 105 -153 11 -254 l 163 -90 m 351 310 q 386 326 355 310 q 410 340 399 334 q 433 359 421 349 q 456 382 446 372 l 471 401 q 480 410 477 408 q 486 412 483 412 q 492 413 488 413 q 512 393 512 413 q 511 385 512 389 q 507 375 509 379 q 498 366 503 371 q 481 353 492 360 q 450 337 467 345 q 420 324 435 330 q 391 316 405 319 q 351 310 360 310 z "},"":{"ha":1061,"x_min":168,"x_max":1564,"o":"m 1278 690 q 1176 582 1214 631 q 1060 404 1139 532 q 899 192 982 275 q 688 52 817 109 q 425 -5 560 -5 q 238 37 307 -5 q 168 138 168 78 q 185 183 168 165 q 226 201 201 201 q 260 188 246 201 q 275 156 275 176 q 263 127 275 138 q 233 115 252 115 q 201 130 212 115 q 193 115 193 127 q 253 36 193 72 q 428 1 313 1 q 614 36 526 1 q 771 137 702 72 q 928 312 841 201 l 1000 404 q 1272 696 1141 583 q 952 797 1150 797 q 646 734 794 797 q 396 563 498 671 q 295 358 295 454 q 351 248 295 295 q 481 200 407 200 q 788 313 623 200 q 953 529 953 427 q 917 600 953 575 q 831 624 882 624 q 605 545 721 624 q 393 328 488 467 l 389 331 q 576 532 449 433 q 830 631 703 631 q 928 601 894 631 q 962 527 962 572 q 822 307 962 423 q 511 190 682 190 q 348 241 407 190 q 288 356 288 292 q 489 652 288 500 q 945 804 690 804 q 1276 699 1149 804 q 1563 895 1430 826 l 1564 890 q 1282 694 1347 756 q 1360 500 1360 626 q 1301 345 1360 402 q 1168 288 1242 288 q 1103 338 1103 288 q 1160 422 1103 379 q 1297 472 1216 465 l 1298 465 q 1161 415 1213 454 q 1109 338 1109 375 q 1118 313 1109 323 q 1140 304 1126 304 q 1267 380 1196 304 q 1338 543 1338 456 q 1278 690 1338 641 z "},"":{"ha":496,"x_min":-334,"x_max":754,"o":"m 47 126 l 42 131 l 198 258 l 345 367 q 411 419 391 401 q 494 498 432 437 l 541 545 q 689 702 610 613 l 754 702 l 665 618 q 586 541 643 597 l 360 315 l 203 153 l 165 115 l 168 110 q 442 283 373 283 q 473 269 460 283 q 486 232 486 254 q 470 183 486 206 q 401 118 455 161 q 327 55 347 75 q 307 22 307 35 q 337 -1 307 -1 q 538 131 382 -1 l 543 126 q 336 -9 382 -9 q 305 2 318 -9 q 292 38 292 14 q 302 79 292 60 q 326 113 311 98 q 393 170 341 127 l 432 201 q 469 252 469 231 q 460 268 469 262 q 441 275 451 275 q 248 166 393 275 q -93 -141 102 58 l -267 -319 l -334 -319 l 374 374 l 371 378 q 47 126 184 244 z "},"":{"ha":555,"x_min":187,"x_max":516,"o":"m 187 208 l 201 222 l 516 222 l 501 208 l 187 208 z "},"":{"ha":555,"x_min":143,"x_max":555,"o":"m 359 213 l 435 89 l 422 80 l 346 205 l 149 78 l 143 90 l 339 215 l 263 339 l 275 348 l 352 223 l 550 350 l 555 338 l 359 213 z "},"":{"ha":324,"x_min":221,"x_max":534,"o":"m 534 459 l 287 203 q 275 184 278 193 l 221 184 l 497 439 l 275 329 l 272 334 l 530 463 l 534 459 z "},"":{"ha":324,"x_min":163,"x_max":487,"o":"m 245 228 l 253 231 q 260 233 257 232 q 267 235 264 234 q 273 237 270 236 l 279 238 q 284 239 281 238 q 289 239 287 239 l 294 239 q 319 220 319 239 q 315 204 319 214 q 310 193 310 194 q 318 190 310 190 q 425 249 345 190 l 429 244 l 395 220 q 354 195 382 210 q 309 179 325 179 q 290 185 298 179 q 281 200 281 192 q 289 214 281 205 q 296 226 296 223 q 288 232 296 232 q 167 178 250 232 l 163 184 l 251 237 q 406 352 343 294 q 469 435 469 410 q 448 453 469 453 q 353 408 408 453 q 298 347 298 363 q 304 337 298 341 q 317 332 310 332 q 382 364 336 332 q 450 424 427 396 l 454 421 q 384 358 432 392 q 309 324 336 324 q 283 352 283 324 q 341 427 283 392 q 451 461 400 461 q 487 422 487 461 q 485 408 487 415 q 479 391 483 398 q 468 373 475 382 q 448 351 460 363 q 415 325 433 337 q 368 294 395 311 q 312 264 349 283 q 245 228 243 228 z "},"":{"ha":324,"x_min":157,"x_max":501,"o":"m 388 344 q 395 342 389 344 q 402 339 399 340 q 408 336 405 338 l 412 332 q 415 326 414 330 q 418 320 417 323 l 420 313 q 420 307 420 310 q 354 217 420 256 q 215 178 288 178 q 171 191 184 178 q 157 218 157 203 q 168 243 157 232 q 191 255 178 255 q 205 249 200 255 q 211 240 211 243 q 192 226 211 238 q 174 206 174 214 q 188 192 174 197 q 215 187 201 187 q 335 240 267 187 q 404 315 404 292 q 396 330 404 324 q 378 336 389 336 q 342 330 366 336 l 313 323 l 311 329 l 355 340 q 444 385 408 355 q 480 440 480 415 q 472 455 480 448 q 454 461 465 461 q 387 434 426 461 q 349 391 349 408 q 361 380 349 380 q 406 398 378 380 q 452 440 435 416 l 456 437 q 357 372 401 372 q 332 395 332 372 q 372 448 332 426 q 452 469 412 469 q 489 457 476 469 q 501 426 501 444 q 500 415 501 420 q 496 405 498 410 l 490 395 q 479 385 486 390 q 463 374 473 380 q 441 363 453 368 q 416 353 429 357 q 388 344 391 344 z "},"":{"ha":826,"x_min":221,"x_max":810,"o":"m 534 459 l 287 203 q 275 184 278 193 l 221 184 l 497 439 l 275 329 l 272 334 l 530 463 l 534 459 m 254 -1 l 734 451 l 739 446 l 258 -5 l 254 -1 m 568 43 l 576 45 q 583 47 580 47 q 590 50 587 49 q 596 52 593 51 l 602 53 q 607 54 604 53 q 612 54 610 54 l 616 54 q 642 35 642 54 q 637 19 642 29 q 633 8 633 9 q 641 5 633 5 q 748 64 671 5 l 751 59 l 718 35 q 676 9 705 25 q 632 -6 648 -6 q 613 0 621 -6 q 605 14 605 7 q 612 28 605 20 q 619 41 619 37 q 610 47 619 47 q 566 34 597 47 q 490 -7 534 21 l 486 -1 l 574 52 q 730 168 667 109 q 793 250 793 226 q 770 268 793 268 q 675 223 730 268 q 621 161 621 178 q 627 152 621 156 q 640 147 633 147 q 705 179 660 147 q 772 239 750 211 l 777 236 q 707 173 755 207 q 632 139 659 139 q 606 167 606 139 q 664 241 606 206 q 774 276 723 276 q 801 264 792 276 q 810 237 810 253 q 808 223 810 231 q 803 207 806 214 q 791 187 798 197 q 772 166 784 178 q 740 141 758 153 q 691 109 720 126 q 635 79 678 102 q 568 43 567 43 z "},"":{"ha":826,"x_min":221,"x_max":805,"o":"m 534 459 l 287 203 q 275 184 278 193 l 221 184 l 497 439 l 275 329 l 272 334 l 530 463 l 534 459 m 254 -1 l 734 451 l 739 446 l 258 -5 l 254 -1 m 677 71 l 624 15 q 608 -3 610 1 l 563 -1 q 590 25 577 13 l 647 78 q 586 91 616 91 q 517 69 560 91 l 516 72 q 578 124 542 93 l 645 182 q 703 233 682 213 l 734 262 l 755 283 l 805 282 q 646 159 720 208 l 612 136 q 553 93 583 117 q 611 99 583 99 q 661 92 640 99 l 741 165 l 768 165 l 690 85 q 716 81 704 81 q 769 95 745 81 l 770 90 q 692 68 732 68 q 677 71 686 68 z "},"":{"ha":826,"x_min":157,"x_max":805,"o":"m 388 344 q 395 342 389 344 q 402 339 399 340 q 408 336 405 338 l 412 332 q 415 326 414 330 q 418 320 417 323 l 420 313 q 420 307 420 310 q 354 217 420 256 q 215 178 288 178 q 171 191 184 178 q 157 218 157 203 q 168 243 157 232 q 191 255 178 255 q 205 249 200 255 q 211 240 211 243 q 192 226 211 238 q 174 206 174 214 q 188 192 174 197 q 215 187 201 187 q 335 240 267 187 q 404 315 404 292 q 396 330 404 324 q 378 336 389 336 q 342 330 366 336 l 313 323 l 311 329 l 355 340 q 444 385 408 355 q 480 440 480 415 q 472 455 480 448 q 454 461 465 461 q 387 434 426 461 q 349 391 349 408 q 361 380 349 380 q 406 398 378 380 q 452 440 435 416 l 456 437 q 357 372 401 372 q 332 395 332 372 q 372 448 332 426 q 452 469 412 469 q 489 457 476 469 q 501 426 501 444 q 500 415 501 420 q 496 405 498 410 l 490 395 q 479 385 486 390 q 463 374 473 380 q 441 363 453 368 q 416 353 429 357 q 388 344 391 344 m 254 -1 l 734 451 l 738 446 l 257 -5 l 254 -1 m 676 71 l 608 -3 l 562 -1 q 590 25 576 13 l 647 78 q 586 91 615 91 q 517 69 560 91 l 515 72 q 577 124 541 93 l 645 182 q 703 233 677 209 l 734 262 q 754 283 737 264 l 805 282 q 646 159 718 206 l 612 136 q 553 93 587 120 q 610 99 583 99 q 661 92 640 99 l 740 165 l 768 165 l 690 85 q 715 81 703 81 q 768 95 745 81 l 770 90 q 691 68 731 68 q 676 71 685 68 z "},"":{"ha":184,"x_min":21,"x_max":207,"o":"m 21 140 l 27 147 l 207 147 l 203 140 l 21 140 z "},"":{"ha":694,"x_min":-167,"x_max":543,"o":"m -152 1069 l 543 1069 l 528 1054 l -167 1054 l -152 1069 z "},"":{"ha":271,"x_min":210,"x_max":284,"o":"m 284 237 q 270 208 284 220 q 239 195 255 195 q 218 203 227 195 q 210 224 210 212 q 224 253 210 239 q 255 267 238 267 q 276 258 267 267 q 284 237 284 250 z "},"":{"ha":789,"x_min":360,"x_max":858,"o":"m 360 111 l 446 186 q 415 283 415 234 q 478 433 415 355 l 413 509 l 438 530 l 503 454 q 634 500 565 500 q 752 454 696 500 l 839 530 l 858 509 l 770 432 q 798 336 798 381 q 735 189 798 260 l 802 111 l 777 90 l 711 166 q 580 121 645 121 q 465 165 517 121 l 378 89 l 360 111 m 776 334 q 734 437 776 395 q 631 478 692 478 q 497 420 555 478 q 439 288 439 362 q 480 185 439 227 q 585 144 522 144 q 717 201 659 144 q 776 334 776 258 z "}}}
